%TF.GenerationSoftware,KiCad,Pcbnew,(7.0.0)*%
%TF.CreationDate,2024-03-02T17:43:30+01:00*%
%TF.ProjectId,Infernum HS,496e6665-726e-4756-9d20-48532e6b6963,rev?*%
%TF.SameCoordinates,Original*%
%TF.FileFunction,Soldermask,Bot*%
%TF.FilePolarity,Negative*%
%FSLAX46Y46*%
G04 Gerber Fmt 4.6, Leading zero omitted, Abs format (unit mm)*
G04 Created by KiCad (PCBNEW (7.0.0)) date 2024-03-02 17:43:30*
%MOMM*%
%LPD*%
G01*
G04 APERTURE LIST*
G04 Aperture macros list*
%AMRoundRect*
0 Rectangle with rounded corners*
0 $1 Rounding radius*
0 $2 $3 $4 $5 $6 $7 $8 $9 X,Y pos of 4 corners*
0 Add a 4 corners polygon primitive as box body*
4,1,4,$2,$3,$4,$5,$6,$7,$8,$9,$2,$3,0*
0 Add four circle primitives for the rounded corners*
1,1,$1+$1,$2,$3*
1,1,$1+$1,$4,$5*
1,1,$1+$1,$6,$7*
1,1,$1+$1,$8,$9*
0 Add four rect primitives between the rounded corners*
20,1,$1+$1,$2,$3,$4,$5,0*
20,1,$1+$1,$4,$5,$6,$7,0*
20,1,$1+$1,$6,$7,$8,$9,0*
20,1,$1+$1,$8,$9,$2,$3,0*%
%AMRotRect*
0 Rectangle, with rotation*
0 The origin of the aperture is its center*
0 $1 length*
0 $2 width*
0 $3 Rotation angle, in degrees counterclockwise*
0 Add horizontal line*
21,1,$1,$2,0,0,$3*%
G04 Aperture macros list end*
%ADD10C,0.200000*%
%ADD11R,2.000000X2.000000*%
%ADD12C,2.000000*%
%ADD13R,2.000000X3.200000*%
%ADD14C,4.000000*%
%ADD15C,3.987800*%
%ADD16O,1.350000X1.350000*%
%ADD17C,1.750000*%
%ADD18C,3.300000*%
%ADD19RoundRect,0.250000X1.025000X1.000000X-1.025000X1.000000X-1.025000X-1.000000X1.025000X-1.000000X0*%
%ADD20RoundRect,0.140000X-0.140000X-0.170000X0.140000X-0.170000X0.140000X0.170000X-0.140000X0.170000X0*%
%ADD21R,1.200000X0.900000*%
%ADD22RoundRect,0.250000X-1.025000X-1.000000X1.025000X-1.000000X1.025000X1.000000X-1.025000X1.000000X0*%
%ADD23RoundRect,0.105000X0.245000X0.245000X-0.245000X0.245000X-0.245000X-0.245000X0.245000X-0.245000X0*%
%ADD24RoundRect,0.105000X-0.245000X-0.245000X0.245000X-0.245000X0.245000X0.245000X-0.245000X0.245000X0*%
%ADD25RoundRect,0.150000X-0.625000X0.150000X-0.625000X-0.150000X0.625000X-0.150000X0.625000X0.150000X0*%
%ADD26RoundRect,0.250000X-0.650000X0.350000X-0.650000X-0.350000X0.650000X-0.350000X0.650000X0.350000X0*%
%ADD27RoundRect,0.135000X-0.185000X0.135000X-0.185000X-0.135000X0.185000X-0.135000X0.185000X0.135000X0*%
%ADD28RoundRect,0.135000X-0.135000X-0.185000X0.135000X-0.185000X0.135000X0.185000X-0.135000X0.185000X0*%
%ADD29R,0.900000X1.200000*%
%ADD30RoundRect,0.140000X0.140000X0.170000X-0.140000X0.170000X-0.140000X-0.170000X0.140000X-0.170000X0*%
%ADD31RoundRect,0.140000X-0.170000X0.140000X-0.170000X-0.140000X0.170000X-0.140000X0.170000X0.140000X0*%
%ADD32RoundRect,0.140000X0.170000X-0.140000X0.170000X0.140000X-0.170000X0.140000X-0.170000X-0.140000X0*%
%ADD33RoundRect,0.062500X-0.220971X-0.309359X0.309359X0.220971X0.220971X0.309359X-0.309359X-0.220971X0*%
%ADD34RoundRect,0.062500X0.220971X-0.309359X0.309359X-0.220971X-0.220971X0.309359X-0.309359X0.220971X0*%
%ADD35RotRect,5.600000X5.600000X45.000000*%
%ADD36R,1.350000X1.350000*%
%ADD37R,1.700000X1.700000*%
%ADD38O,1.700000X1.700000*%
%ADD39C,0.750000*%
%ADD40RoundRect,0.050000X-0.300000X-0.725000X0.300000X-0.725000X0.300000X0.725000X-0.300000X0.725000X0*%
%ADD41RoundRect,0.050000X-0.150000X-0.725000X0.150000X-0.725000X0.150000X0.725000X-0.150000X0.725000X0*%
%ADD42O,1.100000X1.700000*%
%ADD43O,1.100000X2.200000*%
%ADD44RoundRect,0.150000X0.150000X-0.587500X0.150000X0.587500X-0.150000X0.587500X-0.150000X-0.587500X0*%
%ADD45R,0.700000X1.000000*%
%ADD46R,0.700000X0.600000*%
%ADD47RoundRect,0.150000X-0.512500X-0.150000X0.512500X-0.150000X0.512500X0.150000X-0.512500X0.150000X0*%
%ADD48RoundRect,0.243750X0.456250X-0.243750X0.456250X0.243750X-0.456250X0.243750X-0.456250X-0.243750X0*%
%ADD49RoundRect,0.135000X0.135000X0.185000X-0.135000X0.185000X-0.135000X-0.185000X0.135000X-0.185000X0*%
G04 APERTURE END LIST*
D10*
X75009375Y-155575000D02*
X82351770Y-155575000D01*
X71834556Y-153880519D02*
G75*
G03*
X71618345Y-153970115I44J-305781D01*
G01*
X73241398Y-153970112D02*
G75*
G03*
X73025184Y-153880557I-216198J-216188D01*
G01*
X73025184Y-153880557D02*
X71834556Y-153880557D01*
X74728749Y-155458751D02*
G75*
G03*
X75009375Y-155575000I280651J280651D01*
G01*
X71618345Y-153970115D02*
X71402134Y-154186326D01*
X82748708Y-155972268D02*
G75*
G03*
X82351770Y-155575392I-396908J-32D01*
G01*
X82747791Y-157091405D02*
X82748646Y-155972268D01*
X74728742Y-155458758D02*
X73257484Y-153987500D01*
X81740476Y-156850038D02*
X81788095Y-156897657D01*
X81788095Y-156897657D02*
X81930952Y-156945276D01*
X81930952Y-156945276D02*
X82026190Y-156945276D01*
X82026190Y-156945276D02*
X82169047Y-156897657D01*
X82169047Y-156897657D02*
X82264285Y-156802419D01*
X82264285Y-156802419D02*
X82311904Y-156707181D01*
X82311904Y-156707181D02*
X82359523Y-156516705D01*
X82359523Y-156516705D02*
X82359523Y-156373848D01*
X82359523Y-156373848D02*
X82311904Y-156183372D01*
X82311904Y-156183372D02*
X82264285Y-156088134D01*
X82264285Y-156088134D02*
X82169047Y-155992896D01*
X82169047Y-155992896D02*
X82026190Y-155945276D01*
X82026190Y-155945276D02*
X81930952Y-155945276D01*
X81930952Y-155945276D02*
X81788095Y-155992896D01*
X81788095Y-155992896D02*
X81740476Y-156040515D01*
X80883333Y-156945276D02*
X80883333Y-156421467D01*
X80883333Y-156421467D02*
X80930952Y-156326229D01*
X80930952Y-156326229D02*
X81026190Y-156278610D01*
X81026190Y-156278610D02*
X81216666Y-156278610D01*
X81216666Y-156278610D02*
X81311904Y-156326229D01*
X80883333Y-156897657D02*
X80978571Y-156945276D01*
X80978571Y-156945276D02*
X81216666Y-156945276D01*
X81216666Y-156945276D02*
X81311904Y-156897657D01*
X81311904Y-156897657D02*
X81359523Y-156802419D01*
X81359523Y-156802419D02*
X81359523Y-156707181D01*
X81359523Y-156707181D02*
X81311904Y-156611943D01*
X81311904Y-156611943D02*
X81216666Y-156564324D01*
X81216666Y-156564324D02*
X80978571Y-156564324D01*
X80978571Y-156564324D02*
X80883333Y-156516705D01*
X80264285Y-156945276D02*
X80359523Y-156897657D01*
X80359523Y-156897657D02*
X80407142Y-156802419D01*
X80407142Y-156802419D02*
X80407142Y-155945276D01*
X79978570Y-156278610D02*
X79740475Y-156945276D01*
X79740475Y-156945276D02*
X79502380Y-156278610D01*
X79121427Y-156945276D02*
X79121427Y-156278610D01*
X79121427Y-155945276D02*
X79169046Y-155992896D01*
X79169046Y-155992896D02*
X79121427Y-156040515D01*
X79121427Y-156040515D02*
X79073808Y-155992896D01*
X79073808Y-155992896D02*
X79121427Y-155945276D01*
X79121427Y-155945276D02*
X79121427Y-156040515D01*
X78645237Y-156278610D02*
X78645237Y-156945276D01*
X78645237Y-156373848D02*
X78597618Y-156326229D01*
X78597618Y-156326229D02*
X78502380Y-156278610D01*
X78502380Y-156278610D02*
X78359523Y-156278610D01*
X78359523Y-156278610D02*
X78264285Y-156326229D01*
X78264285Y-156326229D02*
X78216666Y-156421467D01*
X78216666Y-156421467D02*
X78216666Y-156945276D01*
X77549999Y-155945276D02*
X77454761Y-155945276D01*
X77454761Y-155945276D02*
X77359523Y-155992896D01*
X77359523Y-155992896D02*
X77311904Y-156040515D01*
X77311904Y-156040515D02*
X77264285Y-156135753D01*
X77264285Y-156135753D02*
X77216666Y-156326229D01*
X77216666Y-156326229D02*
X77216666Y-156564324D01*
X77216666Y-156564324D02*
X77264285Y-156754800D01*
X77264285Y-156754800D02*
X77311904Y-156850038D01*
X77311904Y-156850038D02*
X77359523Y-156897657D01*
X77359523Y-156897657D02*
X77454761Y-156945276D01*
X77454761Y-156945276D02*
X77549999Y-156945276D01*
X77549999Y-156945276D02*
X77645237Y-156897657D01*
X77645237Y-156897657D02*
X77692856Y-156850038D01*
X77692856Y-156850038D02*
X77740475Y-156754800D01*
X77740475Y-156754800D02*
X77788094Y-156564324D01*
X77788094Y-156564324D02*
X77788094Y-156326229D01*
X77788094Y-156326229D02*
X77740475Y-156135753D01*
X77740475Y-156135753D02*
X77692856Y-156040515D01*
X77692856Y-156040515D02*
X77645237Y-155992896D01*
X77645237Y-155992896D02*
X77549999Y-155945276D01*
X76311904Y-155945276D02*
X76788094Y-155945276D01*
X76788094Y-155945276D02*
X76835713Y-156421467D01*
X76835713Y-156421467D02*
X76788094Y-156373848D01*
X76788094Y-156373848D02*
X76692856Y-156326229D01*
X76692856Y-156326229D02*
X76454761Y-156326229D01*
X76454761Y-156326229D02*
X76359523Y-156373848D01*
X76359523Y-156373848D02*
X76311904Y-156421467D01*
X76311904Y-156421467D02*
X76264285Y-156516705D01*
X76264285Y-156516705D02*
X76264285Y-156754800D01*
X76264285Y-156754800D02*
X76311904Y-156850038D01*
X76311904Y-156850038D02*
X76359523Y-156897657D01*
X76359523Y-156897657D02*
X76454761Y-156945276D01*
X76454761Y-156945276D02*
X76692856Y-156945276D01*
X76692856Y-156945276D02*
X76788094Y-156897657D01*
X76788094Y-156897657D02*
X76835713Y-156850038D01*
X75407142Y-155945276D02*
X75597618Y-155945276D01*
X75597618Y-155945276D02*
X75692856Y-155992896D01*
X75692856Y-155992896D02*
X75740475Y-156040515D01*
X75740475Y-156040515D02*
X75835713Y-156183372D01*
X75835713Y-156183372D02*
X75883332Y-156373848D01*
X75883332Y-156373848D02*
X75883332Y-156754800D01*
X75883332Y-156754800D02*
X75835713Y-156850038D01*
X75835713Y-156850038D02*
X75788094Y-156897657D01*
X75788094Y-156897657D02*
X75692856Y-156945276D01*
X75692856Y-156945276D02*
X75502380Y-156945276D01*
X75502380Y-156945276D02*
X75407142Y-156897657D01*
X75407142Y-156897657D02*
X75359523Y-156850038D01*
X75359523Y-156850038D02*
X75311904Y-156754800D01*
X75311904Y-156754800D02*
X75311904Y-156516705D01*
X75311904Y-156516705D02*
X75359523Y-156421467D01*
X75359523Y-156421467D02*
X75407142Y-156373848D01*
X75407142Y-156373848D02*
X75502380Y-156326229D01*
X75502380Y-156326229D02*
X75692856Y-156326229D01*
X75692856Y-156326229D02*
X75788094Y-156373848D01*
X75788094Y-156373848D02*
X75835713Y-156421467D01*
X75835713Y-156421467D02*
X75883332Y-156516705D01*
X74978570Y-155945276D02*
X74359523Y-155945276D01*
X74359523Y-155945276D02*
X74692856Y-156326229D01*
X74692856Y-156326229D02*
X74549999Y-156326229D01*
X74549999Y-156326229D02*
X74454761Y-156373848D01*
X74454761Y-156373848D02*
X74407142Y-156421467D01*
X74407142Y-156421467D02*
X74359523Y-156516705D01*
X74359523Y-156516705D02*
X74359523Y-156754800D01*
X74359523Y-156754800D02*
X74407142Y-156850038D01*
X74407142Y-156850038D02*
X74454761Y-156897657D01*
X74454761Y-156897657D02*
X74549999Y-156945276D01*
X74549999Y-156945276D02*
X74835713Y-156945276D01*
X74835713Y-156945276D02*
X74930951Y-156897657D01*
X74930951Y-156897657D02*
X74978570Y-156850038D01*
%TO.C,G\u002A\u002A\u002A*%
G36*
X71815000Y-155540000D02*
G01*
X71672517Y-155682500D01*
X71478767Y-155682500D01*
X71285017Y-155682500D01*
X71427500Y-155540000D01*
X71569984Y-155397500D01*
X71763734Y-155397500D01*
X71957484Y-155397500D01*
X71815000Y-155540000D01*
G37*
G36*
X72305000Y-155682500D02*
G01*
X72020009Y-155967500D01*
X71828130Y-155967500D01*
X71822576Y-155967499D01*
X71792332Y-155967467D01*
X71763649Y-155967390D01*
X71736910Y-155967273D01*
X71712497Y-155967119D01*
X71690791Y-155966932D01*
X71672175Y-155966715D01*
X71657031Y-155966473D01*
X71645741Y-155966209D01*
X71638687Y-155965926D01*
X71636250Y-155965629D01*
X71637104Y-155964630D01*
X71641203Y-155960327D01*
X71648523Y-155952812D01*
X71658875Y-155942273D01*
X71672073Y-155928897D01*
X71687929Y-155912874D01*
X71706256Y-155894393D01*
X71726867Y-155873640D01*
X71749576Y-155850806D01*
X71774193Y-155826078D01*
X71800533Y-155799644D01*
X71828408Y-155771694D01*
X71857631Y-155742416D01*
X71888014Y-155711998D01*
X71919371Y-155680629D01*
X72202492Y-155397500D01*
X72396242Y-155397500D01*
X72589992Y-155397500D01*
X72305000Y-155682500D01*
G37*
G36*
X73459373Y-154701872D02*
G01*
X73948751Y-155191245D01*
X73948751Y-155682495D01*
X73948750Y-156173745D01*
X73459378Y-156663122D01*
X72970005Y-157152500D01*
X72356250Y-157152500D01*
X71742496Y-157152500D01*
X71252500Y-156662500D01*
X70762505Y-156172500D01*
X71742508Y-156172500D01*
X72722510Y-156172500D01*
X72967500Y-155927500D01*
X73212491Y-155682500D01*
X72967500Y-155437500D01*
X72722510Y-155192499D01*
X71993130Y-155192500D01*
X71942244Y-155192496D01*
X71883284Y-155192482D01*
X71825798Y-155192458D01*
X71769980Y-155192425D01*
X71716027Y-155192383D01*
X71664135Y-155192332D01*
X71614499Y-155192273D01*
X71567316Y-155192206D01*
X71522782Y-155192132D01*
X71481092Y-155192051D01*
X71442442Y-155191963D01*
X71407029Y-155191869D01*
X71375049Y-155191770D01*
X71346696Y-155191665D01*
X71322168Y-155191555D01*
X71301660Y-155191441D01*
X71285369Y-155191323D01*
X71273489Y-155191201D01*
X71266218Y-155191076D01*
X71263750Y-155190949D01*
X71265485Y-155187497D01*
X71270413Y-155181023D01*
X71278110Y-155171959D01*
X71288156Y-155160740D01*
X71300129Y-155147797D01*
X71313607Y-155133566D01*
X71328169Y-155118479D01*
X71343392Y-155102968D01*
X71358854Y-155087469D01*
X71374135Y-155072413D01*
X71388811Y-155058235D01*
X71402462Y-155045367D01*
X71414666Y-155034243D01*
X71425000Y-155025296D01*
X71464186Y-154993818D01*
X71526865Y-154948165D01*
X71591388Y-154906846D01*
X71658055Y-154869708D01*
X71727163Y-154836603D01*
X71799012Y-154807379D01*
X71873902Y-154781886D01*
X71952131Y-154759973D01*
X71959537Y-154758069D01*
X71971032Y-154754951D01*
X71979975Y-154752309D01*
X71985598Y-154750376D01*
X71987131Y-154749384D01*
X71985088Y-154748622D01*
X71979180Y-154746969D01*
X71971250Y-154745056D01*
X71963916Y-154743340D01*
X71945260Y-154738616D01*
X71923820Y-154732805D01*
X71900918Y-154726291D01*
X71877879Y-154719453D01*
X71856028Y-154712672D01*
X71836687Y-154706330D01*
X71826592Y-154702854D01*
X71752870Y-154674637D01*
X71681441Y-154642255D01*
X71612626Y-154605879D01*
X71546748Y-154565677D01*
X71484129Y-154521816D01*
X71481883Y-154520132D01*
X71472217Y-154512870D01*
X71464223Y-154506840D01*
X71458678Y-154502631D01*
X71456359Y-154500828D01*
X71456667Y-154500360D01*
X71459802Y-154496896D01*
X71466094Y-154490292D01*
X71475284Y-154480813D01*
X71487110Y-154468722D01*
X71501312Y-154454284D01*
X71517630Y-154437764D01*
X71535803Y-154419427D01*
X71555571Y-154399535D01*
X71576674Y-154378355D01*
X71598851Y-154356149D01*
X71742484Y-154212500D01*
X72356240Y-154212500D01*
X72969996Y-154212500D01*
X73459373Y-154701872D01*
G37*
G36*
X70872633Y-153958776D02*
G01*
X70884095Y-154003197D01*
X70906004Y-154073095D01*
X70932027Y-154140251D01*
X70962235Y-154204823D01*
X70996698Y-154266970D01*
X71035486Y-154326851D01*
X71057928Y-154357790D01*
X71102221Y-154412467D01*
X71150122Y-154464000D01*
X71201353Y-154512199D01*
X71255639Y-154556870D01*
X71312703Y-154597822D01*
X71372267Y-154634862D01*
X71434056Y-154667798D01*
X71497792Y-154696437D01*
X71563199Y-154720587D01*
X71630000Y-154740056D01*
X71632816Y-154740773D01*
X71644637Y-154743881D01*
X71654478Y-154746620D01*
X71661379Y-154748717D01*
X71664382Y-154749898D01*
X71663819Y-154750650D01*
X71659496Y-154752422D01*
X71651873Y-154754743D01*
X71641882Y-154757306D01*
X71619310Y-154763040D01*
X71574785Y-154776266D01*
X71529041Y-154792169D01*
X71483604Y-154810203D01*
X71440000Y-154829818D01*
X71393531Y-154853562D01*
X71332212Y-154889654D01*
X71273695Y-154929712D01*
X71218161Y-154973532D01*
X71165792Y-155020911D01*
X71116769Y-155071642D01*
X71071273Y-155125522D01*
X71029486Y-155182346D01*
X70991589Y-155241911D01*
X70957763Y-155304011D01*
X70928191Y-155368442D01*
X70903053Y-155435000D01*
X70899736Y-155444932D01*
X70895921Y-155456803D01*
X70892218Y-155468963D01*
X70888363Y-155482324D01*
X70884094Y-155497801D01*
X70879150Y-155516305D01*
X70873268Y-155538750D01*
X70872782Y-155540596D01*
X70871798Y-155543657D01*
X70870835Y-155544508D01*
X70869645Y-155542622D01*
X70867978Y-155537470D01*
X70865588Y-155528525D01*
X70862226Y-155515258D01*
X70860940Y-155510278D01*
X70856542Y-155494315D01*
X70851245Y-155476197D01*
X70845601Y-155457794D01*
X70840168Y-155440974D01*
X70821623Y-155389876D01*
X70793302Y-155324374D01*
X70760812Y-155261371D01*
X70724331Y-155201029D01*
X70684035Y-155143514D01*
X70640100Y-155088990D01*
X70592702Y-155037621D01*
X70542017Y-154989572D01*
X70488222Y-154945006D01*
X70431493Y-154904089D01*
X70372005Y-154866984D01*
X70309936Y-154833857D01*
X70245462Y-154804870D01*
X70178758Y-154780190D01*
X70110000Y-154759979D01*
X70102061Y-154757887D01*
X70090844Y-154754724D01*
X70082323Y-154752052D01*
X70077219Y-154750102D01*
X70076250Y-154749106D01*
X70076442Y-154749045D01*
X70080658Y-154747875D01*
X70088555Y-154745799D01*
X70099073Y-154743092D01*
X70111157Y-154740028D01*
X70138562Y-154732667D01*
X70200692Y-154712635D01*
X70262438Y-154688210D01*
X70323023Y-154659774D01*
X70381664Y-154627710D01*
X70437583Y-154592400D01*
X70490000Y-154554228D01*
X70514275Y-154534478D01*
X70544244Y-154508298D01*
X70574219Y-154480317D01*
X70603107Y-154451594D01*
X70629815Y-154423187D01*
X70653248Y-154396155D01*
X70672393Y-154372247D01*
X70714985Y-154313421D01*
X70753327Y-154252014D01*
X70787333Y-154188189D01*
X70816923Y-154122109D01*
X70842014Y-154053935D01*
X70862523Y-153983831D01*
X70863983Y-153978170D01*
X70866981Y-153967008D01*
X70869137Y-153960002D01*
X70870660Y-153956636D01*
X70871756Y-153956399D01*
X70872633Y-153958776D01*
G37*
%TD*%
D11*
%TO.C,SW1*%
X155456249Y-99574999D03*
D12*
X160456250Y-99575000D03*
X157956250Y-99575000D03*
D13*
X152356249Y-92074999D03*
X163556249Y-92074999D03*
D12*
X160456250Y-85075000D03*
X155456250Y-85075000D03*
%TD*%
D11*
%TO.C,SW2*%
X155456249Y-161487499D03*
D12*
X160456250Y-161487500D03*
X157956250Y-161487500D03*
D13*
X152356249Y-153987499D03*
X163556249Y-153987499D03*
D12*
X160456250Y-146987500D03*
X155456250Y-146987500D03*
%TD*%
D14*
%TO.C,S4*%
X138906250Y-156210000D03*
D15*
X138906250Y-140970000D03*
D14*
X100806250Y-156210000D03*
D15*
X100806250Y-140970000D03*
%TD*%
D16*
%TO.C,J1*%
X50006249Y-121681249D03*
X50006249Y-119681249D03*
X50006249Y-117681249D03*
X50006249Y-115681249D03*
X50006249Y-113681249D03*
X50006249Y-111681249D03*
%TD*%
D14*
%TO.C,S3*%
X215106250Y-156210000D03*
D15*
X215106250Y-140970000D03*
D14*
X177006250Y-156210000D03*
D15*
X177006250Y-140970000D03*
%TD*%
D17*
%TO.C,MX31*%
X267811250Y-130175000D03*
D15*
X262731250Y-130175000D03*
D17*
X257651250Y-130175000D03*
D18*
X258921250Y-127635000D03*
D19*
X255371250Y-127635000D03*
X268821250Y-125095000D03*
D18*
X265271250Y-125095000D03*
%TD*%
D17*
%TO.C,MX7*%
X182086250Y-92075000D03*
D15*
X177006250Y-92075000D03*
D17*
X171926250Y-92075000D03*
D18*
X173196250Y-89535000D03*
D19*
X169646250Y-89535000D03*
X183096250Y-86995000D03*
D18*
X179546250Y-86995000D03*
%TD*%
D20*
%TO.C,C20*%
X72048049Y-118885145D03*
X73008049Y-118885145D03*
%TD*%
D21*
%TO.C,D30*%
X246856249Y-132618749D03*
X246856249Y-129318749D03*
%TD*%
D17*
%TO.C,MX61*%
X181451250Y-149225000D03*
D15*
X186531250Y-149225000D03*
D17*
X191611250Y-149225000D03*
D18*
X190341250Y-151765000D03*
D22*
X193891250Y-151765000D03*
X180441250Y-154305000D03*
D18*
X183991250Y-154305000D03*
%TD*%
D23*
%TO.C,D51*%
X58065000Y-100256250D03*
X58065000Y-101356250D03*
X56235000Y-101356250D03*
X56235000Y-100256250D03*
%TD*%
D24*
%TO.C,D53*%
X87985000Y-136694000D03*
X87985000Y-135594000D03*
X89815000Y-135594000D03*
X89815000Y-136694000D03*
%TD*%
%TO.C,D58*%
X107035000Y-136694000D03*
X107035000Y-135594000D03*
X108865000Y-135594000D03*
X108865000Y-136694000D03*
%TD*%
D25*
%TO.C,J2*%
X61500000Y-98512500D03*
X61500000Y-99512500D03*
X61500000Y-100512500D03*
X61500000Y-101512500D03*
D26*
X65375000Y-97212500D03*
X65375000Y-102812500D03*
%TD*%
D24*
%TO.C,D59*%
X207111000Y-136694000D03*
X207111000Y-135594000D03*
X208941000Y-135594000D03*
X208941000Y-136694000D03*
%TD*%
D17*
%TO.C,MX22*%
X58261250Y-130175000D03*
D15*
X53181250Y-130175000D03*
D17*
X48101250Y-130175000D03*
D18*
X49371250Y-127635000D03*
D19*
X45821250Y-127635000D03*
X59271250Y-125095000D03*
D18*
X55721250Y-125095000D03*
%TD*%
D21*
%TO.C,D9*%
X218281249Y-94518749D03*
X218281249Y-91218749D03*
%TD*%
D17*
%TO.C,MX11*%
X258286250Y-92075000D03*
D15*
X253206250Y-92075000D03*
D17*
X248126250Y-92075000D03*
D18*
X249396250Y-89535000D03*
D19*
X245846250Y-89535000D03*
X259296250Y-86995000D03*
D18*
X255746250Y-86995000D03*
%TD*%
D27*
%TO.C,R_Shield1*%
X98145600Y-83716400D03*
X98145600Y-84736400D03*
%TD*%
D28*
%TO.C,R_USB2*%
X96043750Y-85725000D03*
X97063750Y-85725000D03*
%TD*%
D17*
%TO.C,MX3*%
X95726250Y-92075000D03*
D15*
X100806250Y-92075000D03*
D17*
X105886250Y-92075000D03*
D18*
X104616250Y-94615000D03*
D22*
X108166250Y-94615000D03*
X94716250Y-97155000D03*
D18*
X98266250Y-97155000D03*
%TD*%
D17*
%TO.C,MX13*%
X82073750Y-111125000D03*
D15*
X76993750Y-111125000D03*
D17*
X71913750Y-111125000D03*
D18*
X73183750Y-108585000D03*
D19*
X69633750Y-108585000D03*
X83083750Y-106045000D03*
D18*
X79533750Y-106045000D03*
%TD*%
D21*
%TO.C,D10*%
X237331249Y-94518749D03*
X237331249Y-91218749D03*
%TD*%
%TO.C,D24*%
X94456249Y-132618749D03*
X94456249Y-129318749D03*
%TD*%
D17*
%TO.C,MX23*%
X77311250Y-130175000D03*
D15*
X72231250Y-130175000D03*
D17*
X67151250Y-130175000D03*
D18*
X68421250Y-127635000D03*
D19*
X64871250Y-127635000D03*
X78321250Y-125095000D03*
D18*
X74771250Y-125095000D03*
%TD*%
D17*
%TO.C,MX20*%
X243998750Y-111125000D03*
D15*
X238918750Y-111125000D03*
D17*
X233838750Y-111125000D03*
D18*
X235108750Y-108585000D03*
D19*
X231558750Y-108585000D03*
X245008750Y-106045000D03*
D18*
X241458750Y-106045000D03*
%TD*%
D23*
%TO.C,D41*%
X183477500Y-100256250D03*
X183477500Y-101356250D03*
X181647500Y-101356250D03*
X181647500Y-100256250D03*
%TD*%
%TO.C,D56*%
X240691000Y-100288000D03*
X240691000Y-101388000D03*
X238861000Y-101388000D03*
X238861000Y-100288000D03*
%TD*%
D21*
%TO.C,D2*%
X78581249Y-90424999D03*
X78581249Y-93724999D03*
%TD*%
%TO.C,D22*%
X56356249Y-132618749D03*
X56356249Y-129318749D03*
%TD*%
D17*
%TO.C,MX12*%
X63023750Y-111125000D03*
D15*
X57943750Y-111125000D03*
D17*
X52863750Y-111125000D03*
D18*
X54133750Y-108585000D03*
D19*
X50583750Y-108585000D03*
X64033750Y-106045000D03*
D18*
X60483750Y-106045000D03*
%TD*%
D17*
%TO.C,MX9*%
X220186250Y-92075000D03*
D15*
X215106250Y-92075000D03*
D17*
X210026250Y-92075000D03*
D18*
X211296250Y-89535000D03*
D19*
X207746250Y-89535000D03*
X221196250Y-86995000D03*
D18*
X217646250Y-86995000D03*
%TD*%
D21*
%TO.C,D11*%
X256381249Y-94518749D03*
X256381249Y-91218749D03*
%TD*%
D23*
%TO.C,D39*%
X96165000Y-100288000D03*
X96165000Y-101388000D03*
X94335000Y-101388000D03*
X94335000Y-100288000D03*
%TD*%
D17*
%TO.C,MX2*%
X76676250Y-92075000D03*
D15*
X81756250Y-92075000D03*
D17*
X86836250Y-92075000D03*
D18*
X85566250Y-94615000D03*
D22*
X89116250Y-94615000D03*
X75666250Y-97155000D03*
D18*
X79216250Y-97155000D03*
%TD*%
D24*
%TO.C,D52*%
X49885000Y-136694000D03*
X49885000Y-135594000D03*
X51715000Y-135594000D03*
X51715000Y-136694000D03*
%TD*%
D27*
%TO.C,R6*%
X63500000Y-130458750D03*
X63500000Y-131478750D03*
%TD*%
D17*
%TO.C,MX4*%
X124936250Y-92075000D03*
D15*
X119856250Y-92075000D03*
D17*
X114776250Y-92075000D03*
D18*
X116046250Y-89535000D03*
D19*
X112496250Y-89535000D03*
X125946250Y-86995000D03*
D18*
X122396250Y-86995000D03*
%TD*%
D23*
%TO.C,D40*%
X134265000Y-100256250D03*
X134265000Y-101356250D03*
X132435000Y-101356250D03*
X132435000Y-100256250D03*
%TD*%
D29*
%TO.C,D35*%
X170718749Y-148431249D03*
X167418749Y-148431249D03*
%TD*%
D17*
%TO.C,MX29*%
X229711250Y-130175000D03*
D15*
X224631250Y-130175000D03*
D17*
X219551250Y-130175000D03*
D18*
X220821250Y-127635000D03*
D19*
X217271250Y-127635000D03*
X230721250Y-125095000D03*
D18*
X227171250Y-125095000D03*
%TD*%
D21*
%TO.C,D3*%
X97631249Y-90424999D03*
X97631249Y-93724999D03*
%TD*%
D24*
%TO.C,D48*%
X188061000Y-136694000D03*
X188061000Y-135594000D03*
X189891000Y-135594000D03*
X189891000Y-136694000D03*
%TD*%
D30*
%TO.C,C19*%
X65524483Y-112761361D03*
X64564483Y-112761361D03*
%TD*%
D17*
%TO.C,MX8*%
X201136250Y-92075000D03*
D15*
X196056250Y-92075000D03*
D17*
X190976250Y-92075000D03*
D18*
X192246250Y-89535000D03*
D19*
X188696250Y-89535000D03*
X202146250Y-86995000D03*
D18*
X198596250Y-86995000D03*
%TD*%
D30*
%TO.C,C22*%
X60441423Y-122606178D03*
X59481423Y-122606178D03*
%TD*%
D17*
%TO.C,MX59*%
X124301250Y-149225000D03*
D15*
X129381250Y-149225000D03*
D17*
X134461250Y-149225000D03*
D18*
X133191250Y-151765000D03*
D22*
X136741250Y-151765000D03*
X123291250Y-154305000D03*
D18*
X126841250Y-154305000D03*
%TD*%
D20*
%TO.C,C_LDO1*%
X81276250Y-84137500D03*
X82236250Y-84137500D03*
%TD*%
D17*
%TO.C,MX57*%
X84455000Y-149225000D03*
D15*
X79375000Y-149225000D03*
D17*
X74295000Y-149225000D03*
D18*
X75565000Y-146685000D03*
D19*
X72015000Y-146685000D03*
X85465000Y-144145000D03*
D18*
X81915000Y-144145000D03*
%TD*%
D21*
%TO.C,D5*%
X142081249Y-94518749D03*
X142081249Y-91218749D03*
%TD*%
D17*
%TO.C,MX24*%
X96361250Y-130175000D03*
D15*
X91281250Y-130175000D03*
D17*
X86201250Y-130175000D03*
D18*
X87471250Y-127635000D03*
D19*
X83921250Y-127635000D03*
X97371250Y-125095000D03*
D18*
X93821250Y-125095000D03*
%TD*%
D30*
%TO.C,C17*%
X60458031Y-121561582D03*
X59498031Y-121561582D03*
%TD*%
D31*
%TO.C,C18*%
X62302550Y-124926552D03*
X62302550Y-125886552D03*
%TD*%
D17*
%TO.C,MX28*%
X210661250Y-130175000D03*
D15*
X205581250Y-130175000D03*
D17*
X200501250Y-130175000D03*
D18*
X201771250Y-127635000D03*
D19*
X198221250Y-127635000D03*
X211671250Y-125095000D03*
D18*
X208121250Y-125095000D03*
%TD*%
D17*
%TO.C,MX5*%
X143986250Y-92075000D03*
D15*
X138906250Y-92075000D03*
D17*
X133826250Y-92075000D03*
D18*
X135096250Y-89535000D03*
D19*
X131546250Y-89535000D03*
X144996250Y-86995000D03*
D18*
X141446250Y-86995000D03*
%TD*%
D23*
%TO.C,D47*%
X77115000Y-100288000D03*
X77115000Y-101388000D03*
X75285000Y-101388000D03*
X75285000Y-100288000D03*
%TD*%
D24*
%TO.C,D44*%
X264261000Y-136694000D03*
X264261000Y-135594000D03*
X266091000Y-135594000D03*
X266091000Y-136694000D03*
%TD*%
D23*
%TO.C,D42*%
X221577500Y-100256250D03*
X221577500Y-101356250D03*
X219747500Y-101356250D03*
X219747500Y-100256250D03*
%TD*%
D24*
%TO.C,D60*%
X245211000Y-136694000D03*
X245211000Y-135594000D03*
X247041000Y-135594000D03*
X247041000Y-136694000D03*
%TD*%
D32*
%TO.C,C_Shield1*%
X99466400Y-84706400D03*
X99466400Y-83746400D03*
%TD*%
D21*
%TO.C,D26*%
X132556249Y-132618749D03*
X132556249Y-129318749D03*
%TD*%
D17*
%TO.C,MX25*%
X115411250Y-130175000D03*
D15*
X110331250Y-130175000D03*
D17*
X105251250Y-130175000D03*
D18*
X106521250Y-127635000D03*
D19*
X102971250Y-127635000D03*
X116421250Y-125095000D03*
D18*
X112871250Y-125095000D03*
%TD*%
D17*
%TO.C,MX21*%
X263048750Y-111125000D03*
D15*
X257968750Y-111125000D03*
D17*
X252888750Y-111125000D03*
D18*
X254158750Y-108585000D03*
D19*
X250608750Y-108585000D03*
X264058750Y-106045000D03*
D18*
X260508750Y-106045000D03*
%TD*%
D33*
%TO.C,U1*%
X64601364Y-123437723D03*
X64247811Y-123084170D03*
X63894257Y-122730616D03*
X63540704Y-122377063D03*
X63187151Y-122023510D03*
X62833597Y-121669956D03*
X62480044Y-121316403D03*
X62126490Y-120962849D03*
X61772937Y-120609296D03*
X61419384Y-120255743D03*
X61065830Y-119902189D03*
X60712277Y-119548636D03*
D34*
X60712277Y-118576364D03*
X61065830Y-118222811D03*
X61419384Y-117869257D03*
X61772937Y-117515704D03*
X62126490Y-117162151D03*
X62480044Y-116808597D03*
X62833597Y-116455044D03*
X63187151Y-116101490D03*
X63540704Y-115747937D03*
X63894257Y-115394384D03*
X64247811Y-115040830D03*
X64601364Y-114687277D03*
D33*
X65573636Y-114687277D03*
X65927189Y-115040830D03*
X66280743Y-115394384D03*
X66634296Y-115747937D03*
X66987849Y-116101490D03*
X67341403Y-116455044D03*
X67694956Y-116808597D03*
X68048510Y-117162151D03*
X68402063Y-117515704D03*
X68755616Y-117869257D03*
X69109170Y-118222811D03*
X69462723Y-118576364D03*
D34*
X69462723Y-119548636D03*
X69109170Y-119902189D03*
X68755616Y-120255743D03*
X68402063Y-120609296D03*
X68048510Y-120962849D03*
X67694956Y-121316403D03*
X67341403Y-121669956D03*
X66987849Y-122023510D03*
X66634296Y-122377063D03*
X66280743Y-122730616D03*
X65927189Y-123084170D03*
X65573636Y-123437723D03*
D35*
X65087499Y-119062499D03*
%TD*%
D17*
%TO.C,MX19*%
X224948750Y-111125000D03*
D15*
X219868750Y-111125000D03*
D17*
X214788750Y-111125000D03*
D18*
X216058750Y-108585000D03*
D19*
X212508750Y-108585000D03*
X225958750Y-106045000D03*
D18*
X222408750Y-106045000D03*
%TD*%
D36*
%TO.C,J3*%
X72231249Y-93493749D03*
D16*
X72231249Y-91493749D03*
X72231249Y-89493749D03*
%TD*%
D17*
%TO.C,MX17*%
X186848750Y-111125000D03*
D15*
X181768750Y-111125000D03*
D17*
X176688750Y-111125000D03*
D18*
X177958750Y-108585000D03*
D19*
X174408750Y-108585000D03*
X187858750Y-106045000D03*
D18*
X184308750Y-106045000D03*
%TD*%
D24*
%TO.C,D49*%
X127672500Y-118025000D03*
X127672500Y-116925000D03*
X129502500Y-116925000D03*
X129502500Y-118025000D03*
%TD*%
D21*
%TO.C,D27*%
X189706249Y-132618749D03*
X189706249Y-129318749D03*
%TD*%
D17*
%TO.C,MX15*%
X120173750Y-111125000D03*
D15*
X115093750Y-111125000D03*
D17*
X110013750Y-111125000D03*
D18*
X111283750Y-108585000D03*
D19*
X107733750Y-108585000D03*
X121183750Y-106045000D03*
D18*
X117633750Y-106045000D03*
%TD*%
D17*
%TO.C,MX60*%
X124936250Y-149225000D03*
D15*
X119856250Y-149225000D03*
D17*
X114776250Y-149225000D03*
D18*
X116046250Y-146685000D03*
D19*
X112496250Y-146685000D03*
X125946250Y-144145000D03*
D18*
X122396250Y-144145000D03*
%TD*%
D21*
%TO.C,D36*%
X199231249Y-151668749D03*
X199231249Y-148368749D03*
%TD*%
%TO.C,D38*%
X239712499Y-151668749D03*
X239712499Y-148368749D03*
%TD*%
D17*
%TO.C,MX62*%
X201136250Y-149225000D03*
D15*
X196056250Y-149225000D03*
D17*
X190976250Y-149225000D03*
D18*
X192246250Y-146685000D03*
D19*
X188696250Y-146685000D03*
X202146250Y-144145000D03*
D18*
X198596250Y-144145000D03*
%TD*%
D17*
%TO.C,MX10*%
X239236250Y-92075000D03*
D15*
X234156250Y-92075000D03*
D17*
X229076250Y-92075000D03*
D18*
X230346250Y-89535000D03*
D19*
X226796250Y-89535000D03*
X240246250Y-86995000D03*
D18*
X236696250Y-86995000D03*
%TD*%
D17*
%TO.C,MX18*%
X205898750Y-111125000D03*
D15*
X200818750Y-111125000D03*
D17*
X195738750Y-111125000D03*
D18*
X197008750Y-108585000D03*
D19*
X193458750Y-108585000D03*
X206908750Y-106045000D03*
D18*
X203358750Y-106045000D03*
%TD*%
D21*
%TO.C,D1*%
X65881249Y-94518749D03*
X65881249Y-91218749D03*
%TD*%
D37*
%TO.C,SW5*%
X61093749Y-128924999D03*
D38*
X61093749Y-131464999D03*
%TD*%
D31*
%TO.C,C_LDO2*%
X76200000Y-88254900D03*
X76200000Y-89214900D03*
%TD*%
D21*
%TO.C,D17*%
X184943749Y-113568749D03*
X184943749Y-110268749D03*
%TD*%
%TO.C,D31*%
X265906249Y-132618749D03*
X265906249Y-129318749D03*
%TD*%
D17*
%TO.C,MX35*%
X163036250Y-153987500D03*
D15*
X157956250Y-153987500D03*
D17*
X152876250Y-153987500D03*
D18*
X154146250Y-151447500D03*
D19*
X150596250Y-151447500D03*
X164046250Y-148907500D03*
D18*
X160496250Y-148907500D03*
%TD*%
D23*
%TO.C,D55*%
X202591000Y-100288000D03*
X202591000Y-101388000D03*
X200761000Y-101388000D03*
X200761000Y-100288000D03*
%TD*%
D17*
%TO.C,MX1*%
X67786250Y-92075000D03*
D15*
X62706250Y-92075000D03*
D17*
X57626250Y-92075000D03*
D18*
X58896250Y-89535000D03*
D19*
X55346250Y-89535000D03*
X68796250Y-86995000D03*
D18*
X65246250Y-86995000D03*
%TD*%
D21*
%TO.C,D32*%
X82549999Y-151668749D03*
X82549999Y-148368749D03*
%TD*%
D39*
%TO.C,USB1*%
X87889600Y-87428400D03*
X93669600Y-87428400D03*
D40*
X87554600Y-88873400D03*
X88329600Y-88873400D03*
D41*
X89029600Y-88873400D03*
X89529600Y-88873400D03*
X90029600Y-88873400D03*
X90529600Y-88873400D03*
X91029600Y-88873400D03*
X91529600Y-88873400D03*
X92029600Y-88873400D03*
X92529600Y-88873400D03*
D40*
X93229600Y-88873400D03*
X94004600Y-88873400D03*
D42*
X86459599Y-83778399D03*
D43*
X86459599Y-87958399D03*
D42*
X95099599Y-83778399D03*
D43*
X95099599Y-87958399D03*
%TD*%
D21*
%TO.C,D37*%
X218281249Y-151668749D03*
X218281249Y-148368749D03*
%TD*%
D30*
%TO.C,C21*%
X65528649Y-111732528D03*
X64568649Y-111732528D03*
%TD*%
D21*
%TO.C,D18*%
X203993749Y-113568749D03*
X203993749Y-110268749D03*
%TD*%
%TO.C,D13*%
X80168749Y-113568749D03*
X80168749Y-110268749D03*
%TD*%
%TO.C,D4*%
X123031249Y-94518749D03*
X123031249Y-91218749D03*
%TD*%
%TO.C,D21*%
X261143749Y-113568749D03*
X261143749Y-110268749D03*
%TD*%
%TO.C,D23*%
X75406249Y-132618749D03*
X75406249Y-129318749D03*
%TD*%
%TO.C,D16*%
X137318749Y-113568749D03*
X137318749Y-110268749D03*
%TD*%
D17*
%TO.C,MX56*%
X220186250Y-149225000D03*
D15*
X215106250Y-149225000D03*
D17*
X210026250Y-149225000D03*
D18*
X211296250Y-146685000D03*
D19*
X207746250Y-146685000D03*
X221196250Y-144145000D03*
D18*
X217646250Y-144145000D03*
%TD*%
D17*
%TO.C,MX27*%
X191611250Y-130175000D03*
D15*
X186531250Y-130175000D03*
D17*
X181451250Y-130175000D03*
D18*
X182721250Y-127635000D03*
D19*
X179171250Y-127635000D03*
X192621250Y-125095000D03*
D18*
X189071250Y-125095000D03*
%TD*%
D21*
%TO.C,D25*%
X113506249Y-132618749D03*
X113506249Y-129318749D03*
%TD*%
D24*
%TO.C,D54*%
X126085000Y-136694000D03*
X126085000Y-135594000D03*
X127915000Y-135594000D03*
X127915000Y-136694000D03*
%TD*%
D17*
%TO.C,MX55*%
X105886250Y-149225000D03*
D15*
X100806250Y-149225000D03*
D17*
X95726250Y-149225000D03*
D18*
X96996250Y-146685000D03*
D19*
X93446250Y-146685000D03*
X106896250Y-144145000D03*
D18*
X103346250Y-144145000D03*
%TD*%
D29*
%TO.C,D6*%
X169924999Y-86969599D03*
X166624999Y-86969599D03*
%TD*%
D23*
%TO.C,D43*%
X259677500Y-100256250D03*
X259677500Y-101356250D03*
X257847500Y-101356250D03*
X257847500Y-100256250D03*
%TD*%
D21*
%TO.C,D29*%
X227806249Y-132618749D03*
X227806249Y-129318749D03*
%TD*%
D23*
%TO.C,D50*%
X115215000Y-100288000D03*
X115215000Y-101388000D03*
X113385000Y-101388000D03*
X113385000Y-100288000D03*
%TD*%
D21*
%TO.C,D7*%
X180181249Y-94518749D03*
X180181249Y-91218749D03*
%TD*%
D24*
%TO.C,D57*%
X68935000Y-136694000D03*
X68935000Y-135594000D03*
X70765000Y-135594000D03*
X70765000Y-136694000D03*
%TD*%
D44*
%TO.C,U3*%
X79531250Y-88250000D03*
X77631250Y-88250000D03*
X78581250Y-86375000D03*
%TD*%
D24*
%TO.C,D46*%
X226161000Y-136694000D03*
X226161000Y-135594000D03*
X227991000Y-135594000D03*
X227991000Y-136694000D03*
%TD*%
D17*
%TO.C,MX16*%
X139223750Y-111125000D03*
D15*
X134143750Y-111125000D03*
D17*
X129063750Y-111125000D03*
D18*
X130333750Y-108585000D03*
D19*
X126783750Y-108585000D03*
X140233750Y-106045000D03*
D18*
X136683750Y-106045000D03*
%TD*%
D21*
%TO.C,D34*%
X109537499Y-151668749D03*
X109537499Y-148368749D03*
%TD*%
%TO.C,D20*%
X242093749Y-113568749D03*
X242093749Y-110268749D03*
%TD*%
D17*
%TO.C,MX30*%
X248761250Y-130175000D03*
D15*
X243681250Y-130175000D03*
D17*
X238601250Y-130175000D03*
D18*
X239871250Y-127635000D03*
D19*
X236321250Y-127635000D03*
X249771250Y-125095000D03*
D18*
X246221250Y-125095000D03*
%TD*%
D21*
%TO.C,D8*%
X199231249Y-94518749D03*
X199231249Y-91218749D03*
%TD*%
D45*
%TO.C,U4*%
X93074999Y-92912499D03*
D46*
X93074999Y-94612499D03*
X91074999Y-94612499D03*
X91074999Y-92712499D03*
%TD*%
D21*
%TO.C,D14*%
X99218749Y-113568749D03*
X99218749Y-110268749D03*
%TD*%
%TO.C,D15*%
X118268749Y-113568749D03*
X118268749Y-110268749D03*
%TD*%
D47*
%TO.C,U5*%
X54425000Y-116043750D03*
X54425000Y-115093750D03*
X54425000Y-114143750D03*
X56700000Y-114143750D03*
X56700000Y-116043750D03*
%TD*%
D17*
%TO.C,MX26*%
X134461250Y-130175000D03*
D15*
X129381250Y-130175000D03*
D17*
X124301250Y-130175000D03*
D18*
X125571250Y-127635000D03*
D19*
X122021250Y-127635000D03*
X135471250Y-125095000D03*
D18*
X131921250Y-125095000D03*
%TD*%
D17*
%TO.C,MX14*%
X101123750Y-111125000D03*
D15*
X96043750Y-111125000D03*
D17*
X90963750Y-111125000D03*
D18*
X92233750Y-108585000D03*
D19*
X88683750Y-108585000D03*
X102133750Y-106045000D03*
D18*
X98583750Y-106045000D03*
%TD*%
D21*
%TO.C,D28*%
X208756249Y-132618749D03*
X208756249Y-129318749D03*
%TD*%
D24*
%TO.C,D45*%
X186410000Y-118025000D03*
X186410000Y-116925000D03*
X188240000Y-116925000D03*
X188240000Y-118025000D03*
%TD*%
D17*
%TO.C,MX58*%
X241617500Y-149225000D03*
D15*
X236537500Y-149225000D03*
D17*
X231457500Y-149225000D03*
D18*
X232727500Y-146685000D03*
D19*
X229177500Y-146685000D03*
X242627500Y-144145000D03*
D18*
X239077500Y-144145000D03*
%TD*%
D31*
%TO.C,C16*%
X63500000Y-124932500D03*
X63500000Y-125892500D03*
%TD*%
D48*
%TO.C,F1*%
X81756250Y-87456250D03*
X81756250Y-85581250D03*
%TD*%
D21*
%TO.C,D19*%
X223043749Y-113568749D03*
X223043749Y-110268749D03*
%TD*%
%TO.C,D12*%
X61118749Y-113568749D03*
X61118749Y-110268749D03*
%TD*%
D17*
%TO.C,MX6*%
X163036250Y-92075000D03*
D15*
X157956250Y-92075000D03*
D17*
X152876250Y-92075000D03*
D18*
X154146250Y-89535000D03*
D19*
X150596250Y-89535000D03*
X164046250Y-86995000D03*
D18*
X160496250Y-86995000D03*
%TD*%
D49*
%TO.C,R_USB1*%
X85441250Y-85725000D03*
X84421250Y-85725000D03*
%TD*%
D21*
%TO.C,D33*%
X103981249Y-151668749D03*
X103981249Y-148368749D03*
%TD*%
M02*
