%TF.GenerationSoftware,KiCad,Pcbnew,(7.0.0)*%
%TF.CreationDate,2024-03-02T17:43:30+01:00*%
%TF.ProjectId,Infernum HS,496e6665-726e-4756-9d20-48532e6b6963,rev?*%
%TF.SameCoordinates,Original*%
%TF.FileFunction,Profile,NP*%
%FSLAX46Y46*%
G04 Gerber Fmt 4.6, Leading zero omitted, Abs format (unit mm)*
G04 Created by KiCad (PCBNEW (7.0.0)) date 2024-03-02 17:43:30*
%MOMM*%
%LPD*%
G01*
G04 APERTURE LIST*
%TA.AperFunction,Profile*%
%ADD10C,0.100000*%
%TD*%
G04 APERTURE END LIST*
D10*
X264318750Y-101996875D02*
X265112500Y-101996875D01*
X50800000Y-101996875D02*
X51593750Y-101996875D01*
X148034375Y-142875000D02*
X148034375Y-140890625D01*
X175418750Y-138906250D02*
G75*
G03*
X177006250Y-137318750I-50J1587550D01*
G01*
X246062500Y-158353125D02*
X169068750Y-158353125D01*
X67865575Y-156368750D02*
G75*
G03*
X69850000Y-158353125I1984425J50D01*
G01*
X65484375Y-137318750D02*
G75*
G03*
X59928125Y-137318750I-2778125J0D01*
G01*
X167878125Y-142875000D02*
X167878125Y-140890625D01*
X148828125Y-161131250D02*
X148828125Y-160337500D01*
X267096925Y-119062500D02*
G75*
G03*
X269081250Y-121046875I1984375J0D01*
G01*
X169068750Y-158353075D02*
G75*
G03*
X167084375Y-160337500I50J-1984425D01*
G01*
X262334425Y-84931250D02*
G75*
G03*
X260350000Y-82946875I-1984425J-50D01*
G01*
X69453125Y-84931250D02*
G75*
G03*
X67468750Y-82946875I-1984425J-50D01*
G01*
X248443750Y-82946875D02*
X260350000Y-82946875D01*
X269875000Y-139303125D02*
X257968750Y-139303125D01*
X165100000Y-163115625D02*
X150812500Y-163115625D01*
X55562500Y-82946875D02*
X67468750Y-82946875D01*
X271859425Y-123031250D02*
G75*
G03*
X269875000Y-121046875I-1984425J-50D01*
G01*
X171053125Y-101203125D02*
X144859375Y-101203125D01*
X240903125Y-84931250D02*
G75*
G03*
X238918750Y-82946875I-1984425J-50D01*
G01*
X167084375Y-161131250D02*
X167084375Y-160337500D01*
X172640575Y-102790625D02*
G75*
G03*
X171053125Y-101203125I-1587475J25D01*
G01*
X166290625Y-144462525D02*
G75*
G03*
X167878125Y-142875000I-25J1587525D01*
G01*
X57943750Y-139303125D02*
G75*
G03*
X59928125Y-137318750I0J1984375D01*
G01*
X44053075Y-137318750D02*
G75*
G03*
X46037500Y-139303125I1984425J50D01*
G01*
X169862483Y-138906233D02*
X175418750Y-138906250D01*
X255984375Y-137318750D02*
G75*
G03*
X257968750Y-139303125I1984425J50D01*
G01*
X46831250Y-121046925D02*
G75*
G03*
X48815625Y-119062500I-50J1984425D01*
G01*
X267096925Y-103981250D02*
G75*
G03*
X265112500Y-101996875I-1984425J-50D01*
G01*
X271859375Y-123031250D02*
X271859375Y-137318750D01*
X76993750Y-82946875D02*
X238918750Y-82946875D01*
X269875000Y-139303075D02*
G75*
G03*
X271859375Y-137318750I0J1984375D01*
G01*
X269081250Y-121046875D02*
X269875000Y-121046875D01*
X177006175Y-121840625D02*
G75*
G03*
X175418750Y-120253125I-1587475J25D01*
G01*
X46037500Y-121046875D02*
G75*
G03*
X44053125Y-123031250I0J-1984375D01*
G01*
X262334425Y-100012500D02*
G75*
G03*
X264318750Y-101996875I1984375J0D01*
G01*
X44053125Y-137318750D02*
X44053125Y-123031250D01*
X140493750Y-138906250D02*
X146050000Y-138906250D01*
X53578125Y-100012500D02*
X53578125Y-84931250D01*
X249200005Y-139400010D02*
G75*
G03*
X248046875Y-141287500I968195J-1887490D01*
G01*
X255984375Y-137318750D02*
G75*
G03*
X250428125Y-137318750I-2778125J0D01*
G01*
X138906250Y-121840625D02*
X138906250Y-137318750D01*
X148034350Y-140890625D02*
G75*
G03*
X146050000Y-138906250I-1984350J25D01*
G01*
X267096875Y-103981250D02*
X267096875Y-119062500D01*
X165100000Y-163115575D02*
G75*
G03*
X167084375Y-161131250I0J1984375D01*
G01*
X51593750Y-101996925D02*
G75*
G03*
X53578125Y-100012500I-50J1984425D01*
G01*
X148828075Y-161131250D02*
G75*
G03*
X150812500Y-163115625I1984425J50D01*
G01*
X240903125Y-84931250D02*
G75*
G03*
X246459375Y-84931250I2778125J0D01*
G01*
X67865625Y-156368750D02*
X67865625Y-141287500D01*
X144859375Y-101203075D02*
G75*
G03*
X143271875Y-102790625I25J-1587525D01*
G01*
X262334375Y-84931250D02*
X262334375Y-100012500D01*
X174625000Y-120253125D02*
X175418750Y-120253125D01*
X148034400Y-142875000D02*
G75*
G03*
X149621875Y-144462500I1587500J0D01*
G01*
X248443750Y-82946875D02*
G75*
G03*
X246459375Y-84931250I50J-1984425D01*
G01*
X248046875Y-141287500D02*
X248046875Y-156368750D01*
X169862483Y-138906208D02*
G75*
G03*
X167878108Y-140890608I17J-1984392D01*
G01*
X67865632Y-141287500D02*
G75*
G03*
X66800000Y-139400000I-2204432J0D01*
G01*
X69453125Y-84931250D02*
G75*
G03*
X75009375Y-84931250I2778125J0D01*
G01*
X246062500Y-158353075D02*
G75*
G03*
X248046875Y-156368750I0J1984375D01*
G01*
X76993750Y-82946875D02*
G75*
G03*
X75009375Y-84931250I50J-1984425D01*
G01*
X48815625Y-119062500D02*
X48815625Y-103981250D01*
X138906250Y-137318750D02*
G75*
G03*
X140493750Y-138906250I1587550J50D01*
G01*
X143271875Y-102790625D02*
X143271875Y-118268750D01*
X249200011Y-139400020D02*
G75*
G03*
X250428125Y-137318750I-1149411J2081220D01*
G01*
X172640625Y-118268750D02*
X172640625Y-102790625D01*
X148828075Y-160337500D02*
G75*
G03*
X146843750Y-158353125I-1984375J0D01*
G01*
X55562500Y-82946875D02*
G75*
G03*
X53578125Y-84931250I0J-1984375D01*
G01*
X50800000Y-101996875D02*
G75*
G03*
X48815625Y-103981250I0J-1984375D01*
G01*
X57943750Y-139303125D02*
X46037500Y-139303125D01*
X141287500Y-120253075D02*
G75*
G03*
X143271875Y-118268750I0J1984375D01*
G01*
X141287500Y-120253125D02*
X140493750Y-120253125D01*
X149621875Y-144462500D02*
X166290625Y-144462500D01*
X140493750Y-120253050D02*
G75*
G03*
X138906250Y-121840625I50J-1587550D01*
G01*
X46037500Y-121046875D02*
X46831250Y-121046875D01*
X172640575Y-118268750D02*
G75*
G03*
X174625000Y-120253125I1984425J50D01*
G01*
X146843750Y-158353125D02*
X69850000Y-158353125D01*
X177006250Y-137318750D02*
X177006250Y-121840625D01*
X65484420Y-137318750D02*
G75*
G03*
X66800000Y-139399999I2303980J-50D01*
G01*
M02*
