%TF.GenerationSoftware,KiCad,Pcbnew,(7.0.0)*%
%TF.CreationDate,2023-12-26T01:12:33+01:00*%
%TF.ProjectId,Infernum HS,496e6665-726e-4756-9d20-48532e6b6963,rev?*%
%TF.SameCoordinates,Original*%
%TF.FileFunction,Soldermask,Top*%
%TF.FilePolarity,Negative*%
%FSLAX46Y46*%
G04 Gerber Fmt 4.6, Leading zero omitted, Abs format (unit mm)*
G04 Created by KiCad (PCBNEW (7.0.0)) date 2023-12-26 01:12:33*
%MOMM*%
%LPD*%
G01*
G04 APERTURE LIST*
%ADD10O,1.350000X1.350000*%
%ADD11C,1.750000*%
%ADD12C,3.987800*%
%ADD13C,3.300000*%
%ADD14R,2.000000X2.000000*%
%ADD15C,2.000000*%
%ADD16R,2.000000X3.200000*%
%ADD17R,1.700000X1.700000*%
%ADD18O,1.700000X1.700000*%
%ADD19C,0.750000*%
%ADD20O,1.100000X1.700000*%
%ADD21O,1.100000X2.200000*%
G04 APERTURE END LIST*
D10*
%TO.C,J1*%
X50006249Y-121681249D03*
X50006249Y-119681249D03*
X50006249Y-117681249D03*
X50006249Y-115681249D03*
X50006249Y-113681249D03*
X50006249Y-111681249D03*
%TD*%
D11*
%TO.C,MX12*%
X63023750Y-111125000D03*
D12*
X57943750Y-111125000D03*
D11*
X52863750Y-111125000D03*
D13*
X54133750Y-108585000D03*
X60483750Y-106045000D03*
%TD*%
D14*
%TO.C,SW1*%
X155456249Y-99574999D03*
D15*
X160456250Y-99575000D03*
X157956250Y-99575000D03*
D16*
X152356249Y-92074999D03*
X163556249Y-92074999D03*
D15*
X160456250Y-85075000D03*
X155456250Y-85075000D03*
%TD*%
D14*
%TO.C,SW2*%
X155456249Y-161487499D03*
D15*
X160456250Y-161487500D03*
X157956250Y-161487500D03*
D16*
X152356249Y-153987499D03*
X163556249Y-153987499D03*
D15*
X160456250Y-146987500D03*
X155456250Y-146987500D03*
%TD*%
D12*
%TO.C,S4*%
X138906250Y-140970000D03*
X100806250Y-140970000D03*
%TD*%
%TO.C,S3*%
X215106250Y-140970000D03*
X177006250Y-140970000D03*
%TD*%
D11*
%TO.C,MX31*%
X267811250Y-130175000D03*
D12*
X262731250Y-130175000D03*
D11*
X257651250Y-130175000D03*
D13*
X258921250Y-127635000D03*
X265271250Y-125095000D03*
%TD*%
D11*
%TO.C,MX7*%
X182086250Y-92075000D03*
D12*
X177006250Y-92075000D03*
D11*
X171926250Y-92075000D03*
D13*
X173196250Y-89535000D03*
X179546250Y-86995000D03*
%TD*%
D11*
%TO.C,MX61*%
X181451250Y-149225000D03*
D12*
X186531250Y-149225000D03*
D11*
X191611250Y-149225000D03*
D13*
X190341250Y-151765000D03*
X183991250Y-154305000D03*
%TD*%
D11*
%TO.C,MX22*%
X58261250Y-130175000D03*
D12*
X53181250Y-130175000D03*
D11*
X48101250Y-130175000D03*
D13*
X49371250Y-127635000D03*
X55721250Y-125095000D03*
%TD*%
D11*
%TO.C,MX11*%
X258286250Y-92075000D03*
D12*
X253206250Y-92075000D03*
D11*
X248126250Y-92075000D03*
D13*
X249396250Y-89535000D03*
X255746250Y-86995000D03*
%TD*%
D11*
%TO.C,MX3*%
X95726250Y-92075000D03*
D12*
X100806250Y-92075000D03*
D11*
X105886250Y-92075000D03*
D13*
X104616250Y-94615000D03*
X98266250Y-97155000D03*
%TD*%
D11*
%TO.C,MX13*%
X82073750Y-111125000D03*
D12*
X76993750Y-111125000D03*
D11*
X71913750Y-111125000D03*
D13*
X73183750Y-108585000D03*
X79533750Y-106045000D03*
%TD*%
D11*
%TO.C,MX23*%
X77311250Y-130175000D03*
D12*
X72231250Y-130175000D03*
D11*
X67151250Y-130175000D03*
D13*
X68421250Y-127635000D03*
X74771250Y-125095000D03*
%TD*%
D11*
%TO.C,MX20*%
X243998750Y-111125000D03*
D12*
X238918750Y-111125000D03*
D11*
X233838750Y-111125000D03*
D13*
X235108750Y-108585000D03*
X241458750Y-106045000D03*
%TD*%
D11*
%TO.C,MX9*%
X220186250Y-92075000D03*
D12*
X215106250Y-92075000D03*
D11*
X210026250Y-92075000D03*
D13*
X211296250Y-89535000D03*
X217646250Y-86995000D03*
%TD*%
D11*
%TO.C,MX2*%
X76676250Y-92075000D03*
D12*
X81756250Y-92075000D03*
D11*
X86836250Y-92075000D03*
D13*
X85566250Y-94615000D03*
X79216250Y-97155000D03*
%TD*%
D11*
%TO.C,MX4*%
X124936250Y-92075000D03*
D12*
X119856250Y-92075000D03*
D11*
X114776250Y-92075000D03*
D13*
X116046250Y-89535000D03*
X122396250Y-86995000D03*
%TD*%
D11*
%TO.C,MX29*%
X229711250Y-130175000D03*
D12*
X224631250Y-130175000D03*
D11*
X219551250Y-130175000D03*
D13*
X220821250Y-127635000D03*
X227171250Y-125095000D03*
%TD*%
D11*
%TO.C,MX8*%
X201136250Y-92075000D03*
D12*
X196056250Y-92075000D03*
D11*
X190976250Y-92075000D03*
D13*
X192246250Y-89535000D03*
X198596250Y-86995000D03*
%TD*%
D11*
%TO.C,MX59*%
X124301250Y-149225000D03*
D12*
X129381250Y-149225000D03*
D11*
X134461250Y-149225000D03*
D13*
X133191250Y-151765000D03*
X126841250Y-154305000D03*
%TD*%
D11*
%TO.C,MX57*%
X84455000Y-149225000D03*
D12*
X79375000Y-149225000D03*
D11*
X74295000Y-149225000D03*
D13*
X75565000Y-146685000D03*
X81915000Y-144145000D03*
%TD*%
D11*
%TO.C,MX24*%
X96361250Y-130175000D03*
D12*
X91281250Y-130175000D03*
D11*
X86201250Y-130175000D03*
D13*
X87471250Y-127635000D03*
X93821250Y-125095000D03*
%TD*%
D11*
%TO.C,MX28*%
X210661250Y-130175000D03*
D12*
X205581250Y-130175000D03*
D11*
X200501250Y-130175000D03*
D13*
X201771250Y-127635000D03*
X208121250Y-125095000D03*
%TD*%
D11*
%TO.C,MX5*%
X143986250Y-92075000D03*
D12*
X138906250Y-92075000D03*
D11*
X133826250Y-92075000D03*
D13*
X135096250Y-89535000D03*
X141446250Y-86995000D03*
%TD*%
D11*
%TO.C,MX25*%
X115411250Y-130175000D03*
D12*
X110331250Y-130175000D03*
D11*
X105251250Y-130175000D03*
D13*
X106521250Y-127635000D03*
X112871250Y-125095000D03*
%TD*%
D11*
%TO.C,MX21*%
X263048750Y-111125000D03*
D12*
X257968750Y-111125000D03*
D11*
X252888750Y-111125000D03*
D13*
X254158750Y-108585000D03*
X260508750Y-106045000D03*
%TD*%
D11*
%TO.C,MX19*%
X224948750Y-111125000D03*
D12*
X219868750Y-111125000D03*
D11*
X214788750Y-111125000D03*
D13*
X216058750Y-108585000D03*
X222408750Y-106045000D03*
%TD*%
D11*
%TO.C,MX17*%
X186848750Y-111125000D03*
D12*
X181768750Y-111125000D03*
D11*
X176688750Y-111125000D03*
D13*
X177958750Y-108585000D03*
X184308750Y-106045000D03*
%TD*%
D11*
%TO.C,MX15*%
X120173750Y-111125000D03*
D12*
X115093750Y-111125000D03*
D11*
X110013750Y-111125000D03*
D13*
X111283750Y-108585000D03*
X117633750Y-106045000D03*
%TD*%
D11*
%TO.C,MX60*%
X124936250Y-149225000D03*
D12*
X119856250Y-149225000D03*
D11*
X114776250Y-149225000D03*
D13*
X116046250Y-146685000D03*
X122396250Y-144145000D03*
%TD*%
D11*
%TO.C,MX62*%
X201136250Y-149225000D03*
D12*
X196056250Y-149225000D03*
D11*
X190976250Y-149225000D03*
D13*
X192246250Y-146685000D03*
X198596250Y-144145000D03*
%TD*%
D11*
%TO.C,MX10*%
X239236250Y-92075000D03*
D12*
X234156250Y-92075000D03*
D11*
X229076250Y-92075000D03*
D13*
X230346250Y-89535000D03*
X236696250Y-86995000D03*
%TD*%
D11*
%TO.C,MX18*%
X205898750Y-111125000D03*
D12*
X200818750Y-111125000D03*
D11*
X195738750Y-111125000D03*
D13*
X197008750Y-108585000D03*
X203358750Y-106045000D03*
%TD*%
D17*
%TO.C,SW5*%
X61093749Y-128924999D03*
D18*
X61093749Y-131464999D03*
%TD*%
D11*
%TO.C,MX35*%
X163036250Y-153987500D03*
D12*
X157956250Y-153987500D03*
D11*
X152876250Y-153987500D03*
D13*
X154146250Y-151447500D03*
X160496250Y-148907500D03*
%TD*%
D11*
%TO.C,MX1*%
X67786250Y-92075000D03*
D12*
X62706250Y-92075000D03*
D11*
X57626250Y-92075000D03*
D13*
X58896250Y-89535000D03*
X65246250Y-86995000D03*
%TD*%
D19*
%TO.C,USB1*%
X87889600Y-87428400D03*
X93669600Y-87428400D03*
D20*
X86459599Y-83778399D03*
D21*
X86459599Y-87958399D03*
D20*
X95099599Y-83778399D03*
D21*
X95099599Y-87958399D03*
%TD*%
D11*
%TO.C,MX56*%
X220186250Y-149225000D03*
D12*
X215106250Y-149225000D03*
D11*
X210026250Y-149225000D03*
D13*
X211296250Y-146685000D03*
X217646250Y-144145000D03*
%TD*%
D11*
%TO.C,MX27*%
X191611250Y-130175000D03*
D12*
X186531250Y-130175000D03*
D11*
X181451250Y-130175000D03*
D13*
X182721250Y-127635000D03*
X189071250Y-125095000D03*
%TD*%
D11*
%TO.C,MX55*%
X105886250Y-149225000D03*
D12*
X100806250Y-149225000D03*
D11*
X95726250Y-149225000D03*
D13*
X96996250Y-146685000D03*
X103346250Y-144145000D03*
%TD*%
D11*
%TO.C,MX16*%
X139223750Y-111125000D03*
D12*
X134143750Y-111125000D03*
D11*
X129063750Y-111125000D03*
D13*
X130333750Y-108585000D03*
X136683750Y-106045000D03*
%TD*%
D11*
%TO.C,MX30*%
X248761250Y-130175000D03*
D12*
X243681250Y-130175000D03*
D11*
X238601250Y-130175000D03*
D13*
X239871250Y-127635000D03*
X246221250Y-125095000D03*
%TD*%
D11*
%TO.C,MX26*%
X134461250Y-130175000D03*
D12*
X129381250Y-130175000D03*
D11*
X124301250Y-130175000D03*
D13*
X125571250Y-127635000D03*
X131921250Y-125095000D03*
%TD*%
D11*
%TO.C,MX14*%
X101123750Y-111125000D03*
D12*
X96043750Y-111125000D03*
D11*
X90963750Y-111125000D03*
D13*
X92233750Y-108585000D03*
X98583750Y-106045000D03*
%TD*%
D11*
%TO.C,MX58*%
X241617500Y-149225000D03*
D12*
X236537500Y-149225000D03*
D11*
X231457500Y-149225000D03*
D13*
X232727500Y-146685000D03*
X239077500Y-144145000D03*
%TD*%
D11*
%TO.C,MX6*%
X163036250Y-92075000D03*
D12*
X157956250Y-92075000D03*
D11*
X152876250Y-92075000D03*
D13*
X154146250Y-89535000D03*
X160496250Y-86995000D03*
%TD*%
M02*
