M48
; DRILL file {KiCad (7.0.0)} date Thu Dec  7 17:51:29 2023
; FORMAT={-:-/ absolute / inch / decimal}
; #@! TF.CreationDate,2023-12-07T17:51:29+01:00
; #@! TF.GenerationSoftware,Kicad,Pcbnew,(7.0.0)
; #@! TF.FileFunction,NonPlated,1,2,NPTH
FMAT,2
INCH
; #@! TA.AperFunction,NonPlated,NPTH,ComponentDrill
T1C0.0256
; #@! TA.AperFunction,NonPlated,NPTH,ComponentDrill
T2C0.0689
; #@! TA.AperFunction,NonPlated,NPTH,ComponentDrill
T3C0.1570
%
G90
G05
T1
X3.4602Y-3.4421
X3.6878Y-3.4421
T2
X1.8938Y-5.125
X2.0812Y-4.375
X2.2687Y-3.625
X2.2937Y-5.125
X2.4812Y-4.375
X2.6437Y-5.125
X2.6687Y-3.625
X2.8312Y-4.375
X2.925Y-5.875
X3.0187Y-3.625
X3.0437Y-5.125
X3.2312Y-4.375
X3.325Y-5.875
X3.3937Y-5.125
X3.4187Y-3.625
X3.5812Y-4.375
X3.7687Y-3.625
X3.7687Y-5.875
X3.7937Y-5.125
X3.9812Y-4.375
X4.1437Y-5.125
X4.1688Y-3.625
X4.1688Y-5.875
X4.3312Y-4.375
X4.5187Y-3.625
X4.5187Y-5.875
X4.5438Y-5.125
X4.7313Y-4.375
X4.8937Y-5.125
X4.8937Y-5.875
X4.9188Y-3.625
X4.9188Y-5.875
X5.0812Y-4.375
X5.2687Y-3.625
X5.2938Y-5.125
X5.2938Y-5.875
X5.4813Y-4.375
X5.6688Y-3.625
X6.0187Y-3.625
X6.0187Y-6.0625
X6.4188Y-3.625
X6.4188Y-6.0625
X6.7687Y-3.625
X6.9562Y-4.375
X7.1437Y-5.125
X7.1437Y-5.875
X7.1688Y-3.625
X7.3563Y-4.375
X7.5187Y-3.625
X7.5187Y-5.875
X7.5438Y-5.125
X7.5438Y-5.875
X7.7062Y-4.375
X7.8937Y-5.125
X7.9188Y-3.625
X7.9188Y-5.875
X8.1062Y-4.375
X8.2687Y-3.625
X8.2687Y-5.875
X8.2937Y-5.125
X8.4562Y-4.375
X8.6437Y-5.125
X8.6687Y-3.625
X8.6687Y-5.875
X8.8562Y-4.375
X9.0187Y-3.625
X9.0437Y-5.125
X9.1125Y-5.875
X9.2062Y-4.375
X9.3937Y-5.125
X9.4187Y-3.625
X9.5125Y-5.875
X9.6062Y-4.375
X9.7687Y-3.625
X9.7937Y-5.125
X9.9562Y-4.375
X10.1437Y-5.125
X10.1687Y-3.625
X10.3562Y-4.375
X10.5437Y-5.125
T3
X2.0938Y-5.125
X2.2812Y-4.375
X2.4688Y-3.625
X2.8438Y-5.125
X3.0312Y-4.375
X3.125Y-5.875
X3.2188Y-3.625
X3.5938Y-5.125
X3.7812Y-4.375
X3.9688Y-3.625
X3.9688Y-5.55
X3.9688Y-5.875
X4.3438Y-5.125
X4.5312Y-4.375
X4.7188Y-3.625
X4.7188Y-5.875
X5.0938Y-5.125
X5.0938Y-5.875
X5.2812Y-4.375
X5.4688Y-3.625
X5.4688Y-5.55
X6.2188Y-3.625
X6.2188Y-6.0625
X6.9688Y-3.625
X6.9688Y-5.55
X7.1562Y-4.375
X7.3438Y-5.125
X7.3438Y-5.875
X7.7188Y-3.625
X7.7188Y-5.875
X7.9062Y-4.375
X8.0938Y-5.125
X8.4688Y-3.625
X8.4688Y-5.55
X8.4688Y-5.875
X8.6562Y-4.375
X8.8438Y-5.125
X9.2188Y-3.625
X9.3125Y-5.875
X9.4062Y-4.375
X9.5938Y-5.125
X9.9688Y-3.625
X10.1562Y-4.375
X10.3438Y-5.125
T0
M30
