%TF.GenerationSoftware,KiCad,Pcbnew,(7.0.0)*%
%TF.CreationDate,2023-12-26T14:00:35+01:00*%
%TF.ProjectId,Infernum HS,496e6665-726e-4756-9d20-48532e6b6963,rev?*%
%TF.SameCoordinates,Original*%
%TF.FileFunction,Legend,Bot*%
%TF.FilePolarity,Positive*%
%FSLAX46Y46*%
G04 Gerber Fmt 4.6, Leading zero omitted, Abs format (unit mm)*
G04 Created by KiCad (PCBNEW (7.0.0)) date 2023-12-26 14:00:35*
%MOMM*%
%LPD*%
G01*
G04 APERTURE LIST*
%ADD10C,0.100000*%
%ADD11C,0.150000*%
%ADD12C,0.120000*%
G04 APERTURE END LIST*
D10*
X236308928Y-152839654D02*
X236766071Y-152839654D01*
X236537499Y-152839654D02*
X236537499Y-152039654D01*
X236537499Y-152039654D02*
X236613690Y-152153940D01*
X236613690Y-152153940D02*
X236689880Y-152230130D01*
X236689880Y-152230130D02*
X236766071Y-152268226D01*
X236766071Y-153411845D02*
X236727975Y-153373750D01*
X236727975Y-153373750D02*
X236651785Y-153335654D01*
X236651785Y-153335654D02*
X236461309Y-153335654D01*
X236461309Y-153335654D02*
X236385118Y-153373750D01*
X236385118Y-153373750D02*
X236347023Y-153411845D01*
X236347023Y-153411845D02*
X236308928Y-153488035D01*
X236308928Y-153488035D02*
X236308928Y-153564226D01*
X236308928Y-153564226D02*
X236347023Y-153678511D01*
X236347023Y-153678511D02*
X236804166Y-154135654D01*
X236804166Y-154135654D02*
X236308928Y-154135654D01*
X119627678Y-152820904D02*
X120084821Y-152820904D01*
X119856249Y-152820904D02*
X119856249Y-152020904D01*
X119856249Y-152020904D02*
X119932440Y-152135190D01*
X119932440Y-152135190D02*
X120008630Y-152211380D01*
X120008630Y-152211380D02*
X120084821Y-152249476D01*
X195827678Y-152693904D02*
X196284821Y-152693904D01*
X196056249Y-152693904D02*
X196056249Y-151893904D01*
X196056249Y-151893904D02*
X196132440Y-152008190D01*
X196132440Y-152008190D02*
X196208630Y-152084380D01*
X196208630Y-152084380D02*
X196284821Y-152122476D01*
X100577678Y-138406404D02*
X101034821Y-138406404D01*
X100806249Y-138406404D02*
X100806249Y-137606404D01*
X100806249Y-137606404D02*
X100882440Y-137720690D01*
X100882440Y-137720690D02*
X100958630Y-137796880D01*
X100958630Y-137796880D02*
X101034821Y-137834976D01*
X79146428Y-152839654D02*
X79603571Y-152839654D01*
X79374999Y-152839654D02*
X79374999Y-152039654D01*
X79374999Y-152039654D02*
X79451190Y-152153940D01*
X79451190Y-152153940D02*
X79527380Y-152230130D01*
X79527380Y-152230130D02*
X79603571Y-152268226D01*
X79603571Y-153411845D02*
X79565475Y-153373750D01*
X79565475Y-153373750D02*
X79489285Y-153335654D01*
X79489285Y-153335654D02*
X79298809Y-153335654D01*
X79298809Y-153335654D02*
X79222618Y-153373750D01*
X79222618Y-153373750D02*
X79184523Y-153411845D01*
X79184523Y-153411845D02*
X79146428Y-153488035D01*
X79146428Y-153488035D02*
X79146428Y-153564226D01*
X79146428Y-153564226D02*
X79184523Y-153678511D01*
X79184523Y-153678511D02*
X79641666Y-154135654D01*
X79641666Y-154135654D02*
X79146428Y-154135654D01*
X137883928Y-138406404D02*
X138341071Y-138406404D01*
X138112499Y-138406404D02*
X138112499Y-137606404D01*
X138112499Y-137606404D02*
X138188690Y-137720690D01*
X138188690Y-137720690D02*
X138264880Y-137796880D01*
X138264880Y-137796880D02*
X138341071Y-137834976D01*
X195827678Y-152693904D02*
X196284821Y-152693904D01*
X196056249Y-152693904D02*
X196056249Y-151893904D01*
X196056249Y-151893904D02*
X196132440Y-152008190D01*
X196132440Y-152008190D02*
X196208630Y-152084380D01*
X196208630Y-152084380D02*
X196284821Y-152122476D01*
D11*
X52144681Y-116731921D02*
X51858967Y-116731921D01*
X52201824Y-116903349D02*
X52001824Y-116303349D01*
X52001824Y-116303349D02*
X51801824Y-116903349D01*
X51658966Y-116303349D02*
X51258966Y-116303349D01*
X51258966Y-116303349D02*
X51516109Y-116903349D01*
D10*
X215334821Y-151970095D02*
X215296725Y-151932000D01*
X215296725Y-151932000D02*
X215220535Y-151893904D01*
X215220535Y-151893904D02*
X215030059Y-151893904D01*
X215030059Y-151893904D02*
X214953868Y-151932000D01*
X214953868Y-151932000D02*
X214915773Y-151970095D01*
X214915773Y-151970095D02*
X214877678Y-152046285D01*
X214877678Y-152046285D02*
X214877678Y-152122476D01*
X214877678Y-152122476D02*
X214915773Y-152236761D01*
X214915773Y-152236761D02*
X215372916Y-152693904D01*
X215372916Y-152693904D02*
X214877678Y-152693904D01*
X186759821Y-145620095D02*
X186721725Y-145582000D01*
X186721725Y-145582000D02*
X186645535Y-145543904D01*
X186645535Y-145543904D02*
X186455059Y-145543904D01*
X186455059Y-145543904D02*
X186378868Y-145582000D01*
X186378868Y-145582000D02*
X186340773Y-145620095D01*
X186340773Y-145620095D02*
X186302678Y-145696285D01*
X186302678Y-145696285D02*
X186302678Y-145772476D01*
X186302678Y-145772476D02*
X186340773Y-145886761D01*
X186340773Y-145886761D02*
X186797916Y-146343904D01*
X186797916Y-146343904D02*
X186302678Y-146343904D01*
X214877678Y-138406404D02*
X215334821Y-138406404D01*
X215106249Y-138406404D02*
X215106249Y-137606404D01*
X215106249Y-137606404D02*
X215182440Y-137720690D01*
X215182440Y-137720690D02*
X215258630Y-137796880D01*
X215258630Y-137796880D02*
X215334821Y-137834976D01*
X101283475Y-152097095D02*
X101245379Y-152059000D01*
X101245379Y-152059000D02*
X101169189Y-152020904D01*
X101169189Y-152020904D02*
X100978713Y-152020904D01*
X100978713Y-152020904D02*
X100902522Y-152059000D01*
X100902522Y-152059000D02*
X100864427Y-152097095D01*
X100864427Y-152097095D02*
X100826332Y-152173285D01*
X100826332Y-152173285D02*
X100826332Y-152249476D01*
X100826332Y-152249476D02*
X100864427Y-152363761D01*
X100864427Y-152363761D02*
X101321570Y-152820904D01*
X101321570Y-152820904D02*
X100826332Y-152820904D01*
D11*
X62520060Y-133645667D02*
X62377203Y-133693286D01*
X62377203Y-133693286D02*
X62329584Y-133740905D01*
X62329584Y-133740905D02*
X62281965Y-133836143D01*
X62281965Y-133836143D02*
X62281965Y-133979000D01*
X62281965Y-133979000D02*
X62329584Y-134074238D01*
X62329584Y-134074238D02*
X62377203Y-134121857D01*
X62377203Y-134121857D02*
X62472441Y-134169476D01*
X62472441Y-134169476D02*
X62853393Y-134169476D01*
X62853393Y-134169476D02*
X62853393Y-133169476D01*
X62853393Y-133169476D02*
X62520060Y-133169476D01*
X62520060Y-133169476D02*
X62424822Y-133217096D01*
X62424822Y-133217096D02*
X62377203Y-133264715D01*
X62377203Y-133264715D02*
X62329584Y-133359953D01*
X62329584Y-133359953D02*
X62329584Y-133455191D01*
X62329584Y-133455191D02*
X62377203Y-133550429D01*
X62377203Y-133550429D02*
X62424822Y-133598048D01*
X62424822Y-133598048D02*
X62520060Y-133645667D01*
X62520060Y-133645667D02*
X62853393Y-133645667D01*
X61662917Y-133169476D02*
X61472441Y-133169476D01*
X61472441Y-133169476D02*
X61377203Y-133217096D01*
X61377203Y-133217096D02*
X61281965Y-133312334D01*
X61281965Y-133312334D02*
X61234346Y-133502810D01*
X61234346Y-133502810D02*
X61234346Y-133836143D01*
X61234346Y-133836143D02*
X61281965Y-134026619D01*
X61281965Y-134026619D02*
X61377203Y-134121857D01*
X61377203Y-134121857D02*
X61472441Y-134169476D01*
X61472441Y-134169476D02*
X61662917Y-134169476D01*
X61662917Y-134169476D02*
X61758155Y-134121857D01*
X61758155Y-134121857D02*
X61853393Y-134026619D01*
X61853393Y-134026619D02*
X61901012Y-133836143D01*
X61901012Y-133836143D02*
X61901012Y-133502810D01*
X61901012Y-133502810D02*
X61853393Y-133312334D01*
X61853393Y-133312334D02*
X61758155Y-133217096D01*
X61758155Y-133217096D02*
X61662917Y-133169476D01*
X60615298Y-133169476D02*
X60424822Y-133169476D01*
X60424822Y-133169476D02*
X60329584Y-133217096D01*
X60329584Y-133217096D02*
X60234346Y-133312334D01*
X60234346Y-133312334D02*
X60186727Y-133502810D01*
X60186727Y-133502810D02*
X60186727Y-133836143D01*
X60186727Y-133836143D02*
X60234346Y-134026619D01*
X60234346Y-134026619D02*
X60329584Y-134121857D01*
X60329584Y-134121857D02*
X60424822Y-134169476D01*
X60424822Y-134169476D02*
X60615298Y-134169476D01*
X60615298Y-134169476D02*
X60710536Y-134121857D01*
X60710536Y-134121857D02*
X60805774Y-134026619D01*
X60805774Y-134026619D02*
X60853393Y-133836143D01*
X60853393Y-133836143D02*
X60853393Y-133502810D01*
X60853393Y-133502810D02*
X60805774Y-133312334D01*
X60805774Y-133312334D02*
X60710536Y-133217096D01*
X60710536Y-133217096D02*
X60615298Y-133169476D01*
X59901012Y-133169476D02*
X59329584Y-133169476D01*
X59615298Y-134169476D02*
X59615298Y-133169476D01*
D10*
X236308928Y-152839654D02*
X236766071Y-152839654D01*
X236537499Y-152839654D02*
X236537499Y-152039654D01*
X236537499Y-152039654D02*
X236613690Y-152153940D01*
X236613690Y-152153940D02*
X236689880Y-152230130D01*
X236689880Y-152230130D02*
X236766071Y-152268226D01*
X236766071Y-153411845D02*
X236727975Y-153373750D01*
X236727975Y-153373750D02*
X236651785Y-153335654D01*
X236651785Y-153335654D02*
X236461309Y-153335654D01*
X236461309Y-153335654D02*
X236385118Y-153373750D01*
X236385118Y-153373750D02*
X236347023Y-153411845D01*
X236347023Y-153411845D02*
X236308928Y-153488035D01*
X236308928Y-153488035D02*
X236308928Y-153564226D01*
X236308928Y-153564226D02*
X236347023Y-153678511D01*
X236347023Y-153678511D02*
X236804166Y-154135654D01*
X236804166Y-154135654D02*
X236308928Y-154135654D01*
X177571428Y-138406404D02*
X178028571Y-138406404D01*
X177799999Y-138406404D02*
X177799999Y-137606404D01*
X177799999Y-137606404D02*
X177876190Y-137720690D01*
X177876190Y-137720690D02*
X177952380Y-137796880D01*
X177952380Y-137796880D02*
X178028571Y-137834976D01*
X214877678Y-138406404D02*
X215334821Y-138406404D01*
X215106249Y-138406404D02*
X215106249Y-137606404D01*
X215106249Y-137606404D02*
X215182440Y-137720690D01*
X215182440Y-137720690D02*
X215258630Y-137796880D01*
X215258630Y-137796880D02*
X215334821Y-137834976D01*
X129609821Y-145620095D02*
X129571725Y-145582000D01*
X129571725Y-145582000D02*
X129495535Y-145543904D01*
X129495535Y-145543904D02*
X129305059Y-145543904D01*
X129305059Y-145543904D02*
X129228868Y-145582000D01*
X129228868Y-145582000D02*
X129190773Y-145620095D01*
X129190773Y-145620095D02*
X129152678Y-145696285D01*
X129152678Y-145696285D02*
X129152678Y-145772476D01*
X129152678Y-145772476D02*
X129190773Y-145886761D01*
X129190773Y-145886761D02*
X129647916Y-146343904D01*
X129647916Y-146343904D02*
X129152678Y-146343904D01*
D11*
X52544681Y-112569394D02*
X52458967Y-112597966D01*
X52458967Y-112597966D02*
X52430396Y-112626537D01*
X52430396Y-112626537D02*
X52401824Y-112683680D01*
X52401824Y-112683680D02*
X52401824Y-112769394D01*
X52401824Y-112769394D02*
X52430396Y-112826537D01*
X52430396Y-112826537D02*
X52458967Y-112855109D01*
X52458967Y-112855109D02*
X52516110Y-112883680D01*
X52516110Y-112883680D02*
X52744681Y-112883680D01*
X52744681Y-112883680D02*
X52744681Y-112283680D01*
X52744681Y-112283680D02*
X52544681Y-112283680D01*
X52544681Y-112283680D02*
X52487539Y-112312252D01*
X52487539Y-112312252D02*
X52458967Y-112340823D01*
X52458967Y-112340823D02*
X52430396Y-112397966D01*
X52430396Y-112397966D02*
X52430396Y-112455109D01*
X52430396Y-112455109D02*
X52458967Y-112512252D01*
X52458967Y-112512252D02*
X52487539Y-112540823D01*
X52487539Y-112540823D02*
X52544681Y-112569394D01*
X52544681Y-112569394D02*
X52744681Y-112569394D01*
X51830396Y-112883680D02*
X52173253Y-112883680D01*
X52001824Y-112883680D02*
X52001824Y-112283680D01*
X52001824Y-112283680D02*
X52058967Y-112369394D01*
X52058967Y-112369394D02*
X52116110Y-112426537D01*
X52116110Y-112426537D02*
X52173253Y-112455109D01*
X51316110Y-112483680D02*
X51316110Y-112883680D01*
X51458967Y-112255109D02*
X51601824Y-112683680D01*
X51601824Y-112683680D02*
X51230395Y-112683680D01*
D10*
X186759821Y-145620095D02*
X186721725Y-145582000D01*
X186721725Y-145582000D02*
X186645535Y-145543904D01*
X186645535Y-145543904D02*
X186455059Y-145543904D01*
X186455059Y-145543904D02*
X186378868Y-145582000D01*
X186378868Y-145582000D02*
X186340773Y-145620095D01*
X186340773Y-145620095D02*
X186302678Y-145696285D01*
X186302678Y-145696285D02*
X186302678Y-145772476D01*
X186302678Y-145772476D02*
X186340773Y-145886761D01*
X186340773Y-145886761D02*
X186797916Y-146343904D01*
X186797916Y-146343904D02*
X186302678Y-146343904D01*
X177571428Y-138406404D02*
X178028571Y-138406404D01*
X177799999Y-138406404D02*
X177799999Y-137606404D01*
X177799999Y-137606404D02*
X177876190Y-137720690D01*
X177876190Y-137720690D02*
X177952380Y-137796880D01*
X177952380Y-137796880D02*
X178028571Y-137834976D01*
X215334821Y-151970095D02*
X215296725Y-151932000D01*
X215296725Y-151932000D02*
X215220535Y-151893904D01*
X215220535Y-151893904D02*
X215030059Y-151893904D01*
X215030059Y-151893904D02*
X214953868Y-151932000D01*
X214953868Y-151932000D02*
X214915773Y-151970095D01*
X214915773Y-151970095D02*
X214877678Y-152046285D01*
X214877678Y-152046285D02*
X214877678Y-152122476D01*
X214877678Y-152122476D02*
X214915773Y-152236761D01*
X214915773Y-152236761D02*
X215372916Y-152693904D01*
X215372916Y-152693904D02*
X214877678Y-152693904D01*
D11*
X52144681Y-120732894D02*
X51858967Y-120732894D01*
X52201824Y-120904322D02*
X52001824Y-120304322D01*
X52001824Y-120304322D02*
X51801824Y-120904322D01*
X51316109Y-120304322D02*
X51601823Y-120304322D01*
X51601823Y-120304322D02*
X51630395Y-120590036D01*
X51630395Y-120590036D02*
X51601823Y-120561465D01*
X51601823Y-120561465D02*
X51544681Y-120532894D01*
X51544681Y-120532894D02*
X51401823Y-120532894D01*
X51401823Y-120532894D02*
X51344681Y-120561465D01*
X51344681Y-120561465D02*
X51316109Y-120590036D01*
X51316109Y-120590036D02*
X51287538Y-120647179D01*
X51287538Y-120647179D02*
X51287538Y-120790036D01*
X51287538Y-120790036D02*
X51316109Y-120847179D01*
X51316109Y-120847179D02*
X51344681Y-120875751D01*
X51344681Y-120875751D02*
X51401823Y-120904322D01*
X51401823Y-120904322D02*
X51544681Y-120904322D01*
X51544681Y-120904322D02*
X51601823Y-120875751D01*
X51601823Y-120875751D02*
X51630395Y-120847179D01*
X52144681Y-122760135D02*
X51858967Y-122760135D01*
X52201824Y-122931563D02*
X52001824Y-122331563D01*
X52001824Y-122331563D02*
X51801824Y-122931563D01*
X51344681Y-122531563D02*
X51344681Y-122931563D01*
X51487538Y-122302992D02*
X51630395Y-122731563D01*
X51630395Y-122731563D02*
X51258966Y-122731563D01*
X52544681Y-114588577D02*
X52458967Y-114617149D01*
X52458967Y-114617149D02*
X52430396Y-114645720D01*
X52430396Y-114645720D02*
X52401824Y-114702863D01*
X52401824Y-114702863D02*
X52401824Y-114788577D01*
X52401824Y-114788577D02*
X52430396Y-114845720D01*
X52430396Y-114845720D02*
X52458967Y-114874292D01*
X52458967Y-114874292D02*
X52516110Y-114902863D01*
X52516110Y-114902863D02*
X52744681Y-114902863D01*
X52744681Y-114902863D02*
X52744681Y-114302863D01*
X52744681Y-114302863D02*
X52544681Y-114302863D01*
X52544681Y-114302863D02*
X52487539Y-114331435D01*
X52487539Y-114331435D02*
X52458967Y-114360006D01*
X52458967Y-114360006D02*
X52430396Y-114417149D01*
X52430396Y-114417149D02*
X52430396Y-114474292D01*
X52430396Y-114474292D02*
X52458967Y-114531435D01*
X52458967Y-114531435D02*
X52487539Y-114560006D01*
X52487539Y-114560006D02*
X52544681Y-114588577D01*
X52544681Y-114588577D02*
X52744681Y-114588577D01*
X51830396Y-114902863D02*
X52173253Y-114902863D01*
X52001824Y-114902863D02*
X52001824Y-114302863D01*
X52001824Y-114302863D02*
X52058967Y-114388577D01*
X52058967Y-114388577D02*
X52116110Y-114445720D01*
X52116110Y-114445720D02*
X52173253Y-114474292D01*
X51630395Y-114302863D02*
X51258967Y-114302863D01*
X51258967Y-114302863D02*
X51458967Y-114531435D01*
X51458967Y-114531435D02*
X51373252Y-114531435D01*
X51373252Y-114531435D02*
X51316110Y-114560006D01*
X51316110Y-114560006D02*
X51287538Y-114588577D01*
X51287538Y-114588577D02*
X51258967Y-114645720D01*
X51258967Y-114645720D02*
X51258967Y-114788577D01*
X51258967Y-114788577D02*
X51287538Y-114845720D01*
X51287538Y-114845720D02*
X51316110Y-114874292D01*
X51316110Y-114874292D02*
X51373252Y-114902863D01*
X51373252Y-114902863D02*
X51544681Y-114902863D01*
X51544681Y-114902863D02*
X51601824Y-114874292D01*
X51601824Y-114874292D02*
X51630395Y-114845720D01*
X52144681Y-118732408D02*
X51858967Y-118732408D01*
X52201824Y-118903836D02*
X52001824Y-118303836D01*
X52001824Y-118303836D02*
X51801824Y-118903836D01*
X51344681Y-118303836D02*
X51458966Y-118303836D01*
X51458966Y-118303836D02*
X51516109Y-118332408D01*
X51516109Y-118332408D02*
X51544681Y-118360979D01*
X51544681Y-118360979D02*
X51601823Y-118446693D01*
X51601823Y-118446693D02*
X51630395Y-118560979D01*
X51630395Y-118560979D02*
X51630395Y-118789550D01*
X51630395Y-118789550D02*
X51601823Y-118846693D01*
X51601823Y-118846693D02*
X51573252Y-118875265D01*
X51573252Y-118875265D02*
X51516109Y-118903836D01*
X51516109Y-118903836D02*
X51401823Y-118903836D01*
X51401823Y-118903836D02*
X51344681Y-118875265D01*
X51344681Y-118875265D02*
X51316109Y-118846693D01*
X51316109Y-118846693D02*
X51287538Y-118789550D01*
X51287538Y-118789550D02*
X51287538Y-118646693D01*
X51287538Y-118646693D02*
X51316109Y-118589550D01*
X51316109Y-118589550D02*
X51344681Y-118560979D01*
X51344681Y-118560979D02*
X51401823Y-118532408D01*
X51401823Y-118532408D02*
X51516109Y-118532408D01*
X51516109Y-118532408D02*
X51573252Y-118560979D01*
X51573252Y-118560979D02*
X51601823Y-118589550D01*
X51601823Y-118589550D02*
X51630395Y-118646693D01*
D12*
%TO.C,J1*%
X51066250Y-122741250D02*
X51066250Y-110621250D01*
X48946250Y-122741250D02*
X51066250Y-122741250D01*
X48946250Y-122741250D02*
X48946250Y-110621250D01*
X48946250Y-110621250D02*
X51066250Y-110621250D01*
D11*
%TO.C,MX31*%
X267596074Y-126504780D02*
X267596074Y-126974780D01*
X267596074Y-123424780D02*
X267596074Y-123654780D01*
X267096074Y-127474780D02*
X262531250Y-127474780D01*
X266046074Y-123424780D02*
X267596074Y-123424780D01*
X258646074Y-123424780D02*
X264546074Y-123424780D01*
X256646074Y-129074780D02*
X256646074Y-129314780D01*
X256646074Y-126224780D02*
X256646074Y-125424780D01*
X267096074Y-127474780D02*
G75*
G03*
X267596074Y-126974780I-1J500001D01*
G01*
X262531250Y-127474781D02*
G75*
G03*
X260236929Y-129314780I-866J-2349331D01*
G01*
X258646074Y-123424780D02*
G75*
G03*
X256646074Y-125424780I5J-2000005D01*
G01*
%TO.C,MX7*%
X181871074Y-88404780D02*
X181871074Y-88874780D01*
X181871074Y-85324780D02*
X181871074Y-85554780D01*
X181371074Y-89374780D02*
X176806250Y-89374780D01*
X180321074Y-85324780D02*
X181871074Y-85324780D01*
X172921074Y-85324780D02*
X178821074Y-85324780D01*
X170921074Y-90974780D02*
X170921074Y-91214780D01*
X170921074Y-88124780D02*
X170921074Y-87324780D01*
X181371074Y-89374780D02*
G75*
G03*
X181871074Y-88874780I-1J500001D01*
G01*
X176806250Y-89374781D02*
G75*
G03*
X174511929Y-91214780I-866J-2349331D01*
G01*
X172921074Y-85324780D02*
G75*
G03*
X170921074Y-87324780I5J-2000005D01*
G01*
D12*
%TO.C,C20*%
X72420213Y-118525145D02*
X72635885Y-118525145D01*
X72420213Y-119245145D02*
X72635885Y-119245145D01*
%TO.C,D30*%
X245856250Y-133218750D02*
X245856250Y-129318750D01*
X247856250Y-133218750D02*
X245856250Y-133218750D01*
X247856250Y-133218750D02*
X247856250Y-129318750D01*
D11*
%TO.C,MX61*%
X181666426Y-152895220D02*
X181666426Y-152425220D01*
X181666426Y-155975220D02*
X181666426Y-155745220D01*
X182166426Y-151925220D02*
X186731250Y-151925220D01*
X183216426Y-155975220D02*
X181666426Y-155975220D01*
X190616426Y-155975220D02*
X184716426Y-155975220D01*
X192616426Y-150325220D02*
X192616426Y-150085220D01*
X192616426Y-153175220D02*
X192616426Y-153975220D01*
X182166426Y-151925220D02*
G75*
G03*
X181666426Y-152425220I1J-500001D01*
G01*
X186731250Y-151925219D02*
G75*
G03*
X189025571Y-150085220I866J2349331D01*
G01*
X190616426Y-155975220D02*
G75*
G03*
X192616426Y-153975220I-5J2000005D01*
G01*
D12*
%TO.C,D51*%
X58650000Y-100156250D02*
X58650000Y-99656250D01*
X58650000Y-99656250D02*
X58150000Y-99656250D01*
X57550000Y-99806250D02*
X56750000Y-99806250D01*
%TO.C,D53*%
X87400000Y-136794000D02*
X87400000Y-137294000D01*
X87400000Y-137294000D02*
X87900000Y-137294000D01*
X88500000Y-137144000D02*
X89300000Y-137144000D01*
%TO.C,D58*%
X106450000Y-136794000D02*
X106450000Y-137294000D01*
X106450000Y-137294000D02*
X106950000Y-137294000D01*
X107550000Y-137144000D02*
X108350000Y-137144000D01*
%TO.C,J2*%
X64215000Y-96902500D02*
X61715000Y-96902500D01*
X61715000Y-96902500D02*
X61715000Y-97952500D01*
X61715000Y-97952500D02*
X60725000Y-97952500D01*
X66185000Y-98072500D02*
X66185000Y-101952500D01*
X64215000Y-103122500D02*
X61715000Y-103122500D01*
X61715000Y-103122500D02*
X61715000Y-102072500D01*
%TO.C,D59*%
X206526000Y-136794000D02*
X206526000Y-137294000D01*
X206526000Y-137294000D02*
X207026000Y-137294000D01*
X207626000Y-137144000D02*
X208426000Y-137144000D01*
D11*
%TO.C,MX22*%
X58046074Y-126504780D02*
X58046074Y-126974780D01*
X58046074Y-123424780D02*
X58046074Y-123654780D01*
X57546074Y-127474780D02*
X52981250Y-127474780D01*
X56496074Y-123424780D02*
X58046074Y-123424780D01*
X49096074Y-123424780D02*
X54996074Y-123424780D01*
X47096074Y-129074780D02*
X47096074Y-129314780D01*
X47096074Y-126224780D02*
X47096074Y-125424780D01*
X57546074Y-127474780D02*
G75*
G03*
X58046074Y-126974780I-1J500001D01*
G01*
X52981250Y-127474781D02*
G75*
G03*
X50686929Y-129314780I-866J-2349331D01*
G01*
X49096074Y-123424780D02*
G75*
G03*
X47096074Y-125424780I5J-2000005D01*
G01*
D12*
%TO.C,D9*%
X217281250Y-95118750D02*
X217281250Y-91218750D01*
X219281250Y-95118750D02*
X217281250Y-95118750D01*
X219281250Y-95118750D02*
X219281250Y-91218750D01*
D11*
%TO.C,MX11*%
X258071074Y-88404780D02*
X258071074Y-88874780D01*
X258071074Y-85324780D02*
X258071074Y-85554780D01*
X257571074Y-89374780D02*
X253006250Y-89374780D01*
X256521074Y-85324780D02*
X258071074Y-85324780D01*
X249121074Y-85324780D02*
X255021074Y-85324780D01*
X247121074Y-90974780D02*
X247121074Y-91214780D01*
X247121074Y-88124780D02*
X247121074Y-87324780D01*
X257571074Y-89374780D02*
G75*
G03*
X258071074Y-88874780I-1J500001D01*
G01*
X253006250Y-89374781D02*
G75*
G03*
X250711929Y-91214780I-866J-2349331D01*
G01*
X249121074Y-85324780D02*
G75*
G03*
X247121074Y-87324780I5J-2000005D01*
G01*
D12*
%TO.C,R_Shield1*%
X98525600Y-84072759D02*
X98525600Y-84380041D01*
X97765600Y-84072759D02*
X97765600Y-84380041D01*
%TO.C,R_USB2*%
X96400109Y-85345000D02*
X96707391Y-85345000D01*
X96400109Y-86105000D02*
X96707391Y-86105000D01*
D11*
%TO.C,MX3*%
X95941426Y-95745220D02*
X95941426Y-95275220D01*
X95941426Y-98825220D02*
X95941426Y-98595220D01*
X96441426Y-94775220D02*
X101006250Y-94775220D01*
X97491426Y-98825220D02*
X95941426Y-98825220D01*
X104891426Y-98825220D02*
X98991426Y-98825220D01*
X106891426Y-93175220D02*
X106891426Y-92935220D01*
X106891426Y-96025220D02*
X106891426Y-96825220D01*
X96441426Y-94775220D02*
G75*
G03*
X95941426Y-95275220I1J-500001D01*
G01*
X101006250Y-94775219D02*
G75*
G03*
X103300571Y-92935220I866J2349331D01*
G01*
X104891426Y-98825220D02*
G75*
G03*
X106891426Y-96825220I-5J2000005D01*
G01*
%TO.C,MX13*%
X81858574Y-107454780D02*
X81858574Y-107924780D01*
X81858574Y-104374780D02*
X81858574Y-104604780D01*
X81358574Y-108424780D02*
X76793750Y-108424780D01*
X80308574Y-104374780D02*
X81858574Y-104374780D01*
X72908574Y-104374780D02*
X78808574Y-104374780D01*
X70908574Y-110024780D02*
X70908574Y-110264780D01*
X70908574Y-107174780D02*
X70908574Y-106374780D01*
X81358574Y-108424780D02*
G75*
G03*
X81858574Y-107924780I-1J500001D01*
G01*
X76793750Y-108424781D02*
G75*
G03*
X74499429Y-110264780I-866J-2349331D01*
G01*
X72908574Y-104374780D02*
G75*
G03*
X70908574Y-106374780I5J-2000005D01*
G01*
D12*
%TO.C,D10*%
X236331250Y-95118750D02*
X236331250Y-91218750D01*
X238331250Y-95118750D02*
X236331250Y-95118750D01*
X238331250Y-95118750D02*
X238331250Y-91218750D01*
%TO.C,D24*%
X93456250Y-133218750D02*
X93456250Y-129318750D01*
X95456250Y-133218750D02*
X93456250Y-133218750D01*
X95456250Y-133218750D02*
X95456250Y-129318750D01*
D11*
%TO.C,MX23*%
X77096074Y-126504780D02*
X77096074Y-126974780D01*
X77096074Y-123424780D02*
X77096074Y-123654780D01*
X76596074Y-127474780D02*
X72031250Y-127474780D01*
X75546074Y-123424780D02*
X77096074Y-123424780D01*
X68146074Y-123424780D02*
X74046074Y-123424780D01*
X66146074Y-129074780D02*
X66146074Y-129314780D01*
X66146074Y-126224780D02*
X66146074Y-125424780D01*
X76596074Y-127474780D02*
G75*
G03*
X77096074Y-126974780I-1J500001D01*
G01*
X72031250Y-127474781D02*
G75*
G03*
X69736929Y-129314780I-866J-2349331D01*
G01*
X68146074Y-123424780D02*
G75*
G03*
X66146074Y-125424780I5J-2000005D01*
G01*
%TO.C,MX20*%
X243783574Y-107454780D02*
X243783574Y-107924780D01*
X243783574Y-104374780D02*
X243783574Y-104604780D01*
X243283574Y-108424780D02*
X238718750Y-108424780D01*
X242233574Y-104374780D02*
X243783574Y-104374780D01*
X234833574Y-104374780D02*
X240733574Y-104374780D01*
X232833574Y-110024780D02*
X232833574Y-110264780D01*
X232833574Y-107174780D02*
X232833574Y-106374780D01*
X243283574Y-108424780D02*
G75*
G03*
X243783574Y-107924780I-1J500001D01*
G01*
X238718750Y-108424781D02*
G75*
G03*
X236424429Y-110264780I-866J-2349331D01*
G01*
X234833574Y-104374780D02*
G75*
G03*
X232833574Y-106374780I5J-2000005D01*
G01*
D12*
%TO.C,D41*%
X184062500Y-100156250D02*
X184062500Y-99656250D01*
X184062500Y-99656250D02*
X183562500Y-99656250D01*
X182962500Y-99806250D02*
X182162500Y-99806250D01*
%TO.C,D56*%
X241276000Y-100188000D02*
X241276000Y-99688000D01*
X241276000Y-99688000D02*
X240776000Y-99688000D01*
X240176000Y-99838000D02*
X239376000Y-99838000D01*
%TO.C,D2*%
X79581250Y-89825000D02*
X79581250Y-93725000D01*
X77581250Y-89825000D02*
X79581250Y-89825000D01*
X77581250Y-89825000D02*
X77581250Y-93725000D01*
%TO.C,D22*%
X55356250Y-133218750D02*
X55356250Y-129318750D01*
X57356250Y-133218750D02*
X55356250Y-133218750D01*
X57356250Y-133218750D02*
X57356250Y-129318750D01*
D11*
%TO.C,MX12*%
X62808574Y-107454780D02*
X62808574Y-107924780D01*
X62808574Y-104374780D02*
X62808574Y-104604780D01*
X62308574Y-108424780D02*
X57743750Y-108424780D01*
X61258574Y-104374780D02*
X62808574Y-104374780D01*
X53858574Y-104374780D02*
X59758574Y-104374780D01*
X51858574Y-110024780D02*
X51858574Y-110264780D01*
X51858574Y-107174780D02*
X51858574Y-106374780D01*
X62308574Y-108424780D02*
G75*
G03*
X62808574Y-107924780I-1J500001D01*
G01*
X57743750Y-108424781D02*
G75*
G03*
X55449429Y-110264780I-866J-2349331D01*
G01*
X53858574Y-104374780D02*
G75*
G03*
X51858574Y-106374780I5J-2000005D01*
G01*
%TO.C,MX9*%
X219971074Y-88404780D02*
X219971074Y-88874780D01*
X219971074Y-85324780D02*
X219971074Y-85554780D01*
X219471074Y-89374780D02*
X214906250Y-89374780D01*
X218421074Y-85324780D02*
X219971074Y-85324780D01*
X211021074Y-85324780D02*
X216921074Y-85324780D01*
X209021074Y-90974780D02*
X209021074Y-91214780D01*
X209021074Y-88124780D02*
X209021074Y-87324780D01*
X219471074Y-89374780D02*
G75*
G03*
X219971074Y-88874780I-1J500001D01*
G01*
X214906250Y-89374781D02*
G75*
G03*
X212611929Y-91214780I-866J-2349331D01*
G01*
X211021074Y-85324780D02*
G75*
G03*
X209021074Y-87324780I5J-2000005D01*
G01*
D12*
%TO.C,D11*%
X255381250Y-95118750D02*
X255381250Y-91218750D01*
X257381250Y-95118750D02*
X255381250Y-95118750D01*
X257381250Y-95118750D02*
X257381250Y-91218750D01*
%TO.C,D39*%
X96750000Y-100188000D02*
X96750000Y-99688000D01*
X96750000Y-99688000D02*
X96250000Y-99688000D01*
X95650000Y-99838000D02*
X94850000Y-99838000D01*
D11*
%TO.C,MX2*%
X76891426Y-95745220D02*
X76891426Y-95275220D01*
X76891426Y-98825220D02*
X76891426Y-98595220D01*
X77391426Y-94775220D02*
X81956250Y-94775220D01*
X78441426Y-98825220D02*
X76891426Y-98825220D01*
X85841426Y-98825220D02*
X79941426Y-98825220D01*
X87841426Y-93175220D02*
X87841426Y-92935220D01*
X87841426Y-96025220D02*
X87841426Y-96825220D01*
X77391426Y-94775220D02*
G75*
G03*
X76891426Y-95275220I1J-500001D01*
G01*
X81956250Y-94775219D02*
G75*
G03*
X84250571Y-92935220I866J2349331D01*
G01*
X85841426Y-98825220D02*
G75*
G03*
X87841426Y-96825220I-5J2000005D01*
G01*
D12*
%TO.C,D52*%
X49300000Y-136794000D02*
X49300000Y-137294000D01*
X49300000Y-137294000D02*
X49800000Y-137294000D01*
X50400000Y-137144000D02*
X51200000Y-137144000D01*
%TO.C,R6*%
X63880000Y-130815109D02*
X63880000Y-131122391D01*
X63120000Y-130815109D02*
X63120000Y-131122391D01*
D11*
%TO.C,MX4*%
X124721074Y-88404780D02*
X124721074Y-88874780D01*
X124721074Y-85324780D02*
X124721074Y-85554780D01*
X124221074Y-89374780D02*
X119656250Y-89374780D01*
X123171074Y-85324780D02*
X124721074Y-85324780D01*
X115771074Y-85324780D02*
X121671074Y-85324780D01*
X113771074Y-90974780D02*
X113771074Y-91214780D01*
X113771074Y-88124780D02*
X113771074Y-87324780D01*
X124221074Y-89374780D02*
G75*
G03*
X124721074Y-88874780I-1J500001D01*
G01*
X119656250Y-89374781D02*
G75*
G03*
X117361929Y-91214780I-866J-2349331D01*
G01*
X115771074Y-85324780D02*
G75*
G03*
X113771074Y-87324780I5J-2000005D01*
G01*
D12*
%TO.C,D40*%
X134850000Y-100156250D02*
X134850000Y-99656250D01*
X134850000Y-99656250D02*
X134350000Y-99656250D01*
X133750000Y-99806250D02*
X132950000Y-99806250D01*
%TO.C,D35*%
X171318750Y-149431250D02*
X167418750Y-149431250D01*
X171318750Y-147431250D02*
X171318750Y-149431250D01*
X171318750Y-147431250D02*
X167418750Y-147431250D01*
D11*
%TO.C,MX29*%
X229496074Y-126504780D02*
X229496074Y-126974780D01*
X229496074Y-123424780D02*
X229496074Y-123654780D01*
X228996074Y-127474780D02*
X224431250Y-127474780D01*
X227946074Y-123424780D02*
X229496074Y-123424780D01*
X220546074Y-123424780D02*
X226446074Y-123424780D01*
X218546074Y-129074780D02*
X218546074Y-129314780D01*
X218546074Y-126224780D02*
X218546074Y-125424780D01*
X228996074Y-127474780D02*
G75*
G03*
X229496074Y-126974780I-1J500001D01*
G01*
X224431250Y-127474781D02*
G75*
G03*
X222136929Y-129314780I-866J-2349331D01*
G01*
X220546074Y-123424780D02*
G75*
G03*
X218546074Y-125424780I5J-2000005D01*
G01*
D12*
%TO.C,D3*%
X98631250Y-89825000D02*
X98631250Y-93725000D01*
X96631250Y-89825000D02*
X98631250Y-89825000D01*
X96631250Y-89825000D02*
X96631250Y-93725000D01*
%TO.C,D48*%
X187476000Y-136794000D02*
X187476000Y-137294000D01*
X187476000Y-137294000D02*
X187976000Y-137294000D01*
X188576000Y-137144000D02*
X189376000Y-137144000D01*
%TO.C,C19*%
X65152319Y-113121361D02*
X64936647Y-113121361D01*
X65152319Y-112401361D02*
X64936647Y-112401361D01*
D11*
%TO.C,MX8*%
X200921074Y-88404780D02*
X200921074Y-88874780D01*
X200921074Y-85324780D02*
X200921074Y-85554780D01*
X200421074Y-89374780D02*
X195856250Y-89374780D01*
X199371074Y-85324780D02*
X200921074Y-85324780D01*
X191971074Y-85324780D02*
X197871074Y-85324780D01*
X189971074Y-90974780D02*
X189971074Y-91214780D01*
X189971074Y-88124780D02*
X189971074Y-87324780D01*
X200421074Y-89374780D02*
G75*
G03*
X200921074Y-88874780I-1J500001D01*
G01*
X195856250Y-89374781D02*
G75*
G03*
X193561929Y-91214780I-866J-2349331D01*
G01*
X191971074Y-85324780D02*
G75*
G03*
X189971074Y-87324780I5J-2000005D01*
G01*
D12*
%TO.C,C22*%
X60069259Y-122966178D02*
X59853587Y-122966178D01*
X60069259Y-122246178D02*
X59853587Y-122246178D01*
D11*
%TO.C,MX59*%
X124516426Y-152895220D02*
X124516426Y-152425220D01*
X124516426Y-155975220D02*
X124516426Y-155745220D01*
X125016426Y-151925220D02*
X129581250Y-151925220D01*
X126066426Y-155975220D02*
X124516426Y-155975220D01*
X133466426Y-155975220D02*
X127566426Y-155975220D01*
X135466426Y-150325220D02*
X135466426Y-150085220D01*
X135466426Y-153175220D02*
X135466426Y-153975220D01*
X125016426Y-151925220D02*
G75*
G03*
X124516426Y-152425220I1J-500001D01*
G01*
X129581250Y-151925219D02*
G75*
G03*
X131875571Y-150085220I866J2349331D01*
G01*
X133466426Y-155975220D02*
G75*
G03*
X135466426Y-153975220I-5J2000005D01*
G01*
D12*
%TO.C,C_LDO1*%
X81648414Y-83777500D02*
X81864086Y-83777500D01*
X81648414Y-84497500D02*
X81864086Y-84497500D01*
D11*
%TO.C,MX57*%
X84239824Y-145554780D02*
X84239824Y-146024780D01*
X84239824Y-142474780D02*
X84239824Y-142704780D01*
X83739824Y-146524780D02*
X79175000Y-146524780D01*
X82689824Y-142474780D02*
X84239824Y-142474780D01*
X75289824Y-142474780D02*
X81189824Y-142474780D01*
X73289824Y-148124780D02*
X73289824Y-148364780D01*
X73289824Y-145274780D02*
X73289824Y-144474780D01*
X83739824Y-146524780D02*
G75*
G03*
X84239824Y-146024780I-1J500001D01*
G01*
X79175000Y-146524781D02*
G75*
G03*
X76880679Y-148364780I-866J-2349331D01*
G01*
X75289824Y-142474780D02*
G75*
G03*
X73289824Y-144474780I5J-2000005D01*
G01*
D12*
%TO.C,D5*%
X141081250Y-95118750D02*
X141081250Y-91218750D01*
X143081250Y-95118750D02*
X141081250Y-95118750D01*
X143081250Y-95118750D02*
X143081250Y-91218750D01*
D11*
%TO.C,MX24*%
X96146074Y-126504780D02*
X96146074Y-126974780D01*
X96146074Y-123424780D02*
X96146074Y-123654780D01*
X95646074Y-127474780D02*
X91081250Y-127474780D01*
X94596074Y-123424780D02*
X96146074Y-123424780D01*
X87196074Y-123424780D02*
X93096074Y-123424780D01*
X85196074Y-129074780D02*
X85196074Y-129314780D01*
X85196074Y-126224780D02*
X85196074Y-125424780D01*
X95646074Y-127474780D02*
G75*
G03*
X96146074Y-126974780I-1J500001D01*
G01*
X91081250Y-127474781D02*
G75*
G03*
X88786929Y-129314780I-866J-2349331D01*
G01*
X87196074Y-123424780D02*
G75*
G03*
X85196074Y-125424780I5J-2000005D01*
G01*
D12*
%TO.C,C17*%
X60085867Y-121921582D02*
X59870195Y-121921582D01*
X60085867Y-121201582D02*
X59870195Y-121201582D01*
%TO.C,C18*%
X62662550Y-125298716D02*
X62662550Y-125514388D01*
X61942550Y-125298716D02*
X61942550Y-125514388D01*
D11*
%TO.C,MX28*%
X210446074Y-126504780D02*
X210446074Y-126974780D01*
X210446074Y-123424780D02*
X210446074Y-123654780D01*
X209946074Y-127474780D02*
X205381250Y-127474780D01*
X208896074Y-123424780D02*
X210446074Y-123424780D01*
X201496074Y-123424780D02*
X207396074Y-123424780D01*
X199496074Y-129074780D02*
X199496074Y-129314780D01*
X199496074Y-126224780D02*
X199496074Y-125424780D01*
X209946074Y-127474780D02*
G75*
G03*
X210446074Y-126974780I-1J500001D01*
G01*
X205381250Y-127474781D02*
G75*
G03*
X203086929Y-129314780I-866J-2349331D01*
G01*
X201496074Y-123424780D02*
G75*
G03*
X199496074Y-125424780I5J-2000005D01*
G01*
%TO.C,MX5*%
X143771074Y-88404780D02*
X143771074Y-88874780D01*
X143771074Y-85324780D02*
X143771074Y-85554780D01*
X143271074Y-89374780D02*
X138706250Y-89374780D01*
X142221074Y-85324780D02*
X143771074Y-85324780D01*
X134821074Y-85324780D02*
X140721074Y-85324780D01*
X132821074Y-90974780D02*
X132821074Y-91214780D01*
X132821074Y-88124780D02*
X132821074Y-87324780D01*
X143271074Y-89374780D02*
G75*
G03*
X143771074Y-88874780I-1J500001D01*
G01*
X138706250Y-89374781D02*
G75*
G03*
X136411929Y-91214780I-866J-2349331D01*
G01*
X134821074Y-85324780D02*
G75*
G03*
X132821074Y-87324780I5J-2000005D01*
G01*
D12*
%TO.C,D47*%
X77700000Y-100188000D02*
X77700000Y-99688000D01*
X77700000Y-99688000D02*
X77200000Y-99688000D01*
X76600000Y-99838000D02*
X75800000Y-99838000D01*
%TO.C,D44*%
X263676000Y-136794000D02*
X263676000Y-137294000D01*
X263676000Y-137294000D02*
X264176000Y-137294000D01*
X264776000Y-137144000D02*
X265576000Y-137144000D01*
%TO.C,D42*%
X222162500Y-100156250D02*
X222162500Y-99656250D01*
X222162500Y-99656250D02*
X221662500Y-99656250D01*
X221062500Y-99806250D02*
X220262500Y-99806250D01*
%TO.C,D60*%
X244626000Y-136794000D02*
X244626000Y-137294000D01*
X244626000Y-137294000D02*
X245126000Y-137294000D01*
X245726000Y-137144000D02*
X246526000Y-137144000D01*
%TO.C,C_Shield1*%
X99106400Y-84334236D02*
X99106400Y-84118564D01*
X99826400Y-84334236D02*
X99826400Y-84118564D01*
%TO.C,D26*%
X131556250Y-133218750D02*
X131556250Y-129318750D01*
X133556250Y-133218750D02*
X131556250Y-133218750D01*
X133556250Y-133218750D02*
X133556250Y-129318750D01*
D11*
%TO.C,MX25*%
X115196074Y-126504780D02*
X115196074Y-126974780D01*
X115196074Y-123424780D02*
X115196074Y-123654780D01*
X114696074Y-127474780D02*
X110131250Y-127474780D01*
X113646074Y-123424780D02*
X115196074Y-123424780D01*
X106246074Y-123424780D02*
X112146074Y-123424780D01*
X104246074Y-129074780D02*
X104246074Y-129314780D01*
X104246074Y-126224780D02*
X104246074Y-125424780D01*
X114696074Y-127474780D02*
G75*
G03*
X115196074Y-126974780I-1J500001D01*
G01*
X110131250Y-127474781D02*
G75*
G03*
X107836929Y-129314780I-866J-2349331D01*
G01*
X106246074Y-123424780D02*
G75*
G03*
X104246074Y-125424780I5J-2000005D01*
G01*
%TO.C,MX21*%
X262833574Y-107454780D02*
X262833574Y-107924780D01*
X262833574Y-104374780D02*
X262833574Y-104604780D01*
X262333574Y-108424780D02*
X257768750Y-108424780D01*
X261283574Y-104374780D02*
X262833574Y-104374780D01*
X253883574Y-104374780D02*
X259783574Y-104374780D01*
X251883574Y-110024780D02*
X251883574Y-110264780D01*
X251883574Y-107174780D02*
X251883574Y-106374780D01*
X262333574Y-108424780D02*
G75*
G03*
X262833574Y-107924780I-1J500001D01*
G01*
X257768750Y-108424781D02*
G75*
G03*
X255474429Y-110264780I-866J-2349331D01*
G01*
X253883574Y-104374780D02*
G75*
G03*
X251883574Y-106374780I5J-2000005D01*
G01*
D12*
%TO.C,U1*%
X59982189Y-119062500D02*
X60318065Y-119398376D01*
X60318065Y-118726624D02*
X59982189Y-119062500D01*
X65423376Y-123831935D02*
X65087500Y-124167811D01*
X64751624Y-114293065D02*
X65087500Y-113957189D01*
X69856935Y-119398376D02*
X70192811Y-119062500D01*
X65087500Y-113957189D02*
X65423376Y-114293065D01*
X70192811Y-119062500D02*
X69856935Y-118726624D01*
D11*
%TO.C,MX19*%
X224733574Y-107454780D02*
X224733574Y-107924780D01*
X224733574Y-104374780D02*
X224733574Y-104604780D01*
X224233574Y-108424780D02*
X219668750Y-108424780D01*
X223183574Y-104374780D02*
X224733574Y-104374780D01*
X215783574Y-104374780D02*
X221683574Y-104374780D01*
X213783574Y-110024780D02*
X213783574Y-110264780D01*
X213783574Y-107174780D02*
X213783574Y-106374780D01*
X224233574Y-108424780D02*
G75*
G03*
X224733574Y-107924780I-1J500001D01*
G01*
X219668750Y-108424781D02*
G75*
G03*
X217374429Y-110264780I-866J-2349331D01*
G01*
X215783574Y-104374780D02*
G75*
G03*
X213783574Y-106374780I5J-2000005D01*
G01*
%TO.C,MX17*%
X186633574Y-107454780D02*
X186633574Y-107924780D01*
X186633574Y-104374780D02*
X186633574Y-104604780D01*
X186133574Y-108424780D02*
X181568750Y-108424780D01*
X185083574Y-104374780D02*
X186633574Y-104374780D01*
X177683574Y-104374780D02*
X183583574Y-104374780D01*
X175683574Y-110024780D02*
X175683574Y-110264780D01*
X175683574Y-107174780D02*
X175683574Y-106374780D01*
X186133574Y-108424780D02*
G75*
G03*
X186633574Y-107924780I-1J500001D01*
G01*
X181568750Y-108424781D02*
G75*
G03*
X179274429Y-110264780I-866J-2349331D01*
G01*
X177683574Y-104374780D02*
G75*
G03*
X175683574Y-106374780I5J-2000005D01*
G01*
D12*
%TO.C,D49*%
X127087500Y-118125000D02*
X127087500Y-118625000D01*
X127087500Y-118625000D02*
X127587500Y-118625000D01*
X128187500Y-118475000D02*
X128987500Y-118475000D01*
%TO.C,D27*%
X188706250Y-133218750D02*
X188706250Y-129318750D01*
X190706250Y-133218750D02*
X188706250Y-133218750D01*
X190706250Y-133218750D02*
X190706250Y-129318750D01*
D11*
%TO.C,MX15*%
X119958574Y-107454780D02*
X119958574Y-107924780D01*
X119958574Y-104374780D02*
X119958574Y-104604780D01*
X119458574Y-108424780D02*
X114893750Y-108424780D01*
X118408574Y-104374780D02*
X119958574Y-104374780D01*
X111008574Y-104374780D02*
X116908574Y-104374780D01*
X109008574Y-110024780D02*
X109008574Y-110264780D01*
X109008574Y-107174780D02*
X109008574Y-106374780D01*
X119458574Y-108424780D02*
G75*
G03*
X119958574Y-107924780I-1J500001D01*
G01*
X114893750Y-108424781D02*
G75*
G03*
X112599429Y-110264780I-866J-2349331D01*
G01*
X111008574Y-104374780D02*
G75*
G03*
X109008574Y-106374780I5J-2000005D01*
G01*
%TO.C,MX60*%
X124721074Y-145554780D02*
X124721074Y-146024780D01*
X124721074Y-142474780D02*
X124721074Y-142704780D01*
X124221074Y-146524780D02*
X119656250Y-146524780D01*
X123171074Y-142474780D02*
X124721074Y-142474780D01*
X115771074Y-142474780D02*
X121671074Y-142474780D01*
X113771074Y-148124780D02*
X113771074Y-148364780D01*
X113771074Y-145274780D02*
X113771074Y-144474780D01*
X124221074Y-146524780D02*
G75*
G03*
X124721074Y-146024780I-1J500001D01*
G01*
X119656250Y-146524781D02*
G75*
G03*
X117361929Y-148364780I-866J-2349331D01*
G01*
X115771074Y-142474780D02*
G75*
G03*
X113771074Y-144474780I5J-2000005D01*
G01*
D12*
%TO.C,D36*%
X198231250Y-152268750D02*
X198231250Y-148368750D01*
X200231250Y-152268750D02*
X198231250Y-152268750D01*
X200231250Y-152268750D02*
X200231250Y-148368750D01*
%TO.C,D38*%
X238712500Y-152268750D02*
X238712500Y-148368750D01*
X240712500Y-152268750D02*
X238712500Y-152268750D01*
X240712500Y-152268750D02*
X240712500Y-148368750D01*
D11*
%TO.C,MX62*%
X200921074Y-145554780D02*
X200921074Y-146024780D01*
X200921074Y-142474780D02*
X200921074Y-142704780D01*
X200421074Y-146524780D02*
X195856250Y-146524780D01*
X199371074Y-142474780D02*
X200921074Y-142474780D01*
X191971074Y-142474780D02*
X197871074Y-142474780D01*
X189971074Y-148124780D02*
X189971074Y-148364780D01*
X189971074Y-145274780D02*
X189971074Y-144474780D01*
X200421074Y-146524780D02*
G75*
G03*
X200921074Y-146024780I-1J500001D01*
G01*
X195856250Y-146524781D02*
G75*
G03*
X193561929Y-148364780I-866J-2349331D01*
G01*
X191971074Y-142474780D02*
G75*
G03*
X189971074Y-144474780I5J-2000005D01*
G01*
%TO.C,MX10*%
X239021074Y-88404780D02*
X239021074Y-88874780D01*
X239021074Y-85324780D02*
X239021074Y-85554780D01*
X238521074Y-89374780D02*
X233956250Y-89374780D01*
X237471074Y-85324780D02*
X239021074Y-85324780D01*
X230071074Y-85324780D02*
X235971074Y-85324780D01*
X228071074Y-90974780D02*
X228071074Y-91214780D01*
X228071074Y-88124780D02*
X228071074Y-87324780D01*
X238521074Y-89374780D02*
G75*
G03*
X239021074Y-88874780I-1J500001D01*
G01*
X233956250Y-89374781D02*
G75*
G03*
X231661929Y-91214780I-866J-2349331D01*
G01*
X230071074Y-85324780D02*
G75*
G03*
X228071074Y-87324780I5J-2000005D01*
G01*
%TO.C,MX18*%
X205683574Y-107454780D02*
X205683574Y-107924780D01*
X205683574Y-104374780D02*
X205683574Y-104604780D01*
X205183574Y-108424780D02*
X200618750Y-108424780D01*
X204133574Y-104374780D02*
X205683574Y-104374780D01*
X196733574Y-104374780D02*
X202633574Y-104374780D01*
X194733574Y-110024780D02*
X194733574Y-110264780D01*
X194733574Y-107174780D02*
X194733574Y-106374780D01*
X205183574Y-108424780D02*
G75*
G03*
X205683574Y-107924780I-1J500001D01*
G01*
X200618750Y-108424781D02*
G75*
G03*
X198324429Y-110264780I-866J-2349331D01*
G01*
X196733574Y-104374780D02*
G75*
G03*
X194733574Y-106374780I5J-2000005D01*
G01*
D12*
%TO.C,D1*%
X64881250Y-95118750D02*
X64881250Y-91218750D01*
X66881250Y-95118750D02*
X64881250Y-95118750D01*
X66881250Y-95118750D02*
X66881250Y-91218750D01*
%TO.C,SW5*%
X62423750Y-132795000D02*
X59763750Y-132795000D01*
X62423750Y-130195000D02*
X62423750Y-132795000D01*
X62423750Y-130195000D02*
X59763750Y-130195000D01*
X61093750Y-127595000D02*
X59763750Y-127595000D01*
X59763750Y-130195000D02*
X59763750Y-132795000D01*
X59763750Y-127595000D02*
X59763750Y-128925000D01*
%TO.C,C_LDO2*%
X76560000Y-88627064D02*
X76560000Y-88842736D01*
X75840000Y-88627064D02*
X75840000Y-88842736D01*
%TO.C,D17*%
X183943750Y-114168750D02*
X183943750Y-110268750D01*
X185943750Y-114168750D02*
X183943750Y-114168750D01*
X185943750Y-114168750D02*
X185943750Y-110268750D01*
%TO.C,D31*%
X264906250Y-133218750D02*
X264906250Y-129318750D01*
X266906250Y-133218750D02*
X264906250Y-133218750D01*
X266906250Y-133218750D02*
X266906250Y-129318750D01*
D11*
%TO.C,MX35*%
X162821074Y-150317280D02*
X162821074Y-150787280D01*
X162821074Y-147237280D02*
X162821074Y-147467280D01*
X162321074Y-151287280D02*
X157756250Y-151287280D01*
X161271074Y-147237280D02*
X162821074Y-147237280D01*
X153871074Y-147237280D02*
X159771074Y-147237280D01*
X151871074Y-152887280D02*
X151871074Y-153127280D01*
X151871074Y-150037280D02*
X151871074Y-149237280D01*
X162321074Y-151287280D02*
G75*
G03*
X162821074Y-150787280I-1J500001D01*
G01*
X157756250Y-151287281D02*
G75*
G03*
X155461929Y-153127280I-866J-2349331D01*
G01*
X153871074Y-147237280D02*
G75*
G03*
X151871074Y-149237280I5J-2000005D01*
G01*
D12*
%TO.C,D55*%
X203176000Y-100188000D02*
X203176000Y-99688000D01*
X203176000Y-99688000D02*
X202676000Y-99688000D01*
X202076000Y-99838000D02*
X201276000Y-99838000D01*
D11*
%TO.C,MX1*%
X67571074Y-88404780D02*
X67571074Y-88874780D01*
X67571074Y-85324780D02*
X67571074Y-85554780D01*
X67071074Y-89374780D02*
X62506250Y-89374780D01*
X66021074Y-85324780D02*
X67571074Y-85324780D01*
X58621074Y-85324780D02*
X64521074Y-85324780D01*
X56621074Y-90974780D02*
X56621074Y-91214780D01*
X56621074Y-88124780D02*
X56621074Y-87324780D01*
X67071074Y-89374780D02*
G75*
G03*
X67571074Y-88874780I-1J500001D01*
G01*
X62506250Y-89374781D02*
G75*
G03*
X60211929Y-91214780I-866J-2349331D01*
G01*
X58621074Y-85324780D02*
G75*
G03*
X56621074Y-87324780I5J-2000005D01*
G01*
D12*
%TO.C,D32*%
X81550000Y-152268750D02*
X81550000Y-148368750D01*
X83550000Y-152268750D02*
X81550000Y-152268750D01*
X83550000Y-152268750D02*
X83550000Y-148368750D01*
%TO.C,D37*%
X217281250Y-152268750D02*
X217281250Y-148368750D01*
X219281250Y-152268750D02*
X217281250Y-152268750D01*
X219281250Y-152268750D02*
X219281250Y-148368750D01*
%TO.C,C21*%
X65156485Y-112092528D02*
X64940813Y-112092528D01*
X65156485Y-111372528D02*
X64940813Y-111372528D01*
%TO.C,D18*%
X202993750Y-114168750D02*
X202993750Y-110268750D01*
X204993750Y-114168750D02*
X202993750Y-114168750D01*
X204993750Y-114168750D02*
X204993750Y-110268750D01*
%TO.C,D13*%
X79168750Y-114168750D02*
X79168750Y-110268750D01*
X81168750Y-114168750D02*
X79168750Y-114168750D01*
X81168750Y-114168750D02*
X81168750Y-110268750D01*
%TO.C,D4*%
X122031250Y-95118750D02*
X122031250Y-91218750D01*
X124031250Y-95118750D02*
X122031250Y-95118750D01*
X124031250Y-95118750D02*
X124031250Y-91218750D01*
%TO.C,D21*%
X260143750Y-114168750D02*
X260143750Y-110268750D01*
X262143750Y-114168750D02*
X260143750Y-114168750D01*
X262143750Y-114168750D02*
X262143750Y-110268750D01*
%TO.C,D23*%
X74406250Y-133218750D02*
X74406250Y-129318750D01*
X76406250Y-133218750D02*
X74406250Y-133218750D01*
X76406250Y-133218750D02*
X76406250Y-129318750D01*
%TO.C,D16*%
X136318750Y-114168750D02*
X136318750Y-110268750D01*
X138318750Y-114168750D02*
X136318750Y-114168750D01*
X138318750Y-114168750D02*
X138318750Y-110268750D01*
D11*
%TO.C,MX56*%
X219971074Y-145554780D02*
X219971074Y-146024780D01*
X219971074Y-142474780D02*
X219971074Y-142704780D01*
X219471074Y-146524780D02*
X214906250Y-146524780D01*
X218421074Y-142474780D02*
X219971074Y-142474780D01*
X211021074Y-142474780D02*
X216921074Y-142474780D01*
X209021074Y-148124780D02*
X209021074Y-148364780D01*
X209021074Y-145274780D02*
X209021074Y-144474780D01*
X219471074Y-146524780D02*
G75*
G03*
X219971074Y-146024780I-1J500001D01*
G01*
X214906250Y-146524781D02*
G75*
G03*
X212611929Y-148364780I-866J-2349331D01*
G01*
X211021074Y-142474780D02*
G75*
G03*
X209021074Y-144474780I5J-2000005D01*
G01*
%TO.C,MX27*%
X191396074Y-126504780D02*
X191396074Y-126974780D01*
X191396074Y-123424780D02*
X191396074Y-123654780D01*
X190896074Y-127474780D02*
X186331250Y-127474780D01*
X189846074Y-123424780D02*
X191396074Y-123424780D01*
X182446074Y-123424780D02*
X188346074Y-123424780D01*
X180446074Y-129074780D02*
X180446074Y-129314780D01*
X180446074Y-126224780D02*
X180446074Y-125424780D01*
X190896074Y-127474780D02*
G75*
G03*
X191396074Y-126974780I-1J500001D01*
G01*
X186331250Y-127474781D02*
G75*
G03*
X184036929Y-129314780I-866J-2349331D01*
G01*
X182446074Y-123424780D02*
G75*
G03*
X180446074Y-125424780I5J-2000005D01*
G01*
D12*
%TO.C,D25*%
X112506250Y-133218750D02*
X112506250Y-129318750D01*
X114506250Y-133218750D02*
X112506250Y-133218750D01*
X114506250Y-133218750D02*
X114506250Y-129318750D01*
%TO.C,D54*%
X125500000Y-136794000D02*
X125500000Y-137294000D01*
X125500000Y-137294000D02*
X126000000Y-137294000D01*
X126600000Y-137144000D02*
X127400000Y-137144000D01*
D11*
%TO.C,MX55*%
X105671074Y-145554780D02*
X105671074Y-146024780D01*
X105671074Y-142474780D02*
X105671074Y-142704780D01*
X105171074Y-146524780D02*
X100606250Y-146524780D01*
X104121074Y-142474780D02*
X105671074Y-142474780D01*
X96721074Y-142474780D02*
X102621074Y-142474780D01*
X94721074Y-148124780D02*
X94721074Y-148364780D01*
X94721074Y-145274780D02*
X94721074Y-144474780D01*
X105171074Y-146524780D02*
G75*
G03*
X105671074Y-146024780I-1J500001D01*
G01*
X100606250Y-146524781D02*
G75*
G03*
X98311929Y-148364780I-866J-2349331D01*
G01*
X96721074Y-142474780D02*
G75*
G03*
X94721074Y-144474780I5J-2000005D01*
G01*
D12*
%TO.C,D6*%
X170525000Y-87969600D02*
X166625000Y-87969600D01*
X170525000Y-85969600D02*
X170525000Y-87969600D01*
X170525000Y-85969600D02*
X166625000Y-85969600D01*
%TO.C,D43*%
X260262500Y-100156250D02*
X260262500Y-99656250D01*
X260262500Y-99656250D02*
X259762500Y-99656250D01*
X259162500Y-99806250D02*
X258362500Y-99806250D01*
%TO.C,D29*%
X226806250Y-133218750D02*
X226806250Y-129318750D01*
X228806250Y-133218750D02*
X226806250Y-133218750D01*
X228806250Y-133218750D02*
X228806250Y-129318750D01*
%TO.C,D50*%
X115800000Y-100188000D02*
X115800000Y-99688000D01*
X115800000Y-99688000D02*
X115300000Y-99688000D01*
X114700000Y-99838000D02*
X113900000Y-99838000D01*
%TO.C,D7*%
X179181250Y-95118750D02*
X179181250Y-91218750D01*
X181181250Y-95118750D02*
X179181250Y-95118750D01*
X181181250Y-95118750D02*
X181181250Y-91218750D01*
%TO.C,D57*%
X68350000Y-136794000D02*
X68350000Y-137294000D01*
X68350000Y-137294000D02*
X68850000Y-137294000D01*
X69450000Y-137144000D02*
X70250000Y-137144000D01*
%TO.C,U3*%
X77021250Y-87312500D02*
X77021250Y-87962500D01*
X77021250Y-87312500D02*
X77021250Y-86662500D01*
X80141250Y-87312500D02*
X80141250Y-88987500D01*
X80141250Y-87312500D02*
X80141250Y-86662500D01*
%TO.C,D46*%
X225576000Y-136794000D02*
X225576000Y-137294000D01*
X225576000Y-137294000D02*
X226076000Y-137294000D01*
X226676000Y-137144000D02*
X227476000Y-137144000D01*
D11*
%TO.C,MX16*%
X139008574Y-107454780D02*
X139008574Y-107924780D01*
X139008574Y-104374780D02*
X139008574Y-104604780D01*
X138508574Y-108424780D02*
X133943750Y-108424780D01*
X137458574Y-104374780D02*
X139008574Y-104374780D01*
X130058574Y-104374780D02*
X135958574Y-104374780D01*
X128058574Y-110024780D02*
X128058574Y-110264780D01*
X128058574Y-107174780D02*
X128058574Y-106374780D01*
X138508574Y-108424780D02*
G75*
G03*
X139008574Y-107924780I-1J500001D01*
G01*
X133943750Y-108424781D02*
G75*
G03*
X131649429Y-110264780I-866J-2349331D01*
G01*
X130058574Y-104374780D02*
G75*
G03*
X128058574Y-106374780I5J-2000005D01*
G01*
D12*
%TO.C,D34*%
X108537500Y-152268750D02*
X108537500Y-148368750D01*
X110537500Y-152268750D02*
X108537500Y-152268750D01*
X110537500Y-152268750D02*
X110537500Y-148368750D01*
%TO.C,D20*%
X241093750Y-114168750D02*
X241093750Y-110268750D01*
X243093750Y-114168750D02*
X241093750Y-114168750D01*
X243093750Y-114168750D02*
X243093750Y-110268750D01*
D11*
%TO.C,MX30*%
X248546074Y-126504780D02*
X248546074Y-126974780D01*
X248546074Y-123424780D02*
X248546074Y-123654780D01*
X248046074Y-127474780D02*
X243481250Y-127474780D01*
X246996074Y-123424780D02*
X248546074Y-123424780D01*
X239596074Y-123424780D02*
X245496074Y-123424780D01*
X237596074Y-129074780D02*
X237596074Y-129314780D01*
X237596074Y-126224780D02*
X237596074Y-125424780D01*
X248046074Y-127474780D02*
G75*
G03*
X248546074Y-126974780I-1J500001D01*
G01*
X243481250Y-127474781D02*
G75*
G03*
X241186929Y-129314780I-866J-2349331D01*
G01*
X239596074Y-123424780D02*
G75*
G03*
X237596074Y-125424780I5J-2000005D01*
G01*
D12*
%TO.C,D8*%
X198231250Y-95118750D02*
X198231250Y-91218750D01*
X200231250Y-95118750D02*
X198231250Y-95118750D01*
X200231250Y-95118750D02*
X200231250Y-91218750D01*
D11*
%TO.C,U4*%
X92725000Y-95112500D02*
X91425000Y-95112500D01*
X92725000Y-92212500D02*
X92725000Y-95112500D01*
X91425000Y-92212500D02*
X92725000Y-92212500D01*
X91425000Y-92212500D02*
X91425000Y-95112500D01*
D12*
%TO.C,D14*%
X98218750Y-114168750D02*
X98218750Y-110268750D01*
X100218750Y-114168750D02*
X98218750Y-114168750D01*
X100218750Y-114168750D02*
X100218750Y-110268750D01*
%TO.C,D15*%
X117268750Y-114168750D02*
X117268750Y-110268750D01*
X119268750Y-114168750D02*
X117268750Y-114168750D01*
X119268750Y-114168750D02*
X119268750Y-110268750D01*
%TO.C,U5*%
X55562500Y-113533750D02*
X54762500Y-113533750D01*
X55562500Y-113533750D02*
X56362500Y-113533750D01*
X55562500Y-116653750D02*
X53762500Y-116653750D01*
X55562500Y-116653750D02*
X56362500Y-116653750D01*
D11*
%TO.C,MX26*%
X134246074Y-126504780D02*
X134246074Y-126974780D01*
X134246074Y-123424780D02*
X134246074Y-123654780D01*
X133746074Y-127474780D02*
X129181250Y-127474780D01*
X132696074Y-123424780D02*
X134246074Y-123424780D01*
X125296074Y-123424780D02*
X131196074Y-123424780D01*
X123296074Y-129074780D02*
X123296074Y-129314780D01*
X123296074Y-126224780D02*
X123296074Y-125424780D01*
X133746074Y-127474780D02*
G75*
G03*
X134246074Y-126974780I-1J500001D01*
G01*
X129181250Y-127474781D02*
G75*
G03*
X126886929Y-129314780I-866J-2349331D01*
G01*
X125296074Y-123424780D02*
G75*
G03*
X123296074Y-125424780I5J-2000005D01*
G01*
%TO.C,MX14*%
X100908574Y-107454780D02*
X100908574Y-107924780D01*
X100908574Y-104374780D02*
X100908574Y-104604780D01*
X100408574Y-108424780D02*
X95843750Y-108424780D01*
X99358574Y-104374780D02*
X100908574Y-104374780D01*
X91958574Y-104374780D02*
X97858574Y-104374780D01*
X89958574Y-110024780D02*
X89958574Y-110264780D01*
X89958574Y-107174780D02*
X89958574Y-106374780D01*
X100408574Y-108424780D02*
G75*
G03*
X100908574Y-107924780I-1J500001D01*
G01*
X95843750Y-108424781D02*
G75*
G03*
X93549429Y-110264780I-866J-2349331D01*
G01*
X91958574Y-104374780D02*
G75*
G03*
X89958574Y-106374780I5J-2000005D01*
G01*
D12*
%TO.C,D28*%
X207756250Y-133218750D02*
X207756250Y-129318750D01*
X209756250Y-133218750D02*
X207756250Y-133218750D01*
X209756250Y-133218750D02*
X209756250Y-129318750D01*
%TO.C,D45*%
X185825000Y-118125000D02*
X185825000Y-118625000D01*
X185825000Y-118625000D02*
X186325000Y-118625000D01*
X186925000Y-118475000D02*
X187725000Y-118475000D01*
D11*
%TO.C,MX58*%
X241402324Y-145554780D02*
X241402324Y-146024780D01*
X241402324Y-142474780D02*
X241402324Y-142704780D01*
X240902324Y-146524780D02*
X236337500Y-146524780D01*
X239852324Y-142474780D02*
X241402324Y-142474780D01*
X232452324Y-142474780D02*
X238352324Y-142474780D01*
X230452324Y-148124780D02*
X230452324Y-148364780D01*
X230452324Y-145274780D02*
X230452324Y-144474780D01*
X240902324Y-146524780D02*
G75*
G03*
X241402324Y-146024780I-1J500001D01*
G01*
X236337500Y-146524781D02*
G75*
G03*
X234043179Y-148364780I-866J-2349331D01*
G01*
X232452324Y-142474780D02*
G75*
G03*
X230452324Y-144474780I5J-2000005D01*
G01*
D12*
%TO.C,C16*%
X63860000Y-125304664D02*
X63860000Y-125520336D01*
X63140000Y-125304664D02*
X63140000Y-125520336D01*
%TO.C,F1*%
X81046250Y-86777328D02*
X81046250Y-86260172D01*
X82466250Y-86777328D02*
X82466250Y-86260172D01*
%TO.C,D19*%
X222043750Y-114168750D02*
X222043750Y-110268750D01*
X224043750Y-114168750D02*
X222043750Y-114168750D01*
X224043750Y-114168750D02*
X224043750Y-110268750D01*
%TO.C,D12*%
X60118750Y-114168750D02*
X60118750Y-110268750D01*
X62118750Y-114168750D02*
X60118750Y-114168750D01*
X62118750Y-114168750D02*
X62118750Y-110268750D01*
D11*
%TO.C,MX6*%
X162821074Y-88404780D02*
X162821074Y-88874780D01*
X162821074Y-85324780D02*
X162821074Y-85554780D01*
X162321074Y-89374780D02*
X157756250Y-89374780D01*
X161271074Y-85324780D02*
X162821074Y-85324780D01*
X153871074Y-85324780D02*
X159771074Y-85324780D01*
X151871074Y-90974780D02*
X151871074Y-91214780D01*
X151871074Y-88124780D02*
X151871074Y-87324780D01*
X162321074Y-89374780D02*
G75*
G03*
X162821074Y-88874780I-1J500001D01*
G01*
X157756250Y-89374781D02*
G75*
G03*
X155461929Y-91214780I-866J-2349331D01*
G01*
X153871074Y-85324780D02*
G75*
G03*
X151871074Y-87324780I5J-2000005D01*
G01*
D12*
%TO.C,R_USB1*%
X85084891Y-86105000D02*
X84777609Y-86105000D01*
X85084891Y-85345000D02*
X84777609Y-85345000D01*
%TO.C,D33*%
X102981250Y-152268750D02*
X102981250Y-148368750D01*
X104981250Y-152268750D02*
X102981250Y-152268750D01*
X104981250Y-152268750D02*
X104981250Y-148368750D01*
%TD*%
M02*
