M48
; DRILL file {KiCad (7.0.0)} date Sat Mar  2 17:43:33 2024
; FORMAT={-:-/ absolute / inch / decimal}
; #@! TF.CreationDate,2024-03-02T17:43:33+01:00
; #@! TF.GenerationSoftware,Kicad,Pcbnew,(7.0.0)
; #@! TF.FileFunction,Plated,1,2,PTH
FMAT,2
INCH
; #@! TA.AperFunction,Plated,PTH,ViaDrill
T1C0.0157
; #@! TA.AperFunction,Plated,PTH,ComponentDrill
T2C0.0236
; #@! TA.AperFunction,Plated,PTH,ComponentDrill
T3C0.0315
; #@! TA.AperFunction,Plated,PTH,ComponentDrill
T4C0.0394
; #@! TA.AperFunction,Plated,PTH,ComponentDrill
T5C0.0591
; #@! TA.AperFunction,Plated,PTH,ComponentDrill
T6C0.1181
; #@! TA.AperFunction,Plated,PTH,ComponentDrill
T7C0.1200
%
G90
G05
T1
X1.7695Y-5.1875
X1.7695Y-5.238
X1.7812Y-4.8588
X1.7812Y-4.8981
X1.7812Y-4.9375
X1.9688Y-5.2889
X2.125Y-3.9923
X2.1826Y-4.493
X2.2812Y-4.5481
X2.305Y-4.7862
X2.3053Y-4.827
X2.3125Y-5.0312
X2.3206Y-4.5481
X2.3438Y-5.0625
X2.3512Y-4.4745
X2.4062Y-4.7812
X2.4398Y-4.5618
X2.4529Y-4.9902
X2.5Y-5.1061
X2.5074Y-4.471
X2.5332Y-4.9082
X2.5424Y-5.1768
X2.5588Y-4.3676
X2.5625Y-4.6875
X2.567Y-4.482
X2.5912Y-5.3805
X2.6082Y-4.4705
X2.6265Y-5.4155
X2.6562Y-4.875
X2.6582Y-5.4389
X2.6675Y-4.5309
X2.7077Y-3.9486
X2.7106Y-3.8784
X2.7106Y-3.6875
X2.7188Y-4.5
X2.7188Y-4.9062
X2.7451Y-5.2784
X2.75Y-3.6875
X2.7812Y-4.6805
X2.91Y-4.6804
X2.9688Y-3.5312
X3.0312Y-4.0312
X3.0823Y-4.8522
X3.1223Y-4.8522
X3.1617Y-4.8517
X3.201Y-4.85
X3.2188Y-3.5
X3.2402Y-4.8526
X3.2796Y-4.8519
X3.2812Y-3.3125
X3.2812Y-3.3769
X3.3007Y-4.5243
X3.3412Y-4.5401
X3.3558Y-4.091
X3.36Y-4.4712
X3.4171Y-4.1557
X3.4375Y-4.4688
X3.4713Y-5.2812
X3.4993Y-3.5596
X3.5625Y-3.4135
X3.5831Y-3.9228
X3.5831Y-3.9916
X3.6562Y-3.5625
X3.6579Y-3.8835
X3.6579Y-3.9228
X3.6579Y-3.9916
X3.696Y-3.7522
X3.7188Y-3.5625
X3.7188Y-3.6875
X3.7812Y-4.0312
X3.864Y-3.384
X4.2213Y-5.2812
X4.5312Y-4.0312
X4.9713Y-5.2812
X5.0312Y-4.5625
X5.0625Y-4.625
X5.0938Y-5.3438
X5.0938Y-5.3831
X5.1588Y-4.6481
X5.1588Y-4.6875
X5.25Y-3.9688
X5.2812Y-4.0312
X5.75Y-5.5625
X5.75Y-5.8438
X5.9688Y-3.7786
X6.25Y-6.2305
X6.4688Y-3.7786
X6.6562Y-5.8438
X6.6875Y-5.5625
X6.8289Y-4.2022
X6.8332Y-4.3478
X6.8683Y-4.2022
X6.8726Y-4.3478
X7.2188Y-4.0312
X7.3438Y-4.5625
X7.3438Y-5.375
X7.4062Y-4.6875
X7.4062Y-5.2812
X7.4554Y-4.6476
X7.5Y-5.4062
X7.9688Y-4.0312
X8.1562Y-5.2812
X8.7188Y-4.0312
X8.9062Y-5.2812
X9.4062Y-3.3438
X9.4691Y-4.0282
X9.6562Y-5.2812
X9.7812Y-3.3438
X10.2188Y-4.0312
X10.4062Y-5.2812
T3
X1.9688Y-4.3969
X1.9688Y-4.4756
X1.9688Y-4.5544
X1.9688Y-4.6331
X1.9688Y-4.7119
X1.9688Y-4.7906
X2.8438Y-3.5234
X2.8438Y-3.6021
X2.8438Y-3.6809
T4
X2.4053Y-5.0758
X2.4053Y-5.1758
X6.1203Y-3.3494
X6.1203Y-3.9203
X6.1203Y-5.7869
X6.1203Y-6.3578
X6.2188Y-3.9203
X6.2188Y-6.3578
X6.3172Y-3.3494
X6.3172Y-3.9203
X6.3172Y-5.7869
X6.3172Y-6.3578
T6
X1.9437Y-5.025
X2.1313Y-4.275
X2.1938Y-4.925
X2.3188Y-3.525
X2.3813Y-4.175
X2.5688Y-3.425
X2.6938Y-5.025
X2.8813Y-4.275
X2.9438Y-4.925
X2.975Y-5.775
X3.1187Y-3.825
X3.1313Y-4.175
X3.225Y-5.675
X3.3687Y-3.725
X3.4438Y-5.025
X3.6313Y-4.275
X3.6938Y-4.925
X3.8188Y-5.775
X3.8687Y-3.825
X3.8813Y-4.175
X4.0687Y-5.675
X4.1187Y-3.725
X4.1937Y-5.025
X4.3812Y-4.275
X4.4437Y-4.925
X4.5687Y-3.525
X4.5687Y-5.775
X4.6312Y-4.175
X4.8187Y-3.425
X4.8187Y-5.675
X4.9437Y-5.025
X4.9937Y-6.075
X5.1312Y-4.275
X5.1937Y-4.925
X5.2437Y-5.975
X5.3187Y-3.525
X5.3812Y-4.175
X5.5687Y-3.425
X6.0687Y-3.525
X6.0687Y-5.9625
X6.3187Y-3.425
X6.3187Y-5.8625
X6.8187Y-3.525
X7.0062Y-4.275
X7.0687Y-3.425
X7.1937Y-5.025
X7.2437Y-6.075
X7.2562Y-4.175
X7.4437Y-4.925
X7.4937Y-5.975
X7.5687Y-3.525
X7.5687Y-5.775
X7.7562Y-4.275
X7.8187Y-3.425
X7.8187Y-5.675
X7.9437Y-5.025
X8.0062Y-4.175
X8.1937Y-4.925
X8.3187Y-3.525
X8.3187Y-5.775
X8.5062Y-4.275
X8.5687Y-3.425
X8.5687Y-5.675
X8.6937Y-5.025
X8.7562Y-4.175
X8.9437Y-4.925
X9.0687Y-3.525
X9.1625Y-5.775
X9.2562Y-4.275
X9.3187Y-3.425
X9.4125Y-5.675
X9.4437Y-5.025
X9.5062Y-4.175
X9.6937Y-4.925
X9.8187Y-3.525
X10.0062Y-4.275
X10.0687Y-3.425
X10.1937Y-5.025
X10.2562Y-4.175
X10.4437Y-4.925
T7
X3.9688Y-6.15
X5.4688Y-6.15
X6.9688Y-6.15
X8.4688Y-6.15
T2
G00X3.4039Y-3.2866
M15
G01X3.4039Y-3.3102
M16
G05
G00X3.4039Y-3.4413
M15
G01X3.4039Y-3.4846
M16
G05
G00X3.7441Y-3.2866
M15
G01X3.7441Y-3.3102
M16
G05
G00X3.7441Y-3.4413
M15
G01X3.7441Y-3.4846
M16
G05
T5
G00X5.9983Y-3.6506
M15
G01X5.9983Y-3.5994
M16
G05
G00X5.9983Y-6.0881
M15
G01X5.9983Y-6.0369
M16
G05
G00X6.4392Y-3.6506
M15
G01X6.4392Y-3.5994
M16
G05
G00X6.4392Y-6.0881
M15
G01X6.4392Y-6.0369
M16
G05
T0
M30
