%TF.GenerationSoftware,KiCad,Pcbnew,(7.0.0)*%
%TF.CreationDate,2023-12-07T17:51:03+01:00*%
%TF.ProjectId,Infernum HS,496e6665-726e-4756-9d20-48532e6b6963,rev?*%
%TF.SameCoordinates,Original*%
%TF.FileFunction,Soldermask,Bot*%
%TF.FilePolarity,Negative*%
%FSLAX46Y46*%
G04 Gerber Fmt 4.6, Leading zero omitted, Abs format (unit mm)*
G04 Created by KiCad (PCBNEW (7.0.0)) date 2023-12-07 17:51:03*
%MOMM*%
%LPD*%
G01*
G04 APERTURE LIST*
G04 Aperture macros list*
%AMRoundRect*
0 Rectangle with rounded corners*
0 $1 Rounding radius*
0 $2 $3 $4 $5 $6 $7 $8 $9 X,Y pos of 4 corners*
0 Add a 4 corners polygon primitive as box body*
4,1,4,$2,$3,$4,$5,$6,$7,$8,$9,$2,$3,0*
0 Add four circle primitives for the rounded corners*
1,1,$1+$1,$2,$3*
1,1,$1+$1,$4,$5*
1,1,$1+$1,$6,$7*
1,1,$1+$1,$8,$9*
0 Add four rect primitives between the rounded corners*
20,1,$1+$1,$2,$3,$4,$5,0*
20,1,$1+$1,$4,$5,$6,$7,0*
20,1,$1+$1,$6,$7,$8,$9,0*
20,1,$1+$1,$8,$9,$2,$3,0*%
%AMRotRect*
0 Rectangle, with rotation*
0 The origin of the aperture is its center*
0 $1 length*
0 $2 width*
0 $3 Rotation angle, in degrees counterclockwise*
0 Add horizontal line*
21,1,$1,$2,0,0,$3*%
G04 Aperture macros list end*
%ADD10R,2.000000X2.000000*%
%ADD11C,2.000000*%
%ADD12R,2.000000X3.200000*%
%ADD13C,4.000000*%
%ADD14C,3.987800*%
%ADD15C,1.750000*%
%ADD16C,3.300000*%
%ADD17RoundRect,0.250000X1.025000X1.000000X-1.025000X1.000000X-1.025000X-1.000000X1.025000X-1.000000X0*%
%ADD18RoundRect,0.140000X-0.140000X-0.170000X0.140000X-0.170000X0.140000X0.170000X-0.140000X0.170000X0*%
%ADD19R,1.200000X0.900000*%
%ADD20RoundRect,0.250000X-1.025000X-1.000000X1.025000X-1.000000X1.025000X1.000000X-1.025000X1.000000X0*%
%ADD21RoundRect,0.105000X0.245000X0.245000X-0.245000X0.245000X-0.245000X-0.245000X0.245000X-0.245000X0*%
%ADD22RoundRect,0.105000X-0.245000X-0.245000X0.245000X-0.245000X0.245000X0.245000X-0.245000X0.245000X0*%
%ADD23RoundRect,0.150000X-0.625000X0.150000X-0.625000X-0.150000X0.625000X-0.150000X0.625000X0.150000X0*%
%ADD24RoundRect,0.250000X-0.650000X0.350000X-0.650000X-0.350000X0.650000X-0.350000X0.650000X0.350000X0*%
%ADD25RoundRect,0.135000X-0.185000X0.135000X-0.185000X-0.135000X0.185000X-0.135000X0.185000X0.135000X0*%
%ADD26RoundRect,0.135000X-0.135000X-0.185000X0.135000X-0.185000X0.135000X0.185000X-0.135000X0.185000X0*%
%ADD27R,0.900000X1.200000*%
%ADD28RoundRect,0.140000X0.140000X0.170000X-0.140000X0.170000X-0.140000X-0.170000X0.140000X-0.170000X0*%
%ADD29RoundRect,0.140000X-0.170000X0.140000X-0.170000X-0.140000X0.170000X-0.140000X0.170000X0.140000X0*%
%ADD30RoundRect,0.140000X0.170000X-0.140000X0.170000X0.140000X-0.170000X0.140000X-0.170000X-0.140000X0*%
%ADD31RoundRect,0.062500X-0.220971X-0.309359X0.309359X0.220971X0.220971X0.309359X-0.309359X-0.220971X0*%
%ADD32RoundRect,0.062500X0.220971X-0.309359X0.309359X-0.220971X-0.220971X0.309359X-0.309359X0.220971X0*%
%ADD33RotRect,5.600000X5.600000X45.000000*%
%ADD34R,1.700000X1.700000*%
%ADD35O,1.700000X1.700000*%
%ADD36C,0.750000*%
%ADD37RoundRect,0.050000X-0.300000X-0.725000X0.300000X-0.725000X0.300000X0.725000X-0.300000X0.725000X0*%
%ADD38RoundRect,0.050000X-0.150000X-0.725000X0.150000X-0.725000X0.150000X0.725000X-0.150000X0.725000X0*%
%ADD39O,1.100000X1.700000*%
%ADD40O,1.100000X2.200000*%
%ADD41RoundRect,0.150000X0.150000X-0.587500X0.150000X0.587500X-0.150000X0.587500X-0.150000X-0.587500X0*%
%ADD42R,0.700000X1.000000*%
%ADD43R,0.700000X0.600000*%
%ADD44RoundRect,0.150000X-0.512500X-0.150000X0.512500X-0.150000X0.512500X0.150000X-0.512500X0.150000X0*%
%ADD45RoundRect,0.243750X0.456250X-0.243750X0.456250X0.243750X-0.456250X0.243750X-0.456250X-0.243750X0*%
%ADD46RoundRect,0.135000X0.135000X0.185000X-0.135000X0.185000X-0.135000X-0.185000X0.135000X-0.185000X0*%
G04 APERTURE END LIST*
D10*
%TO.C,SW1*%
X155456249Y-99574999D03*
D11*
X160456250Y-99575000D03*
X157956250Y-99575000D03*
D12*
X152356249Y-92074999D03*
X163556249Y-92074999D03*
D11*
X160456250Y-85075000D03*
X155456250Y-85075000D03*
%TD*%
D10*
%TO.C,SW2*%
X155456249Y-161487499D03*
D11*
X160456250Y-161487500D03*
X157956250Y-161487500D03*
D12*
X152356249Y-153987499D03*
X163556249Y-153987499D03*
D11*
X160456250Y-146987500D03*
X155456250Y-146987500D03*
%TD*%
D13*
%TO.C,S4*%
X138906250Y-156210000D03*
D14*
X138906250Y-140970000D03*
D13*
X100806250Y-156210000D03*
D14*
X100806250Y-140970000D03*
%TD*%
D13*
%TO.C,S3*%
X215106250Y-156210000D03*
D14*
X215106250Y-140970000D03*
D13*
X177006250Y-156210000D03*
D14*
X177006250Y-140970000D03*
%TD*%
D15*
%TO.C,MX31*%
X267811250Y-130175000D03*
D14*
X262731250Y-130175000D03*
D15*
X257651250Y-130175000D03*
D16*
X258921250Y-127635000D03*
D17*
X255371250Y-127635000D03*
X268821250Y-125095000D03*
D16*
X265271250Y-125095000D03*
%TD*%
D15*
%TO.C,MX7*%
X182086250Y-92075000D03*
D14*
X177006250Y-92075000D03*
D15*
X171926250Y-92075000D03*
D16*
X173196250Y-89535000D03*
D17*
X169646250Y-89535000D03*
X183096250Y-86995000D03*
D16*
X179546250Y-86995000D03*
%TD*%
D18*
%TO.C,C20*%
X72048049Y-118885145D03*
X73008049Y-118885145D03*
%TD*%
D19*
%TO.C,D30*%
X246856249Y-132618749D03*
X246856249Y-129318749D03*
%TD*%
D15*
%TO.C,MX61*%
X181451250Y-149225000D03*
D14*
X186531250Y-149225000D03*
D15*
X191611250Y-149225000D03*
D16*
X190341250Y-151765000D03*
D20*
X193891250Y-151765000D03*
X180441250Y-154305000D03*
D16*
X183991250Y-154305000D03*
%TD*%
D21*
%TO.C,D51*%
X58065000Y-100256250D03*
X58065000Y-101356250D03*
X56235000Y-101356250D03*
X56235000Y-100256250D03*
%TD*%
D22*
%TO.C,D53*%
X87985000Y-136694000D03*
X87985000Y-135594000D03*
X89815000Y-135594000D03*
X89815000Y-136694000D03*
%TD*%
%TO.C,D58*%
X107035000Y-136694000D03*
X107035000Y-135594000D03*
X108865000Y-135594000D03*
X108865000Y-136694000D03*
%TD*%
D23*
%TO.C,J2*%
X61500000Y-98512500D03*
X61500000Y-99512500D03*
X61500000Y-100512500D03*
X61500000Y-101512500D03*
D24*
X65375000Y-97212500D03*
X65375000Y-102812500D03*
%TD*%
D22*
%TO.C,D59*%
X207111000Y-136694000D03*
X207111000Y-135594000D03*
X208941000Y-135594000D03*
X208941000Y-136694000D03*
%TD*%
D15*
%TO.C,MX22*%
X58261250Y-130175000D03*
D14*
X53181250Y-130175000D03*
D15*
X48101250Y-130175000D03*
D16*
X49371250Y-127635000D03*
D17*
X45821250Y-127635000D03*
X59271250Y-125095000D03*
D16*
X55721250Y-125095000D03*
%TD*%
D19*
%TO.C,D9*%
X218281249Y-94518749D03*
X218281249Y-91218749D03*
%TD*%
D15*
%TO.C,MX11*%
X258286250Y-92075000D03*
D14*
X253206250Y-92075000D03*
D15*
X248126250Y-92075000D03*
D16*
X249396250Y-89535000D03*
D17*
X245846250Y-89535000D03*
X259296250Y-86995000D03*
D16*
X255746250Y-86995000D03*
%TD*%
D25*
%TO.C,R_Shield1*%
X98145600Y-83716400D03*
X98145600Y-84736400D03*
%TD*%
D26*
%TO.C,R_USB2*%
X96043750Y-85725000D03*
X97063750Y-85725000D03*
%TD*%
D15*
%TO.C,MX3*%
X95726250Y-92075000D03*
D14*
X100806250Y-92075000D03*
D15*
X105886250Y-92075000D03*
D16*
X104616250Y-94615000D03*
D20*
X108166250Y-94615000D03*
X94716250Y-97155000D03*
D16*
X98266250Y-97155000D03*
%TD*%
D15*
%TO.C,MX13*%
X82073750Y-111125000D03*
D14*
X76993750Y-111125000D03*
D15*
X71913750Y-111125000D03*
D16*
X73183750Y-108585000D03*
D17*
X69633750Y-108585000D03*
X83083750Y-106045000D03*
D16*
X79533750Y-106045000D03*
%TD*%
D19*
%TO.C,D10*%
X237331249Y-94518749D03*
X237331249Y-91218749D03*
%TD*%
%TO.C,D24*%
X94456249Y-132618749D03*
X94456249Y-129318749D03*
%TD*%
D15*
%TO.C,MX23*%
X77311250Y-130175000D03*
D14*
X72231250Y-130175000D03*
D15*
X67151250Y-130175000D03*
D16*
X68421250Y-127635000D03*
D17*
X64871250Y-127635000D03*
X78321250Y-125095000D03*
D16*
X74771250Y-125095000D03*
%TD*%
D15*
%TO.C,MX20*%
X243998750Y-111125000D03*
D14*
X238918750Y-111125000D03*
D15*
X233838750Y-111125000D03*
D16*
X235108750Y-108585000D03*
D17*
X231558750Y-108585000D03*
X245008750Y-106045000D03*
D16*
X241458750Y-106045000D03*
%TD*%
D21*
%TO.C,D41*%
X183477500Y-100256250D03*
X183477500Y-101356250D03*
X181647500Y-101356250D03*
X181647500Y-100256250D03*
%TD*%
%TO.C,D56*%
X240691000Y-100288000D03*
X240691000Y-101388000D03*
X238861000Y-101388000D03*
X238861000Y-100288000D03*
%TD*%
D19*
%TO.C,D2*%
X78581249Y-90424999D03*
X78581249Y-93724999D03*
%TD*%
%TO.C,D22*%
X56356249Y-132618749D03*
X56356249Y-129318749D03*
%TD*%
D15*
%TO.C,MX12*%
X63023750Y-111125000D03*
D14*
X57943750Y-111125000D03*
D15*
X52863750Y-111125000D03*
D16*
X54133750Y-108585000D03*
D17*
X50583750Y-108585000D03*
X64033750Y-106045000D03*
D16*
X60483750Y-106045000D03*
%TD*%
D15*
%TO.C,MX9*%
X220186250Y-92075000D03*
D14*
X215106250Y-92075000D03*
D15*
X210026250Y-92075000D03*
D16*
X211296250Y-89535000D03*
D17*
X207746250Y-89535000D03*
X221196250Y-86995000D03*
D16*
X217646250Y-86995000D03*
%TD*%
D19*
%TO.C,D11*%
X256381249Y-94518749D03*
X256381249Y-91218749D03*
%TD*%
D21*
%TO.C,D39*%
X96165000Y-100288000D03*
X96165000Y-101388000D03*
X94335000Y-101388000D03*
X94335000Y-100288000D03*
%TD*%
D15*
%TO.C,MX2*%
X76676250Y-92075000D03*
D14*
X81756250Y-92075000D03*
D15*
X86836250Y-92075000D03*
D16*
X85566250Y-94615000D03*
D20*
X89116250Y-94615000D03*
X75666250Y-97155000D03*
D16*
X79216250Y-97155000D03*
%TD*%
D22*
%TO.C,D52*%
X49885000Y-136694000D03*
X49885000Y-135594000D03*
X51715000Y-135594000D03*
X51715000Y-136694000D03*
%TD*%
D25*
%TO.C,R6*%
X63500000Y-130458750D03*
X63500000Y-131478750D03*
%TD*%
D15*
%TO.C,MX4*%
X124936250Y-92075000D03*
D14*
X119856250Y-92075000D03*
D15*
X114776250Y-92075000D03*
D16*
X116046250Y-89535000D03*
D17*
X112496250Y-89535000D03*
X125946250Y-86995000D03*
D16*
X122396250Y-86995000D03*
%TD*%
D21*
%TO.C,D40*%
X134265000Y-100256250D03*
X134265000Y-101356250D03*
X132435000Y-101356250D03*
X132435000Y-100256250D03*
%TD*%
D27*
%TO.C,D35*%
X170718749Y-148431249D03*
X167418749Y-148431249D03*
%TD*%
D15*
%TO.C,MX29*%
X229711250Y-130175000D03*
D14*
X224631250Y-130175000D03*
D15*
X219551250Y-130175000D03*
D16*
X220821250Y-127635000D03*
D17*
X217271250Y-127635000D03*
X230721250Y-125095000D03*
D16*
X227171250Y-125095000D03*
%TD*%
D19*
%TO.C,D3*%
X97631249Y-90424999D03*
X97631249Y-93724999D03*
%TD*%
D22*
%TO.C,D48*%
X188061000Y-136694000D03*
X188061000Y-135594000D03*
X189891000Y-135594000D03*
X189891000Y-136694000D03*
%TD*%
D28*
%TO.C,C19*%
X65524483Y-112761361D03*
X64564483Y-112761361D03*
%TD*%
D15*
%TO.C,MX8*%
X201136250Y-92075000D03*
D14*
X196056250Y-92075000D03*
D15*
X190976250Y-92075000D03*
D16*
X192246250Y-89535000D03*
D17*
X188696250Y-89535000D03*
X202146250Y-86995000D03*
D16*
X198596250Y-86995000D03*
%TD*%
D28*
%TO.C,C22*%
X60441423Y-122606178D03*
X59481423Y-122606178D03*
%TD*%
D15*
%TO.C,MX59*%
X124301250Y-149225000D03*
D14*
X129381250Y-149225000D03*
D15*
X134461250Y-149225000D03*
D16*
X133191250Y-151765000D03*
D20*
X136741250Y-151765000D03*
X123291250Y-154305000D03*
D16*
X126841250Y-154305000D03*
%TD*%
D18*
%TO.C,C_LDO1*%
X81276250Y-84137500D03*
X82236250Y-84137500D03*
%TD*%
D15*
%TO.C,MX57*%
X84455000Y-149225000D03*
D14*
X79375000Y-149225000D03*
D15*
X74295000Y-149225000D03*
D16*
X75565000Y-146685000D03*
D17*
X72015000Y-146685000D03*
X85465000Y-144145000D03*
D16*
X81915000Y-144145000D03*
%TD*%
D19*
%TO.C,D5*%
X142081249Y-94518749D03*
X142081249Y-91218749D03*
%TD*%
D15*
%TO.C,MX24*%
X96361250Y-130175000D03*
D14*
X91281250Y-130175000D03*
D15*
X86201250Y-130175000D03*
D16*
X87471250Y-127635000D03*
D17*
X83921250Y-127635000D03*
X97371250Y-125095000D03*
D16*
X93821250Y-125095000D03*
%TD*%
D28*
%TO.C,C17*%
X60458031Y-121561582D03*
X59498031Y-121561582D03*
%TD*%
D29*
%TO.C,C18*%
X62302550Y-124926552D03*
X62302550Y-125886552D03*
%TD*%
D15*
%TO.C,MX28*%
X210661250Y-130175000D03*
D14*
X205581250Y-130175000D03*
D15*
X200501250Y-130175000D03*
D16*
X201771250Y-127635000D03*
D17*
X198221250Y-127635000D03*
X211671250Y-125095000D03*
D16*
X208121250Y-125095000D03*
%TD*%
D15*
%TO.C,MX5*%
X143986250Y-92075000D03*
D14*
X138906250Y-92075000D03*
D15*
X133826250Y-92075000D03*
D16*
X135096250Y-89535000D03*
D17*
X131546250Y-89535000D03*
X144996250Y-86995000D03*
D16*
X141446250Y-86995000D03*
%TD*%
D21*
%TO.C,D47*%
X77115000Y-100288000D03*
X77115000Y-101388000D03*
X75285000Y-101388000D03*
X75285000Y-100288000D03*
%TD*%
D22*
%TO.C,D44*%
X264261000Y-136694000D03*
X264261000Y-135594000D03*
X266091000Y-135594000D03*
X266091000Y-136694000D03*
%TD*%
D21*
%TO.C,D42*%
X221577500Y-100256250D03*
X221577500Y-101356250D03*
X219747500Y-101356250D03*
X219747500Y-100256250D03*
%TD*%
D22*
%TO.C,D60*%
X245211000Y-136694000D03*
X245211000Y-135594000D03*
X247041000Y-135594000D03*
X247041000Y-136694000D03*
%TD*%
D30*
%TO.C,C_Shield1*%
X99466400Y-84706400D03*
X99466400Y-83746400D03*
%TD*%
D19*
%TO.C,D26*%
X132556249Y-132618749D03*
X132556249Y-129318749D03*
%TD*%
D15*
%TO.C,MX25*%
X115411250Y-130175000D03*
D14*
X110331250Y-130175000D03*
D15*
X105251250Y-130175000D03*
D16*
X106521250Y-127635000D03*
D17*
X102971250Y-127635000D03*
X116421250Y-125095000D03*
D16*
X112871250Y-125095000D03*
%TD*%
D15*
%TO.C,MX21*%
X263048750Y-111125000D03*
D14*
X257968750Y-111125000D03*
D15*
X252888750Y-111125000D03*
D16*
X254158750Y-108585000D03*
D17*
X250608750Y-108585000D03*
X264058750Y-106045000D03*
D16*
X260508750Y-106045000D03*
%TD*%
D31*
%TO.C,U1*%
X64601364Y-123437723D03*
X64247811Y-123084170D03*
X63894257Y-122730616D03*
X63540704Y-122377063D03*
X63187151Y-122023510D03*
X62833597Y-121669956D03*
X62480044Y-121316403D03*
X62126490Y-120962849D03*
X61772937Y-120609296D03*
X61419384Y-120255743D03*
X61065830Y-119902189D03*
X60712277Y-119548636D03*
D32*
X60712277Y-118576364D03*
X61065830Y-118222811D03*
X61419384Y-117869257D03*
X61772937Y-117515704D03*
X62126490Y-117162151D03*
X62480044Y-116808597D03*
X62833597Y-116455044D03*
X63187151Y-116101490D03*
X63540704Y-115747937D03*
X63894257Y-115394384D03*
X64247811Y-115040830D03*
X64601364Y-114687277D03*
D31*
X65573636Y-114687277D03*
X65927189Y-115040830D03*
X66280743Y-115394384D03*
X66634296Y-115747937D03*
X66987849Y-116101490D03*
X67341403Y-116455044D03*
X67694956Y-116808597D03*
X68048510Y-117162151D03*
X68402063Y-117515704D03*
X68755616Y-117869257D03*
X69109170Y-118222811D03*
X69462723Y-118576364D03*
D32*
X69462723Y-119548636D03*
X69109170Y-119902189D03*
X68755616Y-120255743D03*
X68402063Y-120609296D03*
X68048510Y-120962849D03*
X67694956Y-121316403D03*
X67341403Y-121669956D03*
X66987849Y-122023510D03*
X66634296Y-122377063D03*
X66280743Y-122730616D03*
X65927189Y-123084170D03*
X65573636Y-123437723D03*
D33*
X65087499Y-119062499D03*
%TD*%
D15*
%TO.C,MX19*%
X224948750Y-111125000D03*
D14*
X219868750Y-111125000D03*
D15*
X214788750Y-111125000D03*
D16*
X216058750Y-108585000D03*
D17*
X212508750Y-108585000D03*
X225958750Y-106045000D03*
D16*
X222408750Y-106045000D03*
%TD*%
D15*
%TO.C,MX17*%
X186848750Y-111125000D03*
D14*
X181768750Y-111125000D03*
D15*
X176688750Y-111125000D03*
D16*
X177958750Y-108585000D03*
D17*
X174408750Y-108585000D03*
X187858750Y-106045000D03*
D16*
X184308750Y-106045000D03*
%TD*%
D22*
%TO.C,D49*%
X127672500Y-118025000D03*
X127672500Y-116925000D03*
X129502500Y-116925000D03*
X129502500Y-118025000D03*
%TD*%
D19*
%TO.C,D27*%
X189706249Y-132618749D03*
X189706249Y-129318749D03*
%TD*%
D15*
%TO.C,MX15*%
X120173750Y-111125000D03*
D14*
X115093750Y-111125000D03*
D15*
X110013750Y-111125000D03*
D16*
X111283750Y-108585000D03*
D17*
X107733750Y-108585000D03*
X121183750Y-106045000D03*
D16*
X117633750Y-106045000D03*
%TD*%
D15*
%TO.C,MX60*%
X124936250Y-149225000D03*
D14*
X119856250Y-149225000D03*
D15*
X114776250Y-149225000D03*
D16*
X116046250Y-146685000D03*
D17*
X112496250Y-146685000D03*
X125946250Y-144145000D03*
D16*
X122396250Y-144145000D03*
%TD*%
D19*
%TO.C,D36*%
X199231249Y-151668749D03*
X199231249Y-148368749D03*
%TD*%
%TO.C,D38*%
X239712499Y-151668749D03*
X239712499Y-148368749D03*
%TD*%
D15*
%TO.C,MX62*%
X201136250Y-149225000D03*
D14*
X196056250Y-149225000D03*
D15*
X190976250Y-149225000D03*
D16*
X192246250Y-146685000D03*
D17*
X188696250Y-146685000D03*
X202146250Y-144145000D03*
D16*
X198596250Y-144145000D03*
%TD*%
D15*
%TO.C,MX10*%
X239236250Y-92075000D03*
D14*
X234156250Y-92075000D03*
D15*
X229076250Y-92075000D03*
D16*
X230346250Y-89535000D03*
D17*
X226796250Y-89535000D03*
X240246250Y-86995000D03*
D16*
X236696250Y-86995000D03*
%TD*%
D15*
%TO.C,MX18*%
X205898750Y-111125000D03*
D14*
X200818750Y-111125000D03*
D15*
X195738750Y-111125000D03*
D16*
X197008750Y-108585000D03*
D17*
X193458750Y-108585000D03*
X206908750Y-106045000D03*
D16*
X203358750Y-106045000D03*
%TD*%
D19*
%TO.C,D1*%
X65881249Y-94518749D03*
X65881249Y-91218749D03*
%TD*%
D34*
%TO.C,SW5*%
X61093749Y-128924999D03*
D35*
X61093749Y-131464999D03*
%TD*%
D29*
%TO.C,C_LDO2*%
X76200000Y-88254900D03*
X76200000Y-89214900D03*
%TD*%
D19*
%TO.C,D17*%
X184943749Y-113568749D03*
X184943749Y-110268749D03*
%TD*%
%TO.C,D31*%
X265906249Y-132618749D03*
X265906249Y-129318749D03*
%TD*%
D15*
%TO.C,MX35*%
X163036250Y-153987500D03*
D14*
X157956250Y-153987500D03*
D15*
X152876250Y-153987500D03*
D16*
X154146250Y-151447500D03*
D17*
X150596250Y-151447500D03*
X164046250Y-148907500D03*
D16*
X160496250Y-148907500D03*
%TD*%
D21*
%TO.C,D55*%
X202591000Y-100288000D03*
X202591000Y-101388000D03*
X200761000Y-101388000D03*
X200761000Y-100288000D03*
%TD*%
D15*
%TO.C,MX1*%
X67786250Y-92075000D03*
D14*
X62706250Y-92075000D03*
D15*
X57626250Y-92075000D03*
D16*
X58896250Y-89535000D03*
D17*
X55346250Y-89535000D03*
X68796250Y-86995000D03*
D16*
X65246250Y-86995000D03*
%TD*%
D19*
%TO.C,D32*%
X82549999Y-151668749D03*
X82549999Y-148368749D03*
%TD*%
D36*
%TO.C,USB1*%
X87889600Y-87428400D03*
X93669600Y-87428400D03*
D37*
X87554600Y-88873400D03*
X88329600Y-88873400D03*
D38*
X89029600Y-88873400D03*
X89529600Y-88873400D03*
X90029600Y-88873400D03*
X90529600Y-88873400D03*
X91029600Y-88873400D03*
X91529600Y-88873400D03*
X92029600Y-88873400D03*
X92529600Y-88873400D03*
D37*
X93229600Y-88873400D03*
X94004600Y-88873400D03*
D39*
X86459599Y-83778399D03*
D40*
X86459599Y-87958399D03*
D39*
X95099599Y-83778399D03*
D40*
X95099599Y-87958399D03*
%TD*%
D19*
%TO.C,D37*%
X218281249Y-151668749D03*
X218281249Y-148368749D03*
%TD*%
D28*
%TO.C,C21*%
X65528649Y-111732528D03*
X64568649Y-111732528D03*
%TD*%
D19*
%TO.C,D18*%
X203993749Y-113568749D03*
X203993749Y-110268749D03*
%TD*%
%TO.C,D13*%
X80168749Y-113568749D03*
X80168749Y-110268749D03*
%TD*%
%TO.C,D4*%
X123031249Y-94518749D03*
X123031249Y-91218749D03*
%TD*%
%TO.C,D21*%
X261143749Y-113568749D03*
X261143749Y-110268749D03*
%TD*%
%TO.C,D23*%
X75406249Y-132618749D03*
X75406249Y-129318749D03*
%TD*%
%TO.C,D16*%
X137318749Y-113568749D03*
X137318749Y-110268749D03*
%TD*%
D15*
%TO.C,MX56*%
X220186250Y-149225000D03*
D14*
X215106250Y-149225000D03*
D15*
X210026250Y-149225000D03*
D16*
X211296250Y-146685000D03*
D17*
X207746250Y-146685000D03*
X221196250Y-144145000D03*
D16*
X217646250Y-144145000D03*
%TD*%
D15*
%TO.C,MX27*%
X191611250Y-130175000D03*
D14*
X186531250Y-130175000D03*
D15*
X181451250Y-130175000D03*
D16*
X182721250Y-127635000D03*
D17*
X179171250Y-127635000D03*
X192621250Y-125095000D03*
D16*
X189071250Y-125095000D03*
%TD*%
D19*
%TO.C,D25*%
X113506249Y-132618749D03*
X113506249Y-129318749D03*
%TD*%
D22*
%TO.C,D54*%
X126085000Y-136694000D03*
X126085000Y-135594000D03*
X127915000Y-135594000D03*
X127915000Y-136694000D03*
%TD*%
D15*
%TO.C,MX55*%
X105886250Y-149225000D03*
D14*
X100806250Y-149225000D03*
D15*
X95726250Y-149225000D03*
D16*
X96996250Y-146685000D03*
D17*
X93446250Y-146685000D03*
X106896250Y-144145000D03*
D16*
X103346250Y-144145000D03*
%TD*%
D27*
%TO.C,D6*%
X169924999Y-86969599D03*
X166624999Y-86969599D03*
%TD*%
D21*
%TO.C,D43*%
X259677500Y-100256250D03*
X259677500Y-101356250D03*
X257847500Y-101356250D03*
X257847500Y-100256250D03*
%TD*%
D19*
%TO.C,D29*%
X227806249Y-132618749D03*
X227806249Y-129318749D03*
%TD*%
D21*
%TO.C,D50*%
X115215000Y-100288000D03*
X115215000Y-101388000D03*
X113385000Y-101388000D03*
X113385000Y-100288000D03*
%TD*%
D19*
%TO.C,D7*%
X180181249Y-94518749D03*
X180181249Y-91218749D03*
%TD*%
D22*
%TO.C,D57*%
X68935000Y-136694000D03*
X68935000Y-135594000D03*
X70765000Y-135594000D03*
X70765000Y-136694000D03*
%TD*%
D41*
%TO.C,U3*%
X79531250Y-88250000D03*
X77631250Y-88250000D03*
X78581250Y-86375000D03*
%TD*%
D22*
%TO.C,D46*%
X226161000Y-136694000D03*
X226161000Y-135594000D03*
X227991000Y-135594000D03*
X227991000Y-136694000D03*
%TD*%
D15*
%TO.C,MX16*%
X139223750Y-111125000D03*
D14*
X134143750Y-111125000D03*
D15*
X129063750Y-111125000D03*
D16*
X130333750Y-108585000D03*
D17*
X126783750Y-108585000D03*
X140233750Y-106045000D03*
D16*
X136683750Y-106045000D03*
%TD*%
D19*
%TO.C,D34*%
X109537499Y-151668749D03*
X109537499Y-148368749D03*
%TD*%
%TO.C,D20*%
X242093749Y-113568749D03*
X242093749Y-110268749D03*
%TD*%
D15*
%TO.C,MX30*%
X248761250Y-130175000D03*
D14*
X243681250Y-130175000D03*
D15*
X238601250Y-130175000D03*
D16*
X239871250Y-127635000D03*
D17*
X236321250Y-127635000D03*
X249771250Y-125095000D03*
D16*
X246221250Y-125095000D03*
%TD*%
D19*
%TO.C,D8*%
X199231249Y-94518749D03*
X199231249Y-91218749D03*
%TD*%
D42*
%TO.C,U4*%
X93074999Y-92912499D03*
D43*
X93074999Y-94612499D03*
X91074999Y-94612499D03*
X91074999Y-92712499D03*
%TD*%
D19*
%TO.C,D14*%
X99218749Y-113568749D03*
X99218749Y-110268749D03*
%TD*%
%TO.C,D15*%
X118268749Y-113568749D03*
X118268749Y-110268749D03*
%TD*%
D44*
%TO.C,U5*%
X55218750Y-117631250D03*
X55218750Y-116681250D03*
X55218750Y-115731250D03*
X57493750Y-115731250D03*
X57493750Y-117631250D03*
%TD*%
D15*
%TO.C,MX26*%
X134461250Y-130175000D03*
D14*
X129381250Y-130175000D03*
D15*
X124301250Y-130175000D03*
D16*
X125571250Y-127635000D03*
D17*
X122021250Y-127635000D03*
X135471250Y-125095000D03*
D16*
X131921250Y-125095000D03*
%TD*%
D15*
%TO.C,MX14*%
X101123750Y-111125000D03*
D14*
X96043750Y-111125000D03*
D15*
X90963750Y-111125000D03*
D16*
X92233750Y-108585000D03*
D17*
X88683750Y-108585000D03*
X102133750Y-106045000D03*
D16*
X98583750Y-106045000D03*
%TD*%
D19*
%TO.C,D28*%
X208756249Y-132618749D03*
X208756249Y-129318749D03*
%TD*%
D22*
%TO.C,D45*%
X186410000Y-118025000D03*
X186410000Y-116925000D03*
X188240000Y-116925000D03*
X188240000Y-118025000D03*
%TD*%
D15*
%TO.C,MX58*%
X241617500Y-149225000D03*
D14*
X236537500Y-149225000D03*
D15*
X231457500Y-149225000D03*
D16*
X232727500Y-146685000D03*
D17*
X229177500Y-146685000D03*
X242627500Y-144145000D03*
D16*
X239077500Y-144145000D03*
%TD*%
D29*
%TO.C,C16*%
X63500000Y-124932500D03*
X63500000Y-125892500D03*
%TD*%
D45*
%TO.C,F1*%
X81756250Y-87456250D03*
X81756250Y-85581250D03*
%TD*%
D19*
%TO.C,D19*%
X223043749Y-113568749D03*
X223043749Y-110268749D03*
%TD*%
%TO.C,D12*%
X61118749Y-113568749D03*
X61118749Y-110268749D03*
%TD*%
D15*
%TO.C,MX6*%
X163036250Y-92075000D03*
D14*
X157956250Y-92075000D03*
D15*
X152876250Y-92075000D03*
D16*
X154146250Y-89535000D03*
D17*
X150596250Y-89535000D03*
X164046250Y-86995000D03*
D16*
X160496250Y-86995000D03*
%TD*%
D46*
%TO.C,R_USB1*%
X85441250Y-85725000D03*
X84421250Y-85725000D03*
%TD*%
D19*
%TO.C,D33*%
X103981249Y-151668749D03*
X103981249Y-148368749D03*
%TD*%
M02*
