%TF.GenerationSoftware,KiCad,Pcbnew,(7.0.0)*%
%TF.CreationDate,2023-12-26T01:15:32+01:00*%
%TF.ProjectId,Infernum HS,496e6665-726e-4756-9d20-48532e6b6963,rev?*%
%TF.SameCoordinates,Original*%
%TF.FileFunction,Other,Comment*%
%FSLAX46Y46*%
G04 Gerber Fmt 4.6, Leading zero omitted, Abs format (unit mm)*
G04 Created by KiCad (PCBNEW (7.0.0)) date 2023-12-26 01:15:32*
%MOMM*%
%LPD*%
G01*
G04 APERTURE LIST*
%ADD10C,0.150000*%
G04 APERTURE END LIST*
D10*
%TO.C,S4*%
X119070536Y-140464380D02*
X119689583Y-140464380D01*
X119689583Y-140464380D02*
X119356250Y-140845333D01*
X119356250Y-140845333D02*
X119499107Y-140845333D01*
X119499107Y-140845333D02*
X119594345Y-140892952D01*
X119594345Y-140892952D02*
X119641964Y-140940571D01*
X119641964Y-140940571D02*
X119689583Y-141035809D01*
X119689583Y-141035809D02*
X119689583Y-141273904D01*
X119689583Y-141273904D02*
X119641964Y-141369142D01*
X119641964Y-141369142D02*
X119594345Y-141416761D01*
X119594345Y-141416761D02*
X119499107Y-141464380D01*
X119499107Y-141464380D02*
X119213393Y-141464380D01*
X119213393Y-141464380D02*
X119118155Y-141416761D01*
X119118155Y-141416761D02*
X119070536Y-141369142D01*
X120546726Y-140797714D02*
X120546726Y-141464380D01*
X120118155Y-140797714D02*
X120118155Y-141321523D01*
X120118155Y-141321523D02*
X120165774Y-141416761D01*
X120165774Y-141416761D02*
X120261012Y-141464380D01*
X120261012Y-141464380D02*
X120403869Y-141464380D01*
X120403869Y-141464380D02*
X120499107Y-141416761D01*
X120499107Y-141416761D02*
X120546726Y-141369142D01*
%TO.C,S3*%
X195270536Y-140464380D02*
X195889583Y-140464380D01*
X195889583Y-140464380D02*
X195556250Y-140845333D01*
X195556250Y-140845333D02*
X195699107Y-140845333D01*
X195699107Y-140845333D02*
X195794345Y-140892952D01*
X195794345Y-140892952D02*
X195841964Y-140940571D01*
X195841964Y-140940571D02*
X195889583Y-141035809D01*
X195889583Y-141035809D02*
X195889583Y-141273904D01*
X195889583Y-141273904D02*
X195841964Y-141369142D01*
X195841964Y-141369142D02*
X195794345Y-141416761D01*
X195794345Y-141416761D02*
X195699107Y-141464380D01*
X195699107Y-141464380D02*
X195413393Y-141464380D01*
X195413393Y-141464380D02*
X195318155Y-141416761D01*
X195318155Y-141416761D02*
X195270536Y-141369142D01*
X196746726Y-140797714D02*
X196746726Y-141464380D01*
X196318155Y-140797714D02*
X196318155Y-141321523D01*
X196318155Y-141321523D02*
X196365774Y-141416761D01*
X196365774Y-141416761D02*
X196461012Y-141464380D01*
X196461012Y-141464380D02*
X196603869Y-141464380D01*
X196603869Y-141464380D02*
X196699107Y-141416761D01*
X196699107Y-141416761D02*
X196746726Y-141369142D01*
%TD*%
M02*
