%TF.GenerationSoftware,KiCad,Pcbnew,(7.0.0)*%
%TF.CreationDate,2023-12-07T17:50:09+01:00*%
%TF.ProjectId,Infernum HS,496e6665-726e-4756-9d20-48532e6b6963,rev?*%
%TF.SameCoordinates,Original*%
%TF.FileFunction,Paste,Bot*%
%TF.FilePolarity,Positive*%
%FSLAX46Y46*%
G04 Gerber Fmt 4.6, Leading zero omitted, Abs format (unit mm)*
G04 Created by KiCad (PCBNEW (7.0.0)) date 2023-12-07 17:50:09*
%MOMM*%
%LPD*%
G01*
G04 APERTURE LIST*
G04 Aperture macros list*
%AMRoundRect*
0 Rectangle with rounded corners*
0 $1 Rounding radius*
0 $2 $3 $4 $5 $6 $7 $8 $9 X,Y pos of 4 corners*
0 Add a 4 corners polygon primitive as box body*
4,1,4,$2,$3,$4,$5,$6,$7,$8,$9,$2,$3,0*
0 Add four circle primitives for the rounded corners*
1,1,$1+$1,$2,$3*
1,1,$1+$1,$4,$5*
1,1,$1+$1,$6,$7*
1,1,$1+$1,$8,$9*
0 Add four rect primitives between the rounded corners*
20,1,$1+$1,$2,$3,$4,$5,0*
20,1,$1+$1,$4,$5,$6,$7,0*
20,1,$1+$1,$6,$7,$8,$9,0*
20,1,$1+$1,$8,$9,$2,$3,0*%
G04 Aperture macros list end*
%ADD10RoundRect,0.250000X1.025000X1.000000X-1.025000X1.000000X-1.025000X-1.000000X1.025000X-1.000000X0*%
%ADD11RoundRect,0.140000X-0.140000X-0.170000X0.140000X-0.170000X0.140000X0.170000X-0.140000X0.170000X0*%
%ADD12R,1.200000X0.900000*%
%ADD13RoundRect,0.250000X-1.025000X-1.000000X1.025000X-1.000000X1.025000X1.000000X-1.025000X1.000000X0*%
%ADD14RoundRect,0.105000X0.245000X0.245000X-0.245000X0.245000X-0.245000X-0.245000X0.245000X-0.245000X0*%
%ADD15RoundRect,0.105000X-0.245000X-0.245000X0.245000X-0.245000X0.245000X0.245000X-0.245000X0.245000X0*%
%ADD16RoundRect,0.150000X-0.625000X0.150000X-0.625000X-0.150000X0.625000X-0.150000X0.625000X0.150000X0*%
%ADD17RoundRect,0.250000X-0.650000X0.350000X-0.650000X-0.350000X0.650000X-0.350000X0.650000X0.350000X0*%
%ADD18RoundRect,0.135000X-0.185000X0.135000X-0.185000X-0.135000X0.185000X-0.135000X0.185000X0.135000X0*%
%ADD19RoundRect,0.135000X-0.135000X-0.185000X0.135000X-0.185000X0.135000X0.185000X-0.135000X0.185000X0*%
%ADD20R,0.900000X1.200000*%
%ADD21RoundRect,0.140000X0.140000X0.170000X-0.140000X0.170000X-0.140000X-0.170000X0.140000X-0.170000X0*%
%ADD22RoundRect,0.140000X-0.170000X0.140000X-0.170000X-0.140000X0.170000X-0.140000X0.170000X0.140000X0*%
%ADD23RoundRect,0.140000X0.170000X-0.140000X0.170000X0.140000X-0.170000X0.140000X-0.170000X-0.140000X0*%
%ADD24RoundRect,0.250000X0.000000X-0.445477X0.445477X0.000000X0.000000X0.445477X-0.445477X0.000000X0*%
%ADD25RoundRect,0.062500X-0.220971X-0.309359X0.309359X0.220971X0.220971X0.309359X-0.309359X-0.220971X0*%
%ADD26RoundRect,0.062500X0.220971X-0.309359X0.309359X-0.220971X-0.220971X0.309359X-0.309359X0.220971X0*%
%ADD27RoundRect,0.050000X-0.300000X-0.725000X0.300000X-0.725000X0.300000X0.725000X-0.300000X0.725000X0*%
%ADD28RoundRect,0.050000X-0.150000X-0.725000X0.150000X-0.725000X0.150000X0.725000X-0.150000X0.725000X0*%
%ADD29RoundRect,0.150000X0.150000X-0.587500X0.150000X0.587500X-0.150000X0.587500X-0.150000X-0.587500X0*%
%ADD30R,0.700000X1.000000*%
%ADD31R,0.700000X0.600000*%
%ADD32RoundRect,0.150000X-0.512500X-0.150000X0.512500X-0.150000X0.512500X0.150000X-0.512500X0.150000X0*%
%ADD33RoundRect,0.243750X0.456250X-0.243750X0.456250X0.243750X-0.456250X0.243750X-0.456250X-0.243750X0*%
%ADD34RoundRect,0.135000X0.135000X0.185000X-0.135000X0.185000X-0.135000X-0.185000X0.135000X-0.185000X0*%
G04 APERTURE END LIST*
D10*
%TO.C,MX31*%
X255371250Y-127635000D03*
X268821250Y-125095000D03*
%TD*%
%TO.C,MX7*%
X169646250Y-89535000D03*
X183096250Y-86995000D03*
%TD*%
D11*
%TO.C,C20*%
X72048049Y-118885145D03*
X73008049Y-118885145D03*
%TD*%
D12*
%TO.C,D30*%
X246856249Y-132618749D03*
X246856249Y-129318749D03*
%TD*%
D13*
%TO.C,MX61*%
X193891250Y-151765000D03*
X180441250Y-154305000D03*
%TD*%
D14*
%TO.C,D51*%
X58065000Y-100256250D03*
X58065000Y-101356250D03*
X56235000Y-101356250D03*
X56235000Y-100256250D03*
%TD*%
D15*
%TO.C,D53*%
X87985000Y-136694000D03*
X87985000Y-135594000D03*
X89815000Y-135594000D03*
X89815000Y-136694000D03*
%TD*%
%TO.C,D58*%
X107035000Y-136694000D03*
X107035000Y-135594000D03*
X108865000Y-135594000D03*
X108865000Y-136694000D03*
%TD*%
D16*
%TO.C,J2*%
X61500000Y-98512500D03*
X61500000Y-99512500D03*
X61500000Y-100512500D03*
X61500000Y-101512500D03*
D17*
X65375000Y-97212500D03*
X65375000Y-102812500D03*
%TD*%
D15*
%TO.C,D59*%
X207111000Y-136694000D03*
X207111000Y-135594000D03*
X208941000Y-135594000D03*
X208941000Y-136694000D03*
%TD*%
D10*
%TO.C,MX22*%
X45821250Y-127635000D03*
X59271250Y-125095000D03*
%TD*%
D12*
%TO.C,D9*%
X218281249Y-94518749D03*
X218281249Y-91218749D03*
%TD*%
D10*
%TO.C,MX11*%
X245846250Y-89535000D03*
X259296250Y-86995000D03*
%TD*%
D18*
%TO.C,R_Shield1*%
X98145600Y-83716400D03*
X98145600Y-84736400D03*
%TD*%
D19*
%TO.C,R_USB2*%
X96043750Y-85725000D03*
X97063750Y-85725000D03*
%TD*%
D13*
%TO.C,MX3*%
X108166250Y-94615000D03*
X94716250Y-97155000D03*
%TD*%
D10*
%TO.C,MX13*%
X69633750Y-108585000D03*
X83083750Y-106045000D03*
%TD*%
D12*
%TO.C,D10*%
X237331249Y-94518749D03*
X237331249Y-91218749D03*
%TD*%
%TO.C,D24*%
X94456249Y-132618749D03*
X94456249Y-129318749D03*
%TD*%
D10*
%TO.C,MX23*%
X64871250Y-127635000D03*
X78321250Y-125095000D03*
%TD*%
%TO.C,MX20*%
X231558750Y-108585000D03*
X245008750Y-106045000D03*
%TD*%
D14*
%TO.C,D41*%
X183477500Y-100256250D03*
X183477500Y-101356250D03*
X181647500Y-101356250D03*
X181647500Y-100256250D03*
%TD*%
%TO.C,D56*%
X240691000Y-100288000D03*
X240691000Y-101388000D03*
X238861000Y-101388000D03*
X238861000Y-100288000D03*
%TD*%
D12*
%TO.C,D2*%
X78581249Y-90424999D03*
X78581249Y-93724999D03*
%TD*%
%TO.C,D22*%
X56356249Y-132618749D03*
X56356249Y-129318749D03*
%TD*%
D10*
%TO.C,MX12*%
X50583750Y-108585000D03*
X64033750Y-106045000D03*
%TD*%
%TO.C,MX9*%
X207746250Y-89535000D03*
X221196250Y-86995000D03*
%TD*%
D12*
%TO.C,D11*%
X256381249Y-94518749D03*
X256381249Y-91218749D03*
%TD*%
D14*
%TO.C,D39*%
X96165000Y-100288000D03*
X96165000Y-101388000D03*
X94335000Y-101388000D03*
X94335000Y-100288000D03*
%TD*%
D13*
%TO.C,MX2*%
X89116250Y-94615000D03*
X75666250Y-97155000D03*
%TD*%
D15*
%TO.C,D52*%
X49885000Y-136694000D03*
X49885000Y-135594000D03*
X51715000Y-135594000D03*
X51715000Y-136694000D03*
%TD*%
D18*
%TO.C,R6*%
X63500000Y-130458750D03*
X63500000Y-131478750D03*
%TD*%
D10*
%TO.C,MX4*%
X112496250Y-89535000D03*
X125946250Y-86995000D03*
%TD*%
D14*
%TO.C,D40*%
X134265000Y-100256250D03*
X134265000Y-101356250D03*
X132435000Y-101356250D03*
X132435000Y-100256250D03*
%TD*%
D20*
%TO.C,D35*%
X170718749Y-148431249D03*
X167418749Y-148431249D03*
%TD*%
D10*
%TO.C,MX29*%
X217271250Y-127635000D03*
X230721250Y-125095000D03*
%TD*%
D12*
%TO.C,D3*%
X97631249Y-90424999D03*
X97631249Y-93724999D03*
%TD*%
D15*
%TO.C,D48*%
X188061000Y-136694000D03*
X188061000Y-135594000D03*
X189891000Y-135594000D03*
X189891000Y-136694000D03*
%TD*%
D21*
%TO.C,C19*%
X65524483Y-112761361D03*
X64564483Y-112761361D03*
%TD*%
D10*
%TO.C,MX8*%
X188696250Y-89535000D03*
X202146250Y-86995000D03*
%TD*%
D21*
%TO.C,C22*%
X60441423Y-122606178D03*
X59481423Y-122606178D03*
%TD*%
D13*
%TO.C,MX59*%
X136741250Y-151765000D03*
X123291250Y-154305000D03*
%TD*%
D11*
%TO.C,C_LDO1*%
X81276250Y-84137500D03*
X82236250Y-84137500D03*
%TD*%
D10*
%TO.C,MX57*%
X72015000Y-146685000D03*
X85465000Y-144145000D03*
%TD*%
D12*
%TO.C,D5*%
X142081249Y-94518749D03*
X142081249Y-91218749D03*
%TD*%
D10*
%TO.C,MX24*%
X83921250Y-127635000D03*
X97371250Y-125095000D03*
%TD*%
D21*
%TO.C,C17*%
X60458031Y-121561582D03*
X59498031Y-121561582D03*
%TD*%
D22*
%TO.C,C18*%
X62302550Y-124926552D03*
X62302550Y-125886552D03*
%TD*%
D10*
%TO.C,MX28*%
X198221250Y-127635000D03*
X211671250Y-125095000D03*
%TD*%
%TO.C,MX5*%
X131546250Y-89535000D03*
X144996250Y-86995000D03*
%TD*%
D14*
%TO.C,D47*%
X77115000Y-100288000D03*
X77115000Y-101388000D03*
X75285000Y-101388000D03*
X75285000Y-100288000D03*
%TD*%
D15*
%TO.C,D44*%
X264261000Y-136694000D03*
X264261000Y-135594000D03*
X266091000Y-135594000D03*
X266091000Y-136694000D03*
%TD*%
D14*
%TO.C,D42*%
X221577500Y-100256250D03*
X221577500Y-101356250D03*
X219747500Y-101356250D03*
X219747500Y-100256250D03*
%TD*%
D15*
%TO.C,D60*%
X245211000Y-136694000D03*
X245211000Y-135594000D03*
X247041000Y-135594000D03*
X247041000Y-136694000D03*
%TD*%
D23*
%TO.C,C_Shield1*%
X99466400Y-84706400D03*
X99466400Y-83746400D03*
%TD*%
D12*
%TO.C,D26*%
X132556249Y-132618749D03*
X132556249Y-129318749D03*
%TD*%
D10*
%TO.C,MX25*%
X102971250Y-127635000D03*
X116421250Y-125095000D03*
%TD*%
%TO.C,MX21*%
X250608750Y-108585000D03*
X264058750Y-106045000D03*
%TD*%
D24*
%TO.C,U1*%
X62117652Y-119062500D03*
X63107601Y-120052449D03*
X64097551Y-121042399D03*
X65087500Y-122032348D03*
X63107601Y-118072551D03*
X64097551Y-119062500D03*
X65087500Y-120052449D03*
X66077449Y-121042399D03*
X64097551Y-117082601D03*
X65087500Y-118072551D03*
X66077449Y-119062500D03*
X67067399Y-120052449D03*
X65087500Y-116092652D03*
X66077449Y-117082601D03*
X67067399Y-118072551D03*
X68057348Y-119062500D03*
D25*
X64601364Y-123437723D03*
X64247811Y-123084170D03*
X63894257Y-122730616D03*
X63540704Y-122377063D03*
X63187151Y-122023510D03*
X62833597Y-121669956D03*
X62480044Y-121316403D03*
X62126490Y-120962849D03*
X61772937Y-120609296D03*
X61419384Y-120255743D03*
X61065830Y-119902189D03*
X60712277Y-119548636D03*
D26*
X60712277Y-118576364D03*
X61065830Y-118222811D03*
X61419384Y-117869257D03*
X61772937Y-117515704D03*
X62126490Y-117162151D03*
X62480044Y-116808597D03*
X62833597Y-116455044D03*
X63187151Y-116101490D03*
X63540704Y-115747937D03*
X63894257Y-115394384D03*
X64247811Y-115040830D03*
X64601364Y-114687277D03*
D25*
X65573636Y-114687277D03*
X65927189Y-115040830D03*
X66280743Y-115394384D03*
X66634296Y-115747937D03*
X66987849Y-116101490D03*
X67341403Y-116455044D03*
X67694956Y-116808597D03*
X68048510Y-117162151D03*
X68402063Y-117515704D03*
X68755616Y-117869257D03*
X69109170Y-118222811D03*
X69462723Y-118576364D03*
D26*
X69462723Y-119548636D03*
X69109170Y-119902189D03*
X68755616Y-120255743D03*
X68402063Y-120609296D03*
X68048510Y-120962849D03*
X67694956Y-121316403D03*
X67341403Y-121669956D03*
X66987849Y-122023510D03*
X66634296Y-122377063D03*
X66280743Y-122730616D03*
X65927189Y-123084170D03*
X65573636Y-123437723D03*
%TD*%
D10*
%TO.C,MX19*%
X212508750Y-108585000D03*
X225958750Y-106045000D03*
%TD*%
%TO.C,MX17*%
X174408750Y-108585000D03*
X187858750Y-106045000D03*
%TD*%
D15*
%TO.C,D49*%
X127672500Y-118025000D03*
X127672500Y-116925000D03*
X129502500Y-116925000D03*
X129502500Y-118025000D03*
%TD*%
D12*
%TO.C,D27*%
X189706249Y-132618749D03*
X189706249Y-129318749D03*
%TD*%
D10*
%TO.C,MX15*%
X107733750Y-108585000D03*
X121183750Y-106045000D03*
%TD*%
%TO.C,MX60*%
X112496250Y-146685000D03*
X125946250Y-144145000D03*
%TD*%
D12*
%TO.C,D36*%
X199231249Y-151668749D03*
X199231249Y-148368749D03*
%TD*%
%TO.C,D38*%
X239712499Y-151668749D03*
X239712499Y-148368749D03*
%TD*%
D10*
%TO.C,MX62*%
X188696250Y-146685000D03*
X202146250Y-144145000D03*
%TD*%
%TO.C,MX10*%
X226796250Y-89535000D03*
X240246250Y-86995000D03*
%TD*%
%TO.C,MX18*%
X193458750Y-108585000D03*
X206908750Y-106045000D03*
%TD*%
D12*
%TO.C,D1*%
X65881249Y-94518749D03*
X65881249Y-91218749D03*
%TD*%
D22*
%TO.C,C_LDO2*%
X76200000Y-88254900D03*
X76200000Y-89214900D03*
%TD*%
D12*
%TO.C,D17*%
X184943749Y-113568749D03*
X184943749Y-110268749D03*
%TD*%
%TO.C,D31*%
X265906249Y-132618749D03*
X265906249Y-129318749D03*
%TD*%
D10*
%TO.C,MX35*%
X150596250Y-151447500D03*
X164046250Y-148907500D03*
%TD*%
D14*
%TO.C,D55*%
X202591000Y-100288000D03*
X202591000Y-101388000D03*
X200761000Y-101388000D03*
X200761000Y-100288000D03*
%TD*%
D10*
%TO.C,MX1*%
X55346250Y-89535000D03*
X68796250Y-86995000D03*
%TD*%
D12*
%TO.C,D32*%
X82549999Y-151668749D03*
X82549999Y-148368749D03*
%TD*%
D27*
%TO.C,USB1*%
X87554600Y-88873400D03*
X88329600Y-88873400D03*
D28*
X89029600Y-88873400D03*
X89529600Y-88873400D03*
X90029600Y-88873400D03*
X90529600Y-88873400D03*
X91029600Y-88873400D03*
X91529600Y-88873400D03*
X92029600Y-88873400D03*
X92529600Y-88873400D03*
D27*
X93229600Y-88873400D03*
X94004600Y-88873400D03*
%TD*%
D12*
%TO.C,D37*%
X218281249Y-151668749D03*
X218281249Y-148368749D03*
%TD*%
D21*
%TO.C,C21*%
X65528649Y-111732528D03*
X64568649Y-111732528D03*
%TD*%
D12*
%TO.C,D18*%
X203993749Y-113568749D03*
X203993749Y-110268749D03*
%TD*%
%TO.C,D13*%
X80168749Y-113568749D03*
X80168749Y-110268749D03*
%TD*%
%TO.C,D4*%
X123031249Y-94518749D03*
X123031249Y-91218749D03*
%TD*%
%TO.C,D21*%
X261143749Y-113568749D03*
X261143749Y-110268749D03*
%TD*%
%TO.C,D23*%
X75406249Y-132618749D03*
X75406249Y-129318749D03*
%TD*%
%TO.C,D16*%
X137318749Y-113568749D03*
X137318749Y-110268749D03*
%TD*%
D10*
%TO.C,MX56*%
X207746250Y-146685000D03*
X221196250Y-144145000D03*
%TD*%
%TO.C,MX27*%
X179171250Y-127635000D03*
X192621250Y-125095000D03*
%TD*%
D12*
%TO.C,D25*%
X113506249Y-132618749D03*
X113506249Y-129318749D03*
%TD*%
D15*
%TO.C,D54*%
X126085000Y-136694000D03*
X126085000Y-135594000D03*
X127915000Y-135594000D03*
X127915000Y-136694000D03*
%TD*%
D10*
%TO.C,MX55*%
X93446250Y-146685000D03*
X106896250Y-144145000D03*
%TD*%
D20*
%TO.C,D6*%
X169924999Y-86969599D03*
X166624999Y-86969599D03*
%TD*%
D14*
%TO.C,D43*%
X259677500Y-100256250D03*
X259677500Y-101356250D03*
X257847500Y-101356250D03*
X257847500Y-100256250D03*
%TD*%
D12*
%TO.C,D29*%
X227806249Y-132618749D03*
X227806249Y-129318749D03*
%TD*%
D14*
%TO.C,D50*%
X115215000Y-100288000D03*
X115215000Y-101388000D03*
X113385000Y-101388000D03*
X113385000Y-100288000D03*
%TD*%
D12*
%TO.C,D7*%
X180181249Y-94518749D03*
X180181249Y-91218749D03*
%TD*%
D15*
%TO.C,D57*%
X68935000Y-136694000D03*
X68935000Y-135594000D03*
X70765000Y-135594000D03*
X70765000Y-136694000D03*
%TD*%
D29*
%TO.C,U3*%
X79531250Y-88250000D03*
X77631250Y-88250000D03*
X78581250Y-86375000D03*
%TD*%
D15*
%TO.C,D46*%
X226161000Y-136694000D03*
X226161000Y-135594000D03*
X227991000Y-135594000D03*
X227991000Y-136694000D03*
%TD*%
D10*
%TO.C,MX16*%
X126783750Y-108585000D03*
X140233750Y-106045000D03*
%TD*%
D12*
%TO.C,D34*%
X109537499Y-151668749D03*
X109537499Y-148368749D03*
%TD*%
%TO.C,D20*%
X242093749Y-113568749D03*
X242093749Y-110268749D03*
%TD*%
D10*
%TO.C,MX30*%
X236321250Y-127635000D03*
X249771250Y-125095000D03*
%TD*%
D12*
%TO.C,D8*%
X199231249Y-94518749D03*
X199231249Y-91218749D03*
%TD*%
D30*
%TO.C,U4*%
X93074999Y-92912499D03*
D31*
X93074999Y-94612499D03*
X91074999Y-94612499D03*
X91074999Y-92712499D03*
%TD*%
D12*
%TO.C,D14*%
X99218749Y-113568749D03*
X99218749Y-110268749D03*
%TD*%
%TO.C,D15*%
X118268749Y-113568749D03*
X118268749Y-110268749D03*
%TD*%
D32*
%TO.C,U5*%
X55218750Y-117631250D03*
X55218750Y-116681250D03*
X55218750Y-115731250D03*
X57493750Y-115731250D03*
X57493750Y-117631250D03*
%TD*%
D10*
%TO.C,MX26*%
X122021250Y-127635000D03*
X135471250Y-125095000D03*
%TD*%
%TO.C,MX14*%
X88683750Y-108585000D03*
X102133750Y-106045000D03*
%TD*%
D12*
%TO.C,D28*%
X208756249Y-132618749D03*
X208756249Y-129318749D03*
%TD*%
D15*
%TO.C,D45*%
X186410000Y-118025000D03*
X186410000Y-116925000D03*
X188240000Y-116925000D03*
X188240000Y-118025000D03*
%TD*%
D10*
%TO.C,MX58*%
X229177500Y-146685000D03*
X242627500Y-144145000D03*
%TD*%
D22*
%TO.C,C16*%
X63500000Y-124932500D03*
X63500000Y-125892500D03*
%TD*%
D33*
%TO.C,F1*%
X81756250Y-87456250D03*
X81756250Y-85581250D03*
%TD*%
D12*
%TO.C,D19*%
X223043749Y-113568749D03*
X223043749Y-110268749D03*
%TD*%
%TO.C,D12*%
X61118749Y-113568749D03*
X61118749Y-110268749D03*
%TD*%
D10*
%TO.C,MX6*%
X150596250Y-89535000D03*
X164046250Y-86995000D03*
%TD*%
D34*
%TO.C,R_USB1*%
X85441250Y-85725000D03*
X84421250Y-85725000D03*
%TD*%
D12*
%TO.C,D33*%
X103981249Y-151668749D03*
X103981249Y-148368749D03*
%TD*%
M02*
